<svg xmlns="http://www.w3.org/2000/svg" xmlns:xlink="http://www.w3.org/1999/xlink" xmlns:inkscape="http://www.inkscape.org/namespaces/inkscape" version="1.1" width="376.08076" height="288.13188" viewBox="0 0 376.08076 288.13188">
<defs>
<clipPath id="clip_1">
<path transform="matrix(1,0,0,-1,0,288.13188)" d="M58.94375 39.771875H362.36793V284.53187H58.94375Z"/>
</clipPath>
<g id="font_2_48">
<path transform="matrix(.001,0,0,.001,0,0)" d="M318 664C267 664 229 639 203 589 177 539 165 464 165 364 165 264 177 189 203 139 229 89 267 64 318 64 369 64 407 89 433 139 458 189 471 264 471 364 471 464 458 539 433 589 407 639 369 664 318 664ZM318 742C399 742 461 709 505 645 548 580 570 486 570 364 570 241 548 147 505 83 461 19 399-13 317-13 235-13 173 19 130 83 87 147 66 241 66 364 66 486 87 580 130 645 173 709 236 742 318 742Z"/>
</g>
<clipPath id="clip_3">
<path transform="matrix(1,0,0,-1,0,288.13188)" d="M58.94375 39.771875H362.36793V284.53187H58.94375Z"/>
</clipPath>
<g id="font_2_50">
<path transform="matrix(.001,0,0,.001,0,0)" d="M192 83H536V0H73V83C110 121 161 173 226 239 290 304 331 346 348 365 380 400 402 430 414 455 426 479 433 504 433 528 433 566 419 598 392 622 365 646 330 659 286 659 255 659 222 653 188 643 154 632 117 616 78 594V694C118 710 155 722 189 730 223 738 255 742 284 742 359 742 419 723 464 685 509 647 532 597 532 534 532 504 526 475 515 449 504 422 484 390 454 354 446 344 420 317 376 272 332 227 271 164 192 83Z"/>
</g>
<clipPath id="clip_4">
<path transform="matrix(1,0,0,-1,0,288.13188)" d="M58.94375 39.771875H362.36793V284.53187H58.94375Z"/>
</clipPath>
<g id="font_2_52">
<path transform="matrix(.001,0,0,.001,0,0)" d="M378 643 129 254H378V643ZM352 729H476V254H580V172H476V0H378V172H49V267L352 729Z"/>
</g>
<clipPath id="clip_5">
<path transform="matrix(1,0,0,-1,0,288.13188)" d="M58.94375 39.771875H362.36793V284.53187H58.94375Z"/>
</clipPath>
<g id="font_2_54">
<path transform="matrix(.001,0,0,.001,0,0)" d="M330 404C286 404 251 388 225 358 199 328 186 286 186 234 186 181 199 139 225 109 251 79 286 64 330 64 374 64 409 79 435 109 461 139 474 181 474 234 474 286 461 328 435 358 409 388 374 404 330 404ZM526 713V623C501 635 476 644 451 650 425 656 400 659 376 659 310 659 260 637 226 593 192 549 172 482 168 394 187 422 211 444 240 459 269 474 301 482 336 482 409 482 467 459 509 415 551 371 573 310 573 234 573 159 550 99 506 54 462 9 403-13 330-13 246-13 181 19 137 83 92 147 70 241 70 364 70 479 97 571 152 639 206 707 280 742 372 742 396 742 421 739 447 735 472 730 498 723 526 713Z"/>
</g>
<clipPath id="clip_6">
<path transform="matrix(1,0,0,-1,0,288.13188)" d="M58.94375 39.771875H362.36793V284.53187H58.94375Z"/>
</clipPath>
<g id="font_2_56">
<path transform="matrix(.001,0,0,.001,0,0)" d="M318 346C271 346 234 333 207 308 180 283 167 249 167 205 167 161 180 126 207 101 234 76 271 64 318 64 364 64 401 76 428 102 455 127 469 161 469 205 469 249 455 283 429 308 402 333 365 346 318 346ZM219 388C177 398 144 418 120 447 96 476 85 511 85 553 85 611 105 657 147 691 188 725 245 742 318 742 390 742 447 725 489 691 530 657 551 611 551 553 551 511 539 476 515 447 491 418 459 398 417 388 464 377 501 355 528 323 554 291 568 251 568 205 568 134 546 80 503 43 459 5 397-13 317-13 237-13 175 5 132 43 89 80 68 134 68 205 68 251 81 291 108 323 134 355 171 377 219 388ZM183 544C183 506 194 476 218 455 242 434 275 424 318 424 360 424 393 434 417 455 441 476 453 506 453 544 453 582 441 611 417 632 393 653 360 664 318 664 275 664 242 653 218 632 194 611 183 582 183 544Z"/>
</g>
<clipPath id="clip_7">
<path transform="matrix(1,0,0,-1,0,288.13188)" d="M58.94375 39.771875H362.36793V284.53187H58.94375Z"/>
</clipPath>
<g id="font_2_49">
<path transform="matrix(.001,0,0,.001,0,0)" d="M124 83H285V639L110 604V694L284 729H383V83H544V0H124V83Z"/>
</g>
<clipPath id="clip_8">
<path transform="matrix(1,0,0,-1,0,288.13188)" d="M58.94375 39.771875H362.36793V284.53187H58.94375Z"/>
</clipPath>
<clipPath id="clip_9">
<path transform="matrix(1,0,0,-1,0,288.13188)" d="M58.94375 39.771875H362.36793V284.53187H58.94375Z"/>
</clipPath>
<g id="font_2_84">
<path transform="matrix(.001,0,0,.001,0,0)" d="M-2 729H614V646H355V0H256V646H-2V729Z"/>
</g>
<g id="font_2_117">
<path transform="matrix(.001,0,0,.001,0,0)" d="M85 216V547H175V219C175 167 185 129 205 103 225 77 255 64 296 64 344 64 383 79 411 110 439 141 453 183 453 237V547H543V0H453V84C431 50 405 26 377 10 348-5 315-13 277-13 214-13 166 6 134 45 101 83 85 140 85 216ZM311 560V560Z"/>
</g>
<g id="font_2_114">
<path transform="matrix(.001,0,0,.001,0,0)" d="M411 463C401 469 390 473 378 476 366 478 353 480 339 480 288 480 249 463 222 430 194 397 181 350 181 288V0H91V547H181V462C199 495 224 520 254 536 284 552 321 560 365 560 371 560 378 559 386 559 393 558 401 557 411 555V463Z"/>
</g>
<g id="font_2_110">
<path transform="matrix(.001,0,0,.001,0,0)" d="M549 330V0H459V327C459 379 448 417 428 443 408 469 378 482 338 482 289 482 251 466 223 435 195 404 181 362 181 309V0H91V547H181V462C202 494 227 519 257 535 286 551 320 560 358 560 420 560 468 540 500 501 532 462 549 405 549 330Z"/>
</g>
<g id="font_2_32">
</g>
<g id="font_2_105">
<path transform="matrix(.001,0,0,.001,0,0)" d="M94 547H184V0H94V547ZM94 760H184V646H94V760Z"/>
</g>
<g id="font_2_100">
<path transform="matrix(.001,0,0,.001,0,0)" d="M454 464V760H544V0H454V82C435 49 411 25 382 10 353-5 319-13 279-13 213-13 159 13 117 65 75 117 55 187 55 273 55 359 75 428 117 481 159 533 213 560 279 560 319 560 353 552 382 536 411 520 435 496 454 464ZM148 273C148 207 161 155 188 117 215 79 252 61 300 61 348 61 385 79 413 117 440 155 454 207 454 273 454 339 440 390 413 428 385 466 348 485 300 485 252 485 215 466 188 428 161 390 148 339 148 273Z"/>
</g>
<g id="font_2_101">
<path transform="matrix(.001,0,0,.001,0,0)" d="M562 296V252H149C153 190 171 142 205 110 238 78 284 62 344 62 378 62 412 66 444 74 476 82 509 95 541 113V28C509 14 476 3 442-3 408-9 373-13 339-13 251-13 182 12 131 62 80 112 55 181 55 268 55 357 79 428 127 481 175 533 241 560 323 560 397 560 455 536 498 489 540 441 562 377 562 296ZM472 322C471 371 457 410 431 440 404 469 368 484 324 484 274 484 234 469 204 441 174 413 156 373 152 322H472Z"/>
</g>
<g id="font_2_120">
<path transform="matrix(.001,0,0,.001,0,0)" d="M549 547 351 281 559 0H453L294 215 135 0H29L241 286 47 547H153L298 352 443 547H549Z"/>
</g>
<clipPath id="clip_10">
<path transform="matrix(1,0,0,-1,0,288.13188)" d="M58.94375 39.771875H362.36793V284.53187H58.94375Z"/>
</clipPath>
<g id="font_2_53">
<path transform="matrix(.001,0,0,.001,0,0)" d="M108 729H495V646H198V467C212 472 227 476 241 478 255 480 270 482 284 482 365 482 429 459 477 415 525 370 549 310 549 234 549 155 524 94 475 51 426 8 357-13 269-13 238-13 207-10 175-6 143-1 111 6 77 17V116C106 100 136 88 168 80 199 72 232 69 267 69 323 69 368 83 401 113 433 143 450 183 450 234 450 284 433 324 401 354 368 384 323 399 267 399 241 399 214 396 188 390 162 384 135 375 108 363V729Z"/>
</g>
<g id="font_2_75">
<path transform="matrix(.001,0,0,.001,0,0)" d="M98 729H197V421L524 729H651L289 389 677 0H547L197 351V0H98V729Z"/>
</g>
<clipPath id="clip_11">
<path transform="matrix(1,0,0,-1,0,288.13188)" d="M58.94375 39.771875H362.36793V284.53187H58.94375Z"/>
</clipPath>
<clipPath id="clip_12">
<path transform="matrix(1,0,0,-1,0,288.13188)" d="M58.94375 39.771875H362.36793V284.53187H58.94375Z"/>
</clipPath>
<clipPath id="clip_13">
<path transform="matrix(1,0,0,-1,0,288.13188)" d="M58.94375 39.771875H362.36793V284.53187H58.94375Z"/>
</clipPath>
<clipPath id="clip_14">
<path transform="matrix(1,0,0,-1,0,288.13188)" d="M58.94375 39.771875H362.36793V284.53187H58.94375Z"/>
</clipPath>
<g id="font_2_80">
<path transform="matrix(.001,0,0,.001,0,0)" d="M197 648V374H321C367 374 402 385 427 409 452 433 465 467 465 511 465 555 452 588 427 612 402 636 367 648 321 648H197ZM98 729H321C402 729 464 710 506 673 548 636 569 582 569 511 569 439 548 384 506 348 464 311 402 293 321 293H197V0H98V729Z"/>
</g>
<g id="font_2_45">
<path transform="matrix(.001,0,0,.001,0,0)" d="M49 314H312V234H49V314Z"/>
</g>
<g id="font_2_116">
<path transform="matrix(.001,0,0,.001,0,0)" d="M183 702V547H368V477H183V180C183 135 189 106 201 94 213 81 238 75 276 75H368V0H276C206 0 158 13 132 39 106 65 93 112 93 180V477H27V547H93V702H183Z"/>
</g>
<g id="font_2_99">
<path transform="matrix(.001,0,0,.001,0,0)" d="M488 526V442C462 456 437 466 411 473 385 480 360 484 334 484 276 484 230 465 198 428 166 391 150 339 150 273 150 206 166 154 198 117 230 80 276 62 334 62 360 62 385 65 411 72 437 79 462 90 488 104V21C462 9 436 0 410-5 383-10 354-13 324-13 242-13 176 12 128 64 79 115 55 185 55 273 55 362 79 432 128 483 177 534 244 560 330 560 358 560 385 557 411 551 437 545 463 537 488 526Z"/>
</g>
<g id="font_2_111">
<path transform="matrix(.001,0,0,.001,0,0)" d="M306 484C258 484 220 465 192 427 164 389 150 338 150 273 150 207 163 156 191 118 219 80 257 62 306 62 354 62 392 80 420 118 448 156 462 207 462 273 462 337 448 389 420 427 392 465 354 484 306 484ZM306 560C384 560 445 534 490 484 534 433 557 363 557 273 557 183 534 113 490 63 445 12 384-13 306-13 227-13 165 12 121 63 77 113 55 183 55 273 55 363 77 433 121 484 165 534 227 560 306 560Z"/>
</g>
<clipPath id="clip_15">
<path transform="matrix(1,0,0,-1,0,288.13188)" d="M58.94375 39.771875H362.36793V284.53187H58.94375Z"/>
</clipPath>
<clipPath id="clip_16">
<path transform="matrix(1,0,0,-1,0,288.13188)" d="M58.94375 39.771875H362.36793V284.53187H58.94375Z"/>
</clipPath>
<clipPath id="clip_17">
<path transform="matrix(1,0,0,-1,0,288.13188)" d="M58.94375 39.771875H362.36793V284.53187H58.94375Z"/>
</clipPath>
<clipPath id="clip_18">
<path transform="matrix(1,0,0,-1,0,288.13188)" d="M58.94375 39.771875H362.36793V284.53187H58.94375Z"/>
</clipPath>
<clipPath id="clip_19">
<path transform="matrix(1,0,0,-1,0,288.13188)" d="M58.94375 39.771875H362.36793V284.53187H58.94375Z"/>
</clipPath>
<clipPath id="clip_20">
<path transform="matrix(1,0,0,-1,0,288.13188)" d="M58.94375 39.771875H362.36793V284.53187H58.94375Z"/>
</clipPath>
<clipPath id="clip_21">
<path transform="matrix(1,0,0,-1,0,288.13188)" d="M58.94375 39.771875H362.36793V284.53187H58.94375Z"/>
</clipPath>
<clipPath id="clip_22">
<path transform="matrix(1,0,0,-1,0,288.13188)" d="M58.94375 39.771875H362.36793V284.53187H58.94375Z"/>
</clipPath>
<clipPath id="clip_23">
<path transform="matrix(1,0,0,-1,0,288.13188)" d="M58.94375 39.771875H362.36793V284.53187H58.94375Z"/>
</clipPath>
<g id="font_2_77">
<path transform="matrix(.001,0,0,.001,0,0)" d="M98 729H245L431 233 618 729H765V0H669V640L481 140H382L194 640V0H98V729Z"/>
</g>
<g id="font_2_103">
<path transform="matrix(.001,0,0,.001,0,0)" d="M454 280C454 344 440 395 414 431 387 467 349 485 301 485 253 485 215 467 188 431 161 395 148 344 148 280 148 215 161 165 188 129 215 93 253 75 301 75 349 75 387 93 414 129 440 165 454 215 454 280ZM544 68C544-24 523-93 482-139 440-184 377-207 292-207 260-207 231-204 203-200 175-195 147-188 121-178V-91C147-105 173-115 199-122 225-129 251-133 278-133 336-133 380-117 410-87 439-56 454-10 454 52V96C435 64 411 40 382 24 353 8 319 0 279 0 211 0 157 25 116 76 75 127 55 195 55 280 55 364 75 432 116 483 157 534 211 560 279 560 319 560 353 552 382 536 411 520 435 496 454 464V547H544V68Z"/>
</g>
<g id="font_2_97">
<path transform="matrix(.001,0,0,.001,0,0)" d="M343 275C270 275 220 266 192 250 164 233 150 205 150 165 150 133 160 107 181 89 202 70 231 61 267 61 317 61 357 78 387 114 417 149 432 196 432 255V275H343ZM522 312V0H432V83C411 49 385 25 355 10 325-5 287-13 243-13 187-13 142 2 109 33 76 64 60 106 60 159 60 220 80 266 122 298 163 329 224 345 306 345H432V354C432 395 418 427 391 450 364 472 326 484 277 484 245 484 215 480 185 472 155 464 127 453 100 439V522C132 534 164 544 195 550 226 556 256 560 286 560 365 560 424 539 463 498 502 457 522 395 522 312Z"/>
</g>
<g id="font_2_76">
<path transform="matrix(.001,0,0,.001,0,0)" d="M98 729H197V83H552V0H98V729Z"/>
</g>
<g id="font_2_104">
<path transform="matrix(.001,0,0,.001,0,0)" d="M549 330V0H459V327C459 379 448 417 428 443 408 469 378 482 338 482 289 482 251 466 223 435 195 404 181 362 181 309V0H91V760H181V462C202 494 227 519 257 535 286 551 320 560 358 560 420 560 468 540 500 501 532 462 549 405 549 330Z"/>
</g>
</defs>
<path transform="matrix(1,0,0,-1,0,288.13188)" d="M0 0H376.08076V288.13188H0Z" fill="#ffffff"/>
<path transform="matrix(1,0,0,-1,0,288.13188)" d="M58.94375 39.771875H362.36793V284.53187H58.94375Z" fill="#ffffff"/>
<g clip-path="url(#clip_1)">
<path transform="matrix(1,0,0,-1,0,288.13188)" stroke-width=".8" stroke-linecap="butt" stroke-dasharray=".8,1.32" stroke-linejoin="round" fill="none" stroke="#b0b0b0" stroke-opacity=".5" d="M70.66177 39.771875V284.53187"/>
</g>
<path transform="matrix(1,0,0,-1,0,288.13188)" d="M70.66177 39.771875V36.271875"/>
<path transform="matrix(1,0,0,-1,0,288.13188)" stroke-width=".8" stroke-linecap="butt" stroke-linejoin="round" fill="none" stroke="#000000" d="M70.66177 39.771875V36.271875"/>
<use data-text="0" xlink:href="#font_2_48" transform="matrix(12,0,0,-12,66.84146,264.485)"/>
<g clip-path="url(#clip_3)">
<path transform="matrix(1,0,0,-1,0,288.13188)" stroke-width=".8" stroke-linecap="butt" stroke-dasharray=".8,1.32" stroke-linejoin="round" fill="none" stroke="#b0b0b0" stroke-opacity=".5" d="M112.141498 39.771875V284.53187"/>
</g>
<path transform="matrix(1,0,0,-1,0,288.13188)" d="M112.141498 39.771875V36.271875"/>
<path transform="matrix(1,0,0,-1,0,288.13188)" stroke-width=".8" stroke-linecap="butt" stroke-linejoin="round" fill="none" stroke="#000000" d="M112.141498 39.771875V36.271875"/>
<use data-text="2" xlink:href="#font_2_50" transform="matrix(12,0,0,-12,104.50087,264.485)"/>
<use data-text="0" xlink:href="#font_2_48" transform="matrix(12,0,0,-12,112.13287,264.485)"/>
<g clip-path="url(#clip_4)">
<path transform="matrix(1,0,0,-1,0,288.13188)" stroke-width=".8" stroke-linecap="butt" stroke-dasharray=".8,1.32" stroke-linejoin="round" fill="none" stroke="#b0b0b0" stroke-opacity=".5" d="M153.62122 39.771875V284.53187"/>
</g>
<path transform="matrix(1,0,0,-1,0,288.13188)" d="M153.62122 39.771875V36.271875"/>
<path transform="matrix(1,0,0,-1,0,288.13188)" stroke-width=".8" stroke-linecap="butt" stroke-linejoin="round" fill="none" stroke="#000000" d="M153.62122 39.771875V36.271875"/>
<use data-text="4" xlink:href="#font_2_52" transform="matrix(12,0,0,-12,145.98059,264.485)"/>
<use data-text="0" xlink:href="#font_2_48" transform="matrix(12,0,0,-12,153.6126,264.485)"/>
<g clip-path="url(#clip_5)">
<path transform="matrix(1,0,0,-1,0,288.13188)" stroke-width=".8" stroke-linecap="butt" stroke-dasharray=".8,1.32" stroke-linejoin="round" fill="none" stroke="#b0b0b0" stroke-opacity=".5" d="M195.10094 39.771875V284.53187"/>
</g>
<path transform="matrix(1,0,0,-1,0,288.13188)" d="M195.10094 39.771875V36.271875"/>
<path transform="matrix(1,0,0,-1,0,288.13188)" stroke-width=".8" stroke-linecap="butt" stroke-linejoin="round" fill="none" stroke="#000000" d="M195.10094 39.771875V36.271875"/>
<use data-text="6" xlink:href="#font_2_54" transform="matrix(12,0,0,-12,187.46031,264.485)"/>
<use data-text="0" xlink:href="#font_2_48" transform="matrix(12,0,0,-12,195.09232,264.485)"/>
<g clip-path="url(#clip_6)">
<path transform="matrix(1,0,0,-1,0,288.13188)" stroke-width=".8" stroke-linecap="butt" stroke-dasharray=".8,1.32" stroke-linejoin="round" fill="none" stroke="#b0b0b0" stroke-opacity=".5" d="M236.58066 39.771875V284.53187"/>
</g>
<path transform="matrix(1,0,0,-1,0,288.13188)" d="M236.58066 39.771875V36.271875"/>
<path transform="matrix(1,0,0,-1,0,288.13188)" stroke-width=".8" stroke-linecap="butt" stroke-linejoin="round" fill="none" stroke="#000000" d="M236.58066 39.771875V36.271875"/>
<use data-text="8" xlink:href="#font_2_56" transform="matrix(12,0,0,-12,228.94004,264.485)"/>
<use data-text="0" xlink:href="#font_2_48" transform="matrix(12,0,0,-12,236.57204,264.485)"/>
<g clip-path="url(#clip_7)">
<path transform="matrix(1,0,0,-1,0,288.13188)" stroke-width=".8" stroke-linecap="butt" stroke-dasharray=".8,1.32" stroke-linejoin="round" fill="none" stroke="#b0b0b0" stroke-opacity=".5" d="M278.06037 39.771875V284.53187"/>
</g>
<path transform="matrix(1,0,0,-1,0,288.13188)" d="M278.06037 39.771875V36.271875"/>
<path transform="matrix(1,0,0,-1,0,288.13188)" stroke-width=".8" stroke-linecap="butt" stroke-linejoin="round" fill="none" stroke="#000000" d="M278.06037 39.771875V36.271875"/>
<use data-text="1" xlink:href="#font_2_49" transform="matrix(12,0,0,-12,266.59944,264.485)"/>
<use data-text="0" xlink:href="#font_2_48" transform="matrix(12,0,0,-12,274.2314,264.485)"/>
<use data-text="0" xlink:href="#font_2_48" transform="matrix(12,0,0,-12,281.86344,264.485)"/>
<g clip-path="url(#clip_8)">
<path transform="matrix(1,0,0,-1,0,288.13188)" stroke-width=".8" stroke-linecap="butt" stroke-dasharray=".8,1.32" stroke-linejoin="round" fill="none" stroke="#b0b0b0" stroke-opacity=".5" d="M319.5401 39.771875V284.53187"/>
</g>
<path transform="matrix(1,0,0,-1,0,288.13188)" d="M319.5401 39.771875V36.271875"/>
<path transform="matrix(1,0,0,-1,0,288.13188)" stroke-width=".8" stroke-linecap="butt" stroke-linejoin="round" fill="none" stroke="#000000" d="M319.5401 39.771875V36.271875"/>
<use data-text="1" xlink:href="#font_2_49" transform="matrix(12,0,0,-12,308.07917,264.485)"/>
<use data-text="2" xlink:href="#font_2_50" transform="matrix(12,0,0,-12,315.71116,264.485)"/>
<use data-text="0" xlink:href="#font_2_48" transform="matrix(12,0,0,-12,323.34318,264.485)"/>
<g clip-path="url(#clip_9)">
<path transform="matrix(1,0,0,-1,0,288.13188)" stroke-width=".8" stroke-linecap="butt" stroke-dasharray=".8,1.32" stroke-linejoin="round" fill="none" stroke="#b0b0b0" stroke-opacity=".5" d="M361.0198 39.771875V284.53187"/>
</g>
<path transform="matrix(1,0,0,-1,0,288.13188)" d="M361.0198 39.771875V36.271875"/>
<path transform="matrix(1,0,0,-1,0,288.13188)" stroke-width=".8" stroke-linecap="butt" stroke-linejoin="round" fill="none" stroke="#000000" d="M361.0198 39.771875V36.271875"/>
<use data-text="1" xlink:href="#font_2_49" transform="matrix(12,0,0,-12,349.55888,264.485)"/>
<use data-text="4" xlink:href="#font_2_52" transform="matrix(12,0,0,-12,357.19087,264.485)"/>
<use data-text="0" xlink:href="#font_2_48" transform="matrix(12,0,0,-12,364.82289,264.485)"/>
<use data-text="T" xlink:href="#font_2_84" transform="matrix(14,0,0,-14,174.44489,281.6256)"/>
<use data-text="u" xlink:href="#font_2_117" transform="matrix(14,0,0,-14,180.87389,281.6256)"/>
<use data-text="r" xlink:href="#font_2_114" transform="matrix(14,0,0,-14,189.74988,281.6256)"/>
<use data-text="n" xlink:href="#font_2_110" transform="matrix(14,0,0,-14,195.26952,281.6256)"/>
<use data-text=" " xlink:href="#font_2_32" transform="matrix(14,0,0,-14,204.14551,281.6256)"/>
<use data-text="i" xlink:href="#font_2_105" transform="matrix(14,0,0,-14,208.5975,281.6256)"/>
<use data-text="n" xlink:href="#font_2_110" transform="matrix(14,0,0,-14,212.48952,281.6256)"/>
<use data-text="d" xlink:href="#font_2_100" transform="matrix(14,0,0,-14,221.36551,281.6256)"/>
<use data-text="e" xlink:href="#font_2_101" transform="matrix(14,0,0,-14,230.25551,281.6256)"/>
<use data-text="x" xlink:href="#font_2_120" transform="matrix(14,0,0,-14,238.63114,281.6256)"/>
<g clip-path="url(#clip_10)">
<path transform="matrix(1,0,0,-1,0,288.13188)" stroke-width=".8" stroke-linecap="butt" stroke-dasharray=".8,1.32" stroke-linejoin="round" fill="none" stroke="#b0b0b0" stroke-opacity=".5" d="M58.94375 73.73871H362.36793"/>
</g>
<path transform="matrix(1,0,0,-1,0,288.13188)" d="M58.94375 73.73871H55.44375"/>
<path transform="matrix(1,0,0,-1,0,288.13188)" stroke-width=".8" stroke-linecap="butt" stroke-linejoin="round" fill="none" stroke="#000000" d="M58.94375 73.73871H55.44375"/>
<use data-text="5" xlink:href="#font_2_53" transform="matrix(12,0,0,-12,28.7875,218.95566)"/>
<use data-text="0" xlink:href="#font_2_48" transform="matrix(12,0,0,-12,36.419504,218.95566)"/>
<use data-text="K" xlink:href="#font_2_75" transform="matrix(12,0,0,-12,44.051504,218.95566)"/>
<g clip-path="url(#clip_11)">
<path transform="matrix(1,0,0,-1,0,288.13188)" stroke-width=".8" stroke-linecap="butt" stroke-dasharray=".8,1.32" stroke-linejoin="round" fill="none" stroke="#b0b0b0" stroke-opacity=".5" d="M58.94375 118.682598H362.36793"/>
</g>
<path transform="matrix(1,0,0,-1,0,288.13188)" d="M58.94375 118.682598H55.44375"/>
<path transform="matrix(1,0,0,-1,0,288.13188)" stroke-width=".8" stroke-linecap="butt" stroke-linejoin="round" fill="none" stroke="#000000" d="M58.94375 118.682598H55.44375"/>
<use data-text="1" xlink:href="#font_2_49" transform="matrix(12,0,0,-12,21.146876,174.01178)"/>
<use data-text="0" xlink:href="#font_2_48" transform="matrix(12,0,0,-12,28.778876,174.01178)"/>
<use data-text="0" xlink:href="#font_2_48" transform="matrix(12,0,0,-12,36.410879,174.01178)"/>
<use data-text="K" xlink:href="#font_2_75" transform="matrix(12,0,0,-12,44.042879,174.01178)"/>
<g clip-path="url(#clip_12)">
<path transform="matrix(1,0,0,-1,0,288.13188)" stroke-width=".8" stroke-linecap="butt" stroke-dasharray=".8,1.32" stroke-linejoin="round" fill="none" stroke="#b0b0b0" stroke-opacity=".5" d="M58.94375 163.62648H362.36793"/>
</g>
<path transform="matrix(1,0,0,-1,0,288.13188)" d="M58.94375 163.62648H55.44375"/>
<path transform="matrix(1,0,0,-1,0,288.13188)" stroke-width=".8" stroke-linecap="butt" stroke-linejoin="round" fill="none" stroke="#000000" d="M58.94375 163.62648H55.44375"/>
<use data-text="1" xlink:href="#font_2_49" transform="matrix(12,0,0,-12,21.146876,129.06789)"/>
<use data-text="5" xlink:href="#font_2_53" transform="matrix(12,0,0,-12,28.778876,129.06789)"/>
<use data-text="0" xlink:href="#font_2_48" transform="matrix(12,0,0,-12,36.410879,129.06789)"/>
<use data-text="K" xlink:href="#font_2_75" transform="matrix(12,0,0,-12,44.042879,129.06789)"/>
<g clip-path="url(#clip_13)">
<path transform="matrix(1,0,0,-1,0,288.13188)" stroke-width=".8" stroke-linecap="butt" stroke-dasharray=".8,1.32" stroke-linejoin="round" fill="none" stroke="#b0b0b0" stroke-opacity=".5" d="M58.94375 208.57038H362.36793"/>
</g>
<path transform="matrix(1,0,0,-1,0,288.13188)" d="M58.94375 208.57038H55.44375"/>
<path transform="matrix(1,0,0,-1,0,288.13188)" stroke-width=".8" stroke-linecap="butt" stroke-linejoin="round" fill="none" stroke="#000000" d="M58.94375 208.57038H55.44375"/>
<use data-text="2" xlink:href="#font_2_50" transform="matrix(12,0,0,-12,21.146876,84.12399)"/>
<use data-text="0" xlink:href="#font_2_48" transform="matrix(12,0,0,-12,28.778876,84.12399)"/>
<use data-text="0" xlink:href="#font_2_48" transform="matrix(12,0,0,-12,36.410879,84.12399)"/>
<use data-text="K" xlink:href="#font_2_75" transform="matrix(12,0,0,-12,44.042879,84.12399)"/>
<g clip-path="url(#clip_14)">
<path transform="matrix(1,0,0,-1,0,288.13188)" stroke-width=".8" stroke-linecap="butt" stroke-dasharray=".8,1.32" stroke-linejoin="round" fill="none" stroke="#b0b0b0" stroke-opacity=".5" d="M58.94375 253.51425H362.36793"/>
</g>
<path transform="matrix(1,0,0,-1,0,288.13188)" d="M58.94375 253.51425H55.44375"/>
<path transform="matrix(1,0,0,-1,0,288.13188)" stroke-width=".8" stroke-linecap="butt" stroke-linejoin="round" fill="none" stroke="#000000" d="M58.94375 253.51425H55.44375"/>
<use data-text="2" xlink:href="#font_2_50" transform="matrix(12,0,0,-12,21.146876,39.180116)"/>
<use data-text="5" xlink:href="#font_2_53" transform="matrix(12,0,0,-12,28.778876,39.180116)"/>
<use data-text="0" xlink:href="#font_2_48" transform="matrix(12,0,0,-12,36.410879,39.180116)"/>
<use data-text="K" xlink:href="#font_2_75" transform="matrix(12,0,0,-12,44.042879,39.180116)"/>
<use data-text="P" xlink:href="#font_2_80" transform="matrix(0,-14,-14,-0,14.240625,182.1831)"/>
<use data-text="e" xlink:href="#font_2_101" transform="matrix(0,-14,-14,-0,14.240625,174.2411)"/>
<use data-text="r" xlink:href="#font_2_114" transform="matrix(0,-14,-14,-0,14.240625,165.6311)"/>
<use data-text="-" xlink:href="#font_2_45" transform="matrix(0,-14,-14,-0,14.240625,160.76773)"/>
<use data-text="t" xlink:href="#font_2_116" transform="matrix(0,-14,-14,-0,14.240625,155.71373)"/>
<use data-text="u" xlink:href="#font_2_117" transform="matrix(0,-14,-14,-0,14.240625,150.22573)"/>
<use data-text="r" xlink:href="#font_2_114" transform="matrix(0,-14,-14,-0,14.240625,141.34973)"/>
<use data-text="n" xlink:href="#font_2_110" transform="matrix(0,-14,-14,-0,14.240625,135.83011)"/>
<use data-text=" " xlink:href="#font_2_32" transform="matrix(0,-14,-14,-0,14.240625,126.9541)"/>
<use data-text="c" xlink:href="#font_2_99" transform="matrix(0,-14,-14,-0,14.240625,122.502109)"/>
<use data-text="o" xlink:href="#font_2_111" transform="matrix(0,-14,-14,-0,14.240625,114.8021)"/>
<use data-text="n" xlink:href="#font_2_110" transform="matrix(0,-14,-14,-0,14.240625,106.2341)"/>
<use data-text="t" xlink:href="#font_2_116" transform="matrix(0,-14,-14,-0,14.240625,97.3581)"/>
<use data-text="e" xlink:href="#font_2_101" transform="matrix(0,-14,-14,-0,14.240625,91.8701)"/>
<use data-text="x" xlink:href="#font_2_120" transform="matrix(0,-14,-14,-0,14.240625,83.49448)"/>
<use data-text="t" xlink:href="#font_2_116" transform="matrix(0,-14,-14,-0,14.240625,75.206478)"/>
<g clip-path="url(#clip_15)">
<path transform="matrix(1,0,0,-1,0,288.13188)" stroke-width="1.4" stroke-linecap="square" stroke-linejoin="round" fill="none" stroke="#ef3a47" stroke-opacity=".85" d="M72.735759 50.89733 74.809749 51.108568 76.88373 51.443849 81.0317 58.16206 83.10569 58.453298 85.17967 76.223209 87.25366 76.42635 89.327648 89.40705 91.401638 90.16211 93.47562 92.94324 105.91953 94.041667 107.99352 101.09965 110.067508 101.430438 114.21548 104.61966 116.28947 104.82819 118.36345 107.01337 120.43744 107.66685 124.58541 109.67404 126.65939 110.54326 128.73339 110.936069 130.80738 111.884387 132.88135 113.36933 134.95534 115.7936 137.02933 119.29563 139.10332 119.993167 141.17729 122.21968 143.25128 125.00261 145.32527 125.4089 147.39926 127.229129 149.47324 127.56711 151.54723 129.10599 153.62122 129.497 157.76918 130.01566 159.84317 130.31768 161.91716 132.38689 163.99115 133.90329 166.06513 134.75904 168.13912 135.79543 170.2131 136.10375 172.2871 137.05297 174.36107 141.3478 176.43506 141.78195 178.50905 143.20398 180.58304 147.40354 182.65702 147.81882 188.87899 148.2341 190.95296 148.96489 193.02695 149.16983 195.10094 153.24535 199.2489 153.4467 203.39688 154.5712 205.47087 155.77568 207.54485 156.22063 209.61884 157.89075 211.69283 160.64492 213.76682 161.52132 219.98877 163.23458 222.06276 165.36492 224.13674 165.46649 228.28472 166.21436 232.43268 166.4157 234.50667 170.53617 236.58066 170.92179 242.80261 171.7011 246.95059 175.15549 249.02457 175.34786 251.09856 176.0238 253.17255 176.25931 255.24654 177.09078 257.32054 177.7083 259.3945 178.12718 265.61647 178.71865 267.69047 179.09528 269.76445 179.29572 271.8384 179.89617 273.9124 180.0292 278.06037 180.8238 280.13438 182.48854 282.20835 183.151 284.28236 184.08943 286.35633 184.5955 290.5043 188.73394 292.57829 190.42563 296.72627 190.86788 298.80024 191.46833 300.87425 191.71822 302.9482 193.38474 305.0222 194.32495 307.0962 194.73215 309.17018 195.30474 311.24415 196.2072 313.31816 196.83733 317.46614 197.21935 319.5401 201.20587 321.61408 201.6535 323.68809 201.88452 325.76206 205.907 327.83604 207.4225 329.91004 214.97667 331.984 215.9115 338.20597 216.48769 340.27998 227.86478 346.50193 228.55243 348.5759 230.18839"/>
</g>
<g clip-path="url(#clip_16)">
<path transform="matrix(1,0,0,-1,0,288.13188)" stroke-width="1.4" stroke-linecap="square" stroke-linejoin="round" fill="none" stroke="#ef3a47" stroke-opacity=".85" d="M72.735759 51.542726 74.809749 55.448347 76.88373 55.84655 78.95772 55.979585 81.0317 59.318017 83.10569 59.710828 85.17967 59.878919 87.25366 60.088354 89.327648 66.28072 91.401638 78.210628 93.47562 80.97468 95.54961 81.44389 97.62359 86.575588 99.69758 89.576038 101.77156 90.31581 103.84555 95.58144 105.91953 97.09245 107.99352 98.77965 110.067508 99.956279 112.141498 100.73021 114.21548 102.099208 116.28947 103.81426 118.36345 104.28348 120.43744 104.47224 122.51142 104.64033 124.58541 104.8255 126.65939 105.02775 128.73339 105.58235 130.80738 107.65157 132.88135 114.57383 134.95534 115.169788 137.02933 117.825069 139.10332 118.29428 141.17729 119.08979 143.25128 119.56619 145.32527 120.98642 147.39926 121.60036 149.47324 121.93564 151.54723 125.62463 153.62122 125.94103 155.6952 126.41025 157.76918 129.23093 159.84317 129.43677 161.91716 135.71364 163.99115 136.706 166.06513 137.12937 168.13912 139.80083 170.2131 142.25386 172.2871 142.3878 174.36107 142.6305 176.43506 142.87679 178.50905 145.24263 180.58304 145.71096 182.65702 147.5959 184.731 150.42916 186.805 152.93883 188.87899 153.18422 190.95296 153.3586 193.02695 154.3339 195.10094 155.00534 197.17493 155.18422 199.2489 155.74602 201.32289 156.58917 203.39688 156.76625 205.47087 156.98827 207.54485 157.51502 209.61884 157.80715 211.69283 158.09389 213.76682 158.38063 215.84079 158.66738 217.91478 158.95412 219.98877 159.24086 222.06276 159.83861 224.13674 160.12535 226.21073 160.4121 228.28472 160.69884 230.3587 160.98558 232.43268 161.27233 234.50667 161.55907 236.58066 161.84581 238.65465 162.13256 240.72863 162.4193 242.80261 163.01705 244.8766 163.30379 246.95059 163.59053 249.02457 163.87728 251.09856 164.16402 253.17255 164.45076 255.24654 164.7375 257.32054 165.02425 259.3945 165.31098 261.46849 165.59772 263.54249 166.19548 265.61647 166.48223 267.69047 166.76897 269.76445 167.0557 271.8384 167.34244 273.9124 167.62918 275.9864 167.91593 278.06037 168.06694 280.13438 168.92627 282.20835 169.55638 284.28236 170.45796 286.35633 170.72313 288.4303 171.062 290.5043 172.87325 292.57829 173.10066"/>
</g>
<g clip-path="url(#clip_17)">
<path transform="matrix(1,0,0,-1,0,288.13188)" stroke-width="1.4" stroke-linecap="square" stroke-linejoin="round" fill="none" stroke="#ef3a47" stroke-opacity=".85" d="M72.735759 51.612836 74.809749 51.8034 76.88373 55.1661 78.95772 58.57015 81.0317 58.85959 83.10569 76.6295 85.17967 76.81018 87.25366 89.79087 89.327648 90.22862 91.401638 97.28661 93.47562 97.72976 95.54961 100.97471 97.62359 101.34594 99.69758 104.060558 101.77156 104.29696 103.84555 104.6682 105.91953 106.36258 107.99352 107.63 110.067508 108.37876 112.141498 108.67539 114.21548 111.3154 116.28947 113.91405 118.36345 119.23091 120.43744 120.43721 122.51142 120.674518 124.58541 121.26777 126.65939 122.547779 128.73339 123.21744 130.80738 125.15811 132.88135 130.2988 134.95534 130.76172 137.02933 131.13205 139.10332 131.96082 141.17729 132.31407 143.25128 132.82015 145.32527 133.37296 147.39926 134.55139 149.47324 134.91094 151.54723 136.0534 153.62122 136.80487 155.6952 137.14105 157.76918 137.43498 159.84317 137.87364 161.91716 138.28443 163.99115 138.555 166.06513 140.81836 168.13912 141.61837 170.2131 144.62961 172.2871 145.04399 174.36107 146.32848 176.43506 147.30197 178.50905 149.2759 180.58304 150.96399 182.65702 152.25658 184.731 152.57839 186.805 152.99636 188.87899 153.18602 190.95296 153.3649 193.02695 153.5222 195.10094 156.85344 197.17493 159.90244 199.2489 161.2139 201.32289 162.99997 203.39688 163.20401 205.47087 163.74514 207.54485 163.97885 209.61884 164.20537 211.69283 168.22785 213.76682 168.74379 215.84079 171.07639 217.91478 172.6584 219.98877 179.3137 222.06276 180.13169 224.13674 180.54965 226.21073 180.79775 228.28472 183.3137 230.3587 183.52405 232.43268 184.78247 234.50667 185.54921 236.58066 185.7218 238.65465 185.92584 240.72863 193.92316 242.80261 194.78339 244.8766 195.19957 246.95059 195.44406 249.02457 195.68137 251.09856 196.73305"/>
</g>
<g clip-path="url(#clip_18)">
<path transform="matrix(1,0,0,-1,0,288.13188)" stroke-width="1.4" stroke-linecap="square" stroke-linejoin="round" fill="none" stroke="#fdb515" stroke-opacity=".85" d="M72.735759 50.898229 74.809749 51.24879 76.88373 52.861379 78.95772 53.318906 81.0317 53.831266 83.10569 54.001157 85.17967 57.479814 87.25366 59.701837 89.327648 68.55848 91.401638 78.77422 93.47562 79.45108 95.54961 79.58861 97.62359 80.739177 99.69758 80.93962 101.77156 81.07895 103.84555 86.396709 105.91953 89.51761 107.99352 97.67133 110.067508 100.44886 112.141498 103.22999 114.21548 103.40617 116.28947 103.60482 118.36345 103.76752 120.43744 103.91853 122.51142 104.06505 124.58541 104.83539 126.65939 104.9855 128.73339 105.12213 130.80738 106.80393 132.88135 126.957668 134.95534 127.829578 137.02933 128.2916 139.10332 128.39318 141.17729 128.98015 143.25128 130.58464 145.32527 130.98374 147.39926 131.46913 149.47324 132.24308 151.54723 132.87229 153.62122 133.1806 155.6952 133.28217 157.76918 134.15947 159.84317 134.48487 161.91716 134.75453 163.99115 134.85431 166.06513 134.95589 168.13912 139.8979 170.2131 143.79994 172.2871 143.9015 174.36107 144.13343 176.43506 144.59185 178.50905 144.94512 180.58304 145.93837 182.65702 146.11994 184.731 146.44084 186.805 151.6813 188.87899 152.26647 190.95296 155.09523 193.02695 155.195 195.10094 155.50063 197.17493 157.04669"/>
</g>
<g clip-path="url(#clip_19)">
<path transform="matrix(1,0,0,-1,0,288.13188)" stroke-width="1.4" stroke-linecap="square" stroke-linejoin="round" fill="none" stroke="#fdb515" stroke-opacity=".85" d="M72.735759 51.52295 74.809749 51.966997 76.88373 52.277109 78.95772 57.66408 81.0317 58.014646 83.10569 58.333745 85.17967 63.681169 87.25366 66.92612 89.327648 77.5895 91.401638 80.3203 93.47562 84.317607 95.54961 98.54324 97.62359 102.06145 99.69758 109.24078 101.77156 115.68664 103.84555 116.71855 105.91953 123.15092 107.99352 123.93834 110.067508 126.94148 112.141498 127.58958 114.21548 130.18285 116.28947 130.75003 118.36345 133.3343 120.43744 134.52892 122.51142 134.90555 124.58541 135.78464 126.65939 136.42555 128.73339 136.92893 130.80738 137.69925 132.88135 138.55588 134.95534 139.09792 137.02933 139.73792 139.10332 140.7006 141.17729 141.27768 143.25128 145.23006 145.32527 148.34557 147.39926 149.13388 149.47324 151.82962 151.54723 156.21704 153.62122 157.23906 155.6952 159.22109 157.76918 169.0674 159.84317 172.52088 161.91716 173.43863 163.99115 173.9402 166.06513 175.58965 168.13912 185.46292 170.2131 192.2054 172.2871 196.17934 174.36107 200.94789 176.43506 205.75688 178.50905 209.2724 180.58304 214.14342 182.65702 215.87105 184.731 216.91735 186.805 220.77983 188.87899 225.50164 190.95296 228.11017 193.02695 228.35288 195.10094 229.3003 197.17493 231.62299 199.2489 232.99019 201.32289 234.76906 203.39688 236.81311 205.47087 237.36682 207.54485 238.54705 209.61884 240.86705 211.69283 241.27783 213.76682 242.4221 215.84079 243.37671 217.91478 243.783 219.98877 244.49402 222.06276 247.17987 224.13674 247.71829 226.21073 248.14707 228.28472 250.7601 230.3587 251.13762 232.43268 251.50167 234.50667 253.50527 236.58066 253.73448 238.65465 256.10124 240.72863 258.58485 242.80261 260.07966 244.8766 260.6963 246.95059 260.97315 249.02457 261.75068 251.09856 262.18214 253.17255 262.8482 255.24654 263.23564 257.32054 264.06349 259.3945 264.4491 261.46849 264.90934 263.54249 265.29496 265.61647 265.7354 267.69047 266.30259 269.76445 266.63877 271.8384 269.72734 273.9124 270.53633 275.9864 271.61405 278.06037 273.40644"/>
</g>
<g clip-path="url(#clip_20)">
<path transform="matrix(1,0,0,-1,0,288.13188)" stroke-width="1.4" stroke-linecap="square" stroke-linejoin="round" fill="none" stroke="#fdb515" stroke-opacity=".85" d="M72.735759 51.60834 74.809749 51.776433 76.88373 53.328794 78.95772 53.49149 81.0317 53.655088 83.10569 53.825876 85.17967 62.682516 87.25366 65.19578 89.327648 69.193088 91.401638 79.58052 93.47562 82.83985 95.54961 86.0848 97.62359 86.41828 99.69758 87.15986 101.77156 88.75626 103.84555 103.55718 105.91953 103.76212 107.99352 106.676288 110.067508 108.53157 112.141498 108.78775 114.21548 109.45741 116.28947 110.55405 118.36345 110.85427 120.43744 111.98506 122.51142 112.654727 124.58541 124.585529 126.65939 126.02463 128.73339 131.36127 130.80738 132.00936 132.88135 133.85565 134.95534 134.9451 137.02933 135.72173 139.10332 136.31589 141.17729 136.90105 143.25128 138.05072 145.32527 139.37207 147.39926 143.03679 149.47324 145.1096 151.54723 148.0813 153.62122 156.43457 155.6952 161.25884 157.76918 163.17615 159.84317 166.58289 161.91716 170.07054 163.99115 171.6148 166.06513 178.78516 168.13912 179.6391 170.2131 186.44629 172.2871 186.99552 174.36107 188.6863 176.43506 189.54024 178.50905 193.26699 180.58304 194.14429 182.65702 202.13352 184.731 203.21216 186.805 204.31328 188.87899 205.21036 190.95296 209.31105 193.02695 210.18746 195.10094 212.32769 197.17493 213.21936 199.2489 216.5515 201.32289 216.956 203.39688 218.28723 205.47087 219.16275 207.54485 219.62477 209.61884 220.50568 211.69283 221.02162 213.76682 223.35242 215.84079 224.39601 217.91478 226.33669 219.98877 226.58748 222.06276 226.82118 224.13674 227.05669 226.21073 227.27152 228.28472 227.71466 230.3587 230.54254 232.43268 230.92006 234.50667 231.09626 236.58066 233.41895 238.65465 233.73535 240.72863 234.0176 242.80261 235.03243 244.8766 238.2666 246.95059 238.70885 249.02457 241.44144 251.09856 241.73986 253.17255 244.05178 255.24654 244.29088 257.32054 244.49762 259.3945 244.71245"/>
</g>
<g clip-path="url(#clip_21)">
<path transform="matrix(1,0,0,-1,0,288.13188)" stroke-width="1.4" stroke-linecap="square" stroke-linejoin="round" fill="none" stroke="#009647" stroke-opacity=".85" d="M72.735759 51.027669 74.809749 51.3225 76.88373 51.48969 78.95772 51.6443 81.0317 53.126546 83.10569 54.162954 85.17967 54.908124 87.25366 55.060934 89.327648 55.620935 91.401638 55.94902 93.47562 69.03848 95.54961 71.81961 97.62359 71.98141 99.69758 72.13601 101.77156 72.27534 103.84555 72.40927 105.91953 72.5459 107.99352 72.64748 110.067508 76.08568 112.141498 76.90186 114.21548 77.43669 116.28947 77.55534 118.36345 78.09377 120.43744 79.789958 122.51142 80.354457 124.58541 83.27221 126.65939 87.361209 128.73339 88.30952 130.80738 88.49828 132.88135 88.59985 134.95534 88.74188 137.02933 89.33874 139.10332 99.12841 141.17729 99.22999 143.25128 99.39987 145.32527 99.70549 147.39926 101.73426 149.47324 102.11898 151.54723 102.6601 153.62122 103.52932 155.6952 104.08842 157.76918 104.188198 159.84317 104.289768 161.91716 107.16348 163.99115 110.93068 166.06513 112.71046 168.13912 113.80708 170.2131 113.95989 172.2871 114.06147 174.36107 114.336528 176.43506 114.61158 178.50905 114.87046 180.58304 122.928897 182.65702 123.11856 184.731 123.29923 186.805 123.53114 188.87899 124.72935"/>
</g>
<g clip-path="url(#clip_22)">
<path transform="matrix(1,0,0,-1,0,288.13188)" stroke-width="1.4" stroke-linecap="square" stroke-linejoin="round" fill="none" stroke="#009647" stroke-opacity=".85" d="M72.735759 51.62632 74.809749 51.85823 76.88373 52.013738 78.95772 52.165647 81.0317 52.571939 83.10569 54.616888 85.17967 55.416887 87.25366 56.040708 89.327648 68.98544 91.401638 69.41421 93.47562 72.65916 95.54961 73.06096 97.62359 73.28388 99.69758 73.46995 101.77156 73.62635 103.84555 77.06456 105.91953 77.46007 107.99352 80.74546 110.067508 81.0367 112.141498 81.778278 114.21548 83.780979 116.28947 85.98862 118.36345 86.23401 120.43744 87.79266 122.51142 87.97963 124.58541 88.219638 126.65939 88.52076 128.73339 90.79132 130.80738 96.0956 132.88135 96.812908 134.95534 97.24706 137.02933 97.67223 139.10332 99.48527 141.17729 100.15403 143.25128 100.50729 145.32527 100.828189 147.39926 101.19044 149.47324 101.67853 151.54723 102.87224 153.62122 103.27314 155.6952 104.382358 157.76918 104.818309 159.84317 107.14101 161.91716 107.638988 163.99115 107.80258 166.06513 108.05607 168.13912 108.770679 170.2131 111.76663 172.2871 112.67809 174.36107 116.26552 176.43506 116.77428 178.50905 116.94507 180.58304 117.09698 182.65702 118.237659 184.731 118.48664"/>
</g>
<g clip-path="url(#clip_23)">
<path transform="matrix(1,0,0,-1,0,288.13188)" stroke-width="1.4" stroke-linecap="square" stroke-linejoin="round" fill="none" stroke="#009647" stroke-opacity=".85" d="M72.735759 51.70452 74.809749 51.90407 76.88373 52.053289 78.95772 52.206098 81.0317 52.752614 83.10569 54.4443 85.17967 55.92475 87.25366 56.914419 89.327648 71.08882 91.401638 74.52702 93.47562 77.61916 95.54961 80.90906 97.62359 81.34951 99.69758 81.63265 101.77156 81.77468 103.84555 85.060077 105.91953 85.205699 107.99352 85.50592 110.067508 85.717159 112.141498 85.86457 114.21548 86.38592 116.28947 87.01963 118.36345 87.57244 120.43744 89.40705 122.51142 90.09469 124.58541 92.57829 126.65939 93.18953 128.73339 93.351329 130.80738 93.54548 132.88135 102.04437 134.95534 102.2601 137.02933 109.05562 139.10332 117.73428 141.17729 119.75496 143.25128 122.944179 145.32527 126.34913 147.39926 126.57834 149.47324 126.9271 151.54723 141.78556 153.62122 143.906 155.6952 144.25926 157.76918 144.74196 159.84317 145.62915 161.91716 145.92578 163.99115 146.74108 166.06513 147.06107 168.13912 147.50063 170.2131 148.11815 172.2871 149.66242 174.36107 150.35996 176.43506 150.51995 178.50905 150.76624 180.58304 153.31905 182.65702 155.444 184.731 155.88355 186.805 156.11367 188.87899 156.29793 190.95296 156.43546 193.02695 164.4058 195.10094 164.8948 197.17493 165.06739 199.2489 165.33615"/>
</g>
<path transform="matrix(1,0,0,-1,0,288.13188)" stroke-width=".8" stroke-linecap="square" stroke-miterlimit="10" stroke-linejoin="miter" fill="none" stroke="#000000" d="M58.94375 39.771875V284.53187"/>
<path transform="matrix(1,0,0,-1,0,288.13188)" stroke-width=".8" stroke-linecap="square" stroke-miterlimit="10" stroke-linejoin="miter" fill="none" stroke="#000000" d="M58.94375 39.771875H362.36793"/>
<path transform="matrix(1,0,0,-1,0,288.13188)" stroke-width="1.4" stroke-linecap="square" stroke-linejoin="round" fill="none" stroke="#ef3a47" stroke-opacity=".85" d="M239.51479 92.52187H251.51479 263.51478"/>
<use data-text="M" xlink:href="#font_2_77" transform="matrix(12,0,0,-12,273.11479,199.81)"/>
<use data-text="e" xlink:href="#font_2_101" transform="matrix(12,0,0,-12,283.47077,199.81)"/>
<use data-text="g" xlink:href="#font_2_103" transform="matrix(12,0,0,-12,290.85078,199.81)"/>
<use data-text="a" xlink:href="#font_2_97" transform="matrix(12,0,0,-12,298.47077,199.81)"/>
<use data-text="t" xlink:href="#font_2_116" transform="matrix(12,0,0,-12,305.82679,199.81)"/>
<use data-text="r" xlink:href="#font_2_114" transform="matrix(12,0,0,-12,310.53077,199.81)"/>
<use data-text="o" xlink:href="#font_2_111" transform="matrix(12,0,0,-12,315.21278,199.81)"/>
<use data-text="n" xlink:href="#font_2_110" transform="matrix(12,0,0,-12,322.55677,199.81)"/>
<use data-text="-" xlink:href="#font_2_45" transform="matrix(12,0,0,-12,330.1648,199.81)"/>
<use data-text="L" xlink:href="#font_2_76" transform="matrix(12,0,0,-12,334.49678,199.81)"/>
<use data-text="M" xlink:href="#font_2_77" transform="matrix(12,0,0,-12,341.1808,199.81)"/>
<path transform="matrix(1,0,0,-1,0,288.13188)" stroke-width="1.4" stroke-linecap="square" stroke-linejoin="round" fill="none" stroke="#fdb515" stroke-opacity=".85" d="M239.51479 74.89687H251.51479 263.51478"/>
<use data-text="T" xlink:href="#font_2_84" transform="matrix(12,0,0,-12,273.11479,217.435)"/>
<use data-text="o" xlink:href="#font_2_111" transform="matrix(12,0,0,-12,278.41554,217.435)"/>
<use data-text="r" xlink:href="#font_2_114" transform="matrix(12,0,0,-12,285.75953,217.435)"/>
<use data-text="c" xlink:href="#font_2_99" transform="matrix(12,0,0,-12,290.44154,217.435)"/>
<use data-text="h" xlink:href="#font_2_104" transform="matrix(12,0,0,-12,297.04154,217.435)"/>
<use data-text="T" xlink:href="#font_2_84" transform="matrix(12,0,0,-12,304.64955,217.435)"/>
<use data-text="i" xlink:href="#font_2_105" transform="matrix(12,0,0,-12,311.62217,217.435)"/>
<use data-text="t" xlink:href="#font_2_116" transform="matrix(12,0,0,-12,314.95817,217.435)"/>
<use data-text="a" xlink:href="#font_2_97" transform="matrix(12,0,0,-12,319.66218,217.435)"/>
<use data-text="n" xlink:href="#font_2_110" transform="matrix(12,0,0,-12,327.01817,217.435)"/>
<path transform="matrix(1,0,0,-1,0,288.13188)" stroke-width="1.4" stroke-linecap="square" stroke-linejoin="round" fill="none" stroke="#009647" stroke-opacity=".85" d="M239.51479 57.271875H251.51479 263.51478"/>
<use data-text="P" xlink:href="#font_2_80" transform="matrix(12,0,0,-12,273.11479,235.06)"/>
<use data-text="i" xlink:href="#font_2_105" transform="matrix(12,0,0,-12,280.10078,235.06)"/>
<use data-text="t" xlink:href="#font_2_116" transform="matrix(12,0,0,-12,283.43678,235.06)"/>
<use data-text="h" xlink:href="#font_2_104" transform="matrix(12,0,0,-12,288.14079,235.06)"/>
<use data-text="T" xlink:href="#font_2_84" transform="matrix(12,0,0,-12,295.74879,235.06)"/>
<use data-text="r" xlink:href="#font_2_114" transform="matrix(12,0,0,-12,301.33079,235.06)"/>
<use data-text="a" xlink:href="#font_2_97" transform="matrix(12,0,0,-12,306.2628,235.06)"/>
<use data-text="i" xlink:href="#font_2_105" transform="matrix(12,0,0,-12,313.61878,235.06)"/>
<use data-text="n" xlink:href="#font_2_110" transform="matrix(12,0,0,-12,316.95478,235.06)"/>
</svg>
