<svg version="1.1" viewBox="0.0 0.0 922.0 452.0" fill="none" stroke="none" stroke-linecap="square" stroke-miterlimit="10" width="922" height="452" xmlns:xlink="http://www.w3.org/1999/xlink" xmlns="http://www.w3.org/2000/svg"><path fill="#ffffff" d="M0 0L922.0 0L922.0 452.0L0 452.0L0 0Z" fill-rule="nonzero"/><path stroke="#333333" stroke-width="1.0" stroke-linecap="butt" d="M57.5 402.5L899.5 402.5" fill-rule="nonzero"/><path stroke="#cccccc" stroke-width="1.0" stroke-linecap="butt" d="M57.5 328.5L899.5 328.5" fill-rule="nonzero"/><path stroke="#cccccc" stroke-width="1.0" stroke-linecap="butt" d="M57.5 253.5L899.5 253.5" fill-rule="nonzero"/><path stroke="#cccccc" stroke-width="1.0" stroke-linecap="butt" d="M57.5 179.5L899.5 179.5" fill-rule="nonzero"/><path stroke="#cccccc" stroke-width="1.0" stroke-linecap="butt" d="M57.5 105.5L899.5 105.5" fill-rule="nonzero"/><clipPath id="id_0"><path d="M57.6 105.23333L899.4 105.23333L899.4 402.4L57.6 402.4L57.6 105.23333Z" clip-rule="nonzero"/></clipPath><path stroke="#000000" stroke-width="2.0" stroke-linecap="butt" stroke-opacity="0.0" clip-path="url(#id_0)" d="M259.0 402.0L183.0 402.0L183.0 168.0C183.0 166.89543 183.89543 166.0 185.0 166.0L257.0 166.0C258.10458 166.0 259.0 166.89543 259.0 168.0Z" fill-rule="nonzero"/><path fill="#38761d" clip-path="url(#id_0)" d="M259.0 402.0L183.0 402.0L183.0 168.0C183.0 166.89543 183.89543 166.0 185.0 166.0L257.0 166.0C258.10458 166.0 259.0 166.89543 259.0 168.0Z" fill-rule="nonzero"/><path stroke="#000000" stroke-width="2.0" stroke-linecap="butt" stroke-opacity="0.0" clip-path="url(#id_0)" d="M618.0 402.0L542.0 402.0L542.0 270.0C542.0 268.89542 542.89545 268.0 544.0 268.0L616.0 268.0C617.10455 268.0 618.0 268.89542 618.0 270.0Z" fill-rule="nonzero"/><path fill="#38761d" clip-path="url(#id_0)" d="M618.0 402.0L542.0 402.0L542.0 270.0C542.0 268.89542 542.89545 268.0 544.0 268.0L616.0 268.0C617.10455 268.0 618.0 268.89542 618.0 270.0Z" fill-rule="nonzero"/><path stroke="#000000" stroke-width="2.0" stroke-linecap="butt" stroke-opacity="0.0" clip-path="url(#id_0)" d="M337.0 402.0L261.0 402.0L261.0 199.0C261.0 197.89543 261.89542 197.0 263.0 197.0L335.0 197.0C336.10458 197.0 337.0 197.89543 337.0 199.0Z" fill-rule="nonzero"/><path fill="#6aa84f" clip-path="url(#id_0)" d="M337.0 402.0L261.0 402.0L261.0 199.0C261.0 197.89543 261.89542 197.0 263.0 197.0L335.0 197.0C336.10458 197.0 337.0 197.89543 337.0 199.0Z" fill-rule="nonzero"/><path stroke="#000000" stroke-width="2.0" stroke-linecap="butt" stroke-opacity="0.0" clip-path="url(#id_0)" d="M696.0 402.0L620.0 402.0L620.0 285.0C620.0 283.89542 620.89545 283.0 622.0 283.0L694.0 283.0C695.10455 283.0 696.0 283.89542 696.0 285.0Z" fill-rule="nonzero"/><path fill="#6aa84f" clip-path="url(#id_0)" d="M696.0 402.0L620.0 402.0L620.0 285.0C620.0 283.89542 620.89545 283.0 622.0 283.0L694.0 283.0C695.10455 283.0 696.0 283.89542 696.0 285.0Z" fill-rule="nonzero"/><path stroke="#000000" stroke-width="2.0" stroke-linecap="butt" stroke-opacity="0.0" clip-path="url(#id_0)" d="M415.0 402.0L339.0 402.0L339.0 210.0C339.0 208.89543 339.89542 208.0 341.0 208.0L413.0 208.0C414.10458 208.0 415.0 208.89543 415.0 210.0Z" fill-rule="nonzero"/><path fill="#cc0000" clip-path="url(#id_0)" d="M415.0 402.0L339.0 402.0L339.0 210.0C339.0 208.89543 339.89542 208.0 341.0 208.0L413.0 208.0C414.10458 208.0 415.0 208.89543 415.0 210.0Z" fill-rule="nonzero"/><path stroke="#000000" stroke-width="2.0" stroke-linecap="butt" stroke-opacity="0.0" clip-path="url(#id_0)" d="M774.0 402.0L698.0 402.0L698.0 293.0C698.0 291.89542 698.89545 291.0 700.0 291.0L772.0 291.0C773.10455 291.0 774.0 291.89542 774.0 293.0Z" fill-rule="nonzero"/><path fill="#cc0000" clip-path="url(#id_0)" d="M774.0 402.0L698.0 402.0L698.0 293.0C698.0 291.89542 698.89545 291.0 700.0 291.0L772.0 291.0C773.10455 291.0 774.0 291.89542 774.0 293.0Z" fill-rule="nonzero"/><path stroke="#38761d" stroke-width="3.0" stroke-linejoin="round" stroke-linecap="round" d="M206.70312 186.95816L205.25 186.95816L205.25 177.31754L202.32812 178.39566L202.32812 177.08316L206.46875 175.52066L206.70312 175.52066L206.70312 186.95816ZM211.60938 181.25504L212.1875 175.58316L218.01562 175.58316L218.01562 176.91129L213.42188 176.91129L213.07812 180.02066Q213.90625 179.52066 214.96875 179.52066Q216.53125 179.52066 217.4375 180.55191Q218.35938 181.58316 218.35938 183.33316Q218.35938 185.08316 217.40625 186.09879Q216.45312 187.11441 214.75 187.11441Q213.25 187.11441 212.29688 186.28629Q211.34375 185.44254 211.20312 183.95816L212.57812 183.95816Q212.70312 184.94254 213.26562 185.44254Q213.82812 185.92691 214.75 185.92691Q215.76562 185.92691 216.32812 185.23941Q216.90625 184.55191 216.90625 183.34879Q216.90625 182.20816 216.28125 181.52066Q215.67188 180.81754 214.64062 180.81754Q213.6875 180.81754 213.15625 181.23941L212.76562 181.55191L211.60938 181.25504ZM225.48438 181.95816Q225.03125 182.48941 224.40625 182.81754Q223.78125 183.14566 223.03125 183.14566Q222.04688 183.14566 221.3125 182.66129Q220.57812 182.17691 220.17188 181.30191Q219.78125 180.42691 219.78125 179.36441Q219.78125 178.22379 220.21875 177.31754Q220.65625 176.39566 221.45312 175.91129Q222.25 175.42691 223.3125 175.42691Q225.0 175.42691 225.96875 176.69254Q226.9375 177.94254 226.9375 180.13004L226.9375 180.55191Q226.9375 183.86441 225.625 185.39566Q224.3125 186.92691 221.67188 186.97379L221.39062 186.97379L221.39062 185.73941L221.6875 185.73941Q223.48438 185.70816 224.4375 184.81754Q225.40625 183.91129 225.48438 181.95816ZM223.26562 181.95816Q223.98438 181.95816 224.59375 181.52066Q225.21875 181.06754 225.5 180.41129L225.5 179.83316Q225.5 178.41129 224.875 177.52066Q224.26562 176.63004 223.3125 176.63004Q222.35938 176.63004 221.78125 177.36441Q221.20312 178.08316 221.20312 179.28629Q221.20312 180.44254 221.76562 181.20816Q222.32812 181.95816 223.26562 181.95816ZM229.125 186.19254Q229.125 185.81754 229.34375 185.56754Q229.57812 185.31754 230.01562 185.31754Q230.46875 185.31754 230.6875 185.56754Q230.92188 185.81754 230.92188 186.19254Q230.92188 186.55191 230.6875 186.80191Q230.46875 187.05191 230.01562 187.05191Q229.57812 187.05191 229.34375 186.80191Q229.125 186.55191 229.125 186.19254ZM239.04688 183.13004L240.625 183.13004L240.625 184.31754L239.04688 184.31754L239.04688 186.95816L237.59375 186.95816L237.59375 184.31754L232.42188 184.31754L232.42188 183.45816L237.51562 175.58316L239.04688 175.58316L239.04688 183.13004ZM234.0625 183.13004L237.59375 183.13004L237.59375 177.55191L237.42188 177.86441L234.0625 183.13004Z" fill-rule="nonzero"/><path fill="#ffffff" d="M206.70312 186.95816L205.25 186.95816L205.25 177.31754L202.32812 178.39566L202.32812 177.08316L206.46875 175.52066L206.70312 175.52066L206.70312 186.95816ZM211.60938 181.25504L212.1875 175.58316L218.01562 175.58316L218.01562 176.91129L213.42188 176.91129L213.07812 180.02066Q213.90625 179.52066 214.96875 179.52066Q216.53125 179.52066 217.4375 180.55191Q218.35938 181.58316 218.35938 183.33316Q218.35938 185.08316 217.40625 186.09879Q216.45312 187.11441 214.75 187.11441Q213.25 187.11441 212.29688 186.28629Q211.34375 185.44254 211.20312 183.95816L212.57812 183.95816Q212.70312 184.94254 213.26562 185.44254Q213.82812 185.92691 214.75 185.92691Q215.76562 185.92691 216.32812 185.23941Q216.90625 184.55191 216.90625 183.34879Q216.90625 182.20816 216.28125 181.52066Q215.67188 180.81754 214.64062 180.81754Q213.6875 180.81754 213.15625 181.23941L212.76562 181.55191L211.60938 181.25504ZM225.48438 181.95816Q225.03125 182.48941 224.40625 182.81754Q223.78125 183.14566 223.03125 183.14566Q222.04688 183.14566 221.3125 182.66129Q220.57812 182.17691 220.17188 181.30191Q219.78125 180.42691 219.78125 179.36441Q219.78125 178.22379 220.21875 177.31754Q220.65625 176.39566 221.45312 175.91129Q222.25 175.42691 223.3125 175.42691Q225.0 175.42691 225.96875 176.69254Q226.9375 177.94254 226.9375 180.13004L226.9375 180.55191Q226.9375 183.86441 225.625 185.39566Q224.3125 186.92691 221.67188 186.97379L221.39062 186.97379L221.39062 185.73941L221.6875 185.73941Q223.48438 185.70816 224.4375 184.81754Q225.40625 183.91129 225.48438 181.95816ZM223.26562 181.95816Q223.98438 181.95816 224.59375 181.52066Q225.21875 181.06754 225.5 180.41129L225.5 179.83316Q225.5 178.41129 224.875 177.52066Q224.26562 176.63004 223.3125 176.63004Q222.35938 176.63004 221.78125 177.36441Q221.20312 178.08316 221.20312 179.28629Q221.20312 180.44254 221.76562 181.20816Q222.32812 181.95816 223.26562 181.95816ZM229.125 186.19254Q229.125 185.81754 229.34375 185.56754Q229.57812 185.31754 230.01562 185.31754Q230.46875 185.31754 230.6875 185.56754Q230.92188 185.81754 230.92188 186.19254Q230.92188 186.55191 230.6875 186.80191Q230.46875 187.05191 230.01562 187.05191Q229.57812 187.05191 229.34375 186.80191Q229.125 186.55191 229.125 186.19254ZM239.04688 183.13004L240.625 183.13004L240.625 184.31754L239.04688 184.31754L239.04688 186.95816L237.59375 186.95816L237.59375 184.31754L232.42188 184.31754L232.42188 183.45816L237.51562 175.58316L239.04688 175.58316L239.04688 183.13004ZM234.0625 183.13004L237.59375 183.13004L237.59375 177.55191L237.42188 177.86441L234.0625 183.13004Z" fill-rule="nonzero"/><path stroke="#38761d" stroke-width="3.0" stroke-linejoin="round" stroke-linecap="round" d="M570.9844 284.0349Q570.53125 284.56616 569.90625 284.8943Q569.28125 285.2224 568.53125 285.2224Q567.5469 285.2224 566.8125 284.73804Q566.0781 284.25366 565.6719 283.37866Q565.28125 282.50366 565.28125 281.44116Q565.28125 280.30054 565.71875 279.3943Q566.15625 278.4724 566.9531 277.98804Q567.75 277.50366 568.8125 277.50366Q570.5 277.50366 571.46875 278.7693Q572.4375 280.0193 572.4375 282.2068L572.4375 282.62866Q572.4375 285.94116 571.125 287.4724Q569.8125 289.00366 567.1719 289.05054L566.8906 289.05054L566.8906 287.81616L567.1875 287.81616Q568.9844 287.7849 569.9375 286.8943Q570.90625 285.98804 570.9844 284.0349ZM568.7656 284.0349Q569.4844 284.0349 570.09375 283.5974Q570.71875 283.1443 571.0 282.48804L571.0 281.9099Q571.0 280.48804 570.375 279.5974Q569.7656 278.7068 568.8125 278.7068Q567.8594 278.7068 567.28125 279.44116Q566.7031 280.1599 566.7031 281.36304Q566.7031 282.5193 567.2656 283.2849Q567.8281 284.0349 568.7656 284.0349ZM581.5781 284.17554Q581.5781 286.7224 580.7031 287.9568Q579.84375 289.19116 578.0 289.19116Q576.1875 289.19116 575.3125 287.98804Q574.4375 286.7693 574.40625 284.37866L574.40625 282.44116Q574.40625 279.94116 575.2656 278.7224Q576.1406 277.50366 577.9844 277.50366Q579.8281 277.50366 580.6875 278.67554Q581.5625 279.8474 581.5781 282.30054L581.5781 284.17554ZM580.1406 282.2068Q580.1406 280.36304 579.625 279.5349Q579.1094 278.69116 577.9844 278.69116Q576.875 278.69116 576.3594 279.5349Q575.8594 280.36304 575.84375 282.0974L575.84375 284.4099Q575.84375 286.25366 576.375 287.12866Q576.9219 288.00366 578.0 288.00366Q579.0781 288.00366 579.59375 287.17554Q580.1094 286.3474 580.1406 284.56616L580.1406 282.2068ZM583.625 288.2693Q583.625 287.8943 583.84375 287.6443Q584.0781 287.3943 584.5156 287.3943Q584.96875 287.3943 585.1875 287.6443Q585.4219 287.8943 585.4219 288.2693Q585.4219 288.62866 585.1875 288.87866Q584.96875 289.12866 584.5156 289.12866Q584.0781 289.12866 583.84375 288.87866Q583.625 288.62866 583.625 288.2693ZM594.7969 278.4724L590.0781 289.0349L588.5625 289.0349L593.2656 278.8474L587.1094 278.8474L587.1094 277.6599L594.7969 277.6599L594.7969 278.4724Z" fill-rule="nonzero"/><path fill="#ffffff" d="M570.9844 284.0349Q570.53125 284.56616 569.90625 284.8943Q569.28125 285.2224 568.53125 285.2224Q567.5469 285.2224 566.8125 284.73804Q566.0781 284.25366 565.6719 283.37866Q565.28125 282.50366 565.28125 281.44116Q565.28125 280.30054 565.71875 279.3943Q566.15625 278.4724 566.9531 277.98804Q567.75 277.50366 568.8125 277.50366Q570.5 277.50366 571.46875 278.7693Q572.4375 280.0193 572.4375 282.2068L572.4375 282.62866Q572.4375 285.94116 571.125 287.4724Q569.8125 289.00366 567.1719 289.05054L566.8906 289.05054L566.8906 287.81616L567.1875 287.81616Q568.9844 287.7849 569.9375 286.8943Q570.90625 285.98804 570.9844 284.0349ZM568.7656 284.0349Q569.4844 284.0349 570.09375 283.5974Q570.71875 283.1443 571.0 282.48804L571.0 281.9099Q571.0 280.48804 570.375 279.5974Q569.7656 278.7068 568.8125 278.7068Q567.8594 278.7068 567.28125 279.44116Q566.7031 280.1599 566.7031 281.36304Q566.7031 282.5193 567.2656 283.2849Q567.8281 284.0349 568.7656 284.0349ZM581.5781 284.17554Q581.5781 286.7224 580.7031 287.9568Q579.84375 289.19116 578.0 289.19116Q576.1875 289.19116 575.3125 287.98804Q574.4375 286.7693 574.40625 284.37866L574.40625 282.44116Q574.40625 279.94116 575.2656 278.7224Q576.1406 277.50366 577.9844 277.50366Q579.8281 277.50366 580.6875 278.67554Q581.5625 279.8474 581.5781 282.30054L581.5781 284.17554ZM580.1406 282.2068Q580.1406 280.36304 579.625 279.5349Q579.1094 278.69116 577.9844 278.69116Q576.875 278.69116 576.3594 279.5349Q575.8594 280.36304 575.84375 282.0974L575.84375 284.4099Q575.84375 286.25366 576.375 287.12866Q576.9219 288.00366 578.0 288.00366Q579.0781 288.00366 579.59375 287.17554Q580.1094 286.3474 580.1406 284.56616L580.1406 282.2068ZM583.625 288.2693Q583.625 287.8943 583.84375 287.6443Q584.0781 287.3943 584.5156 287.3943Q584.96875 287.3943 585.1875 287.6443Q585.4219 287.8943 585.4219 288.2693Q585.4219 288.62866 585.1875 288.87866Q584.96875 289.12866 584.5156 289.12866Q584.0781 289.12866 583.84375 288.87866Q583.625 288.62866 583.625 288.2693ZM594.7969 278.4724L590.0781 289.0349L588.5625 289.0349L593.2656 278.8474L587.1094 278.8474L587.1094 277.6599L594.7969 277.6599L594.7969 278.4724Z" fill-rule="nonzero"/><path stroke="#6aa84f" stroke-width="3.0" stroke-linejoin="round" stroke-linecap="round" d="M284.70312 218.01208L283.25 218.01208L283.25 208.37146L280.32812 209.44958L280.32812 208.13708L284.46875 206.57458L284.70312 206.57458L284.70312 218.01208ZM291.04688 211.62146L292.14062 211.62146Q293.15625 211.60583 293.73438 211.09021Q294.32812 210.55896 294.32812 209.66833Q294.32812 207.66833 292.34375 207.66833Q291.40625 207.66833 290.84375 208.19958Q290.28125 208.73083 290.28125 209.62146L288.84375 209.62146Q288.84375 208.26208 289.82812 207.37146Q290.8125 206.48083 292.34375 206.48083Q293.95312 206.48083 294.85938 207.34021Q295.78125 208.18396 295.78125 209.69958Q295.78125 210.43396 295.29688 211.13708Q294.8125 211.82458 293.98438 212.16833Q294.92188 212.46521 295.4375 213.15271Q295.95312 213.84021 295.95312 214.84021Q295.95312 216.37146 294.95312 217.27771Q293.95312 218.16833 292.34375 218.16833Q290.75 218.16833 289.73438 217.30896Q288.73438 216.43396 288.73438 215.01208L290.1875 215.01208Q290.1875 215.90271 290.76562 216.44958Q291.35938 216.98083 292.34375 216.98083Q293.39062 216.98083 293.9375 216.43396Q294.5 215.88708 294.5 214.87146Q294.5 213.87146 293.89062 213.34021Q293.28125 212.80896 292.14062 212.79333L291.04688 212.79333L291.04688 211.62146ZM304.84375 209.60583Q304.84375 210.44958 304.39062 211.12146Q303.95312 211.77771 303.1875 212.15271Q304.07812 212.54333 304.59375 213.27771Q305.10938 214.01208 305.10938 214.93396Q305.10938 216.41833 304.10938 217.29333Q303.125 218.16833 301.5 218.16833Q299.85938 218.16833 298.85938 217.29333Q297.875 216.40271 297.875 214.93396Q297.875 214.01208 298.375 213.27771Q298.89062 212.52771 299.78125 212.15271Q299.01562 211.77771 298.57812 211.12146Q298.14062 210.44958 298.14062 209.60583Q298.14062 208.16833 299.0625 207.32458Q299.98438 206.48083 301.5 206.48083Q303.0 206.48083 303.92188 207.32458Q304.84375 208.16833 304.84375 209.60583ZM303.67188 214.90271Q303.67188 213.94958 303.0625 213.35583Q302.45312 212.74646 301.46875 212.74646Q300.5 212.74646 299.90625 213.34021Q299.32812 213.93396 299.32812 214.90271Q299.32812 215.87146 299.89062 216.43396Q300.46875 216.98083 301.5 216.98083Q302.51562 216.98083 303.09375 216.43396Q303.67188 215.87146 303.67188 214.90271ZM301.5 207.66833Q300.64062 207.66833 300.10938 208.19958Q299.59375 208.71521 299.59375 209.62146Q299.59375 210.49646 300.10938 211.02771Q300.625 211.55896 301.48438 211.55896Q302.35938 211.55896 302.875 211.02771Q303.40625 210.49646 303.40625 209.63708Q303.40625 208.76208 302.85938 208.21521Q302.32812 207.66833 301.5 207.66833ZM307.125 217.24646Q307.125 216.87146 307.34375 216.62146Q307.57812 216.37146 308.01562 216.37146Q308.46875 216.37146 308.6875 216.62146Q308.92188 216.87146 308.92188 217.24646Q308.92188 217.60583 308.6875 217.85583Q308.46875 218.10583 308.01562 218.10583Q307.57812 218.10583 307.34375 217.85583Q307.125 217.60583 307.125 217.24646ZM311.60938 212.30896L312.1875 206.63708L318.01562 206.63708L318.01562 207.96521L313.42188 207.96521L313.07812 211.07458Q313.90625 210.57458 314.96875 210.57458Q316.53125 210.57458 317.4375 211.60583Q318.35938 212.63708 318.35938 214.38708Q318.35938 216.13708 317.40625 217.15271Q316.45312 218.16833 314.75 218.16833Q313.25 218.16833 312.29688 217.34021Q311.34375 216.49646 311.20312 215.01208L312.57812 215.01208Q312.70312 215.99646 313.26562 216.49646Q313.82812 216.98083 314.75 216.98083Q315.76562 216.98083 316.32812 216.29333Q316.90625 215.60583 316.90625 214.40271Q316.90625 213.26208 316.28125 212.57458Q315.67188 211.87146 314.64062 211.87146Q313.6875 211.87146 313.15625 212.29333L312.76562 212.60583L311.60938 212.30896Z" fill-rule="nonzero"/><path fill="#ffffff" d="M284.70312 218.01208L283.25 218.01208L283.25 208.37146L280.32812 209.44958L280.32812 208.13708L284.46875 206.57458L284.70312 206.57458L284.70312 218.01208ZM291.04688 211.62146L292.14062 211.62146Q293.15625 211.60583 293.73438 211.09021Q294.32812 210.55896 294.32812 209.66833Q294.32812 207.66833 292.34375 207.66833Q291.40625 207.66833 290.84375 208.19958Q290.28125 208.73083 290.28125 209.62146L288.84375 209.62146Q288.84375 208.26208 289.82812 207.37146Q290.8125 206.48083 292.34375 206.48083Q293.95312 206.48083 294.85938 207.34021Q295.78125 208.18396 295.78125 209.69958Q295.78125 210.43396 295.29688 211.13708Q294.8125 211.82458 293.98438 212.16833Q294.92188 212.46521 295.4375 213.15271Q295.95312 213.84021 295.95312 214.84021Q295.95312 216.37146 294.95312 217.27771Q293.95312 218.16833 292.34375 218.16833Q290.75 218.16833 289.73438 217.30896Q288.73438 216.43396 288.73438 215.01208L290.1875 215.01208Q290.1875 215.90271 290.76562 216.44958Q291.35938 216.98083 292.34375 216.98083Q293.39062 216.98083 293.9375 216.43396Q294.5 215.88708 294.5 214.87146Q294.5 213.87146 293.89062 213.34021Q293.28125 212.80896 292.14062 212.79333L291.04688 212.79333L291.04688 211.62146ZM304.84375 209.60583Q304.84375 210.44958 304.39062 211.12146Q303.95312 211.77771 303.1875 212.15271Q304.07812 212.54333 304.59375 213.27771Q305.10938 214.01208 305.10938 214.93396Q305.10938 216.41833 304.10938 217.29333Q303.125 218.16833 301.5 218.16833Q299.85938 218.16833 298.85938 217.29333Q297.875 216.40271 297.875 214.93396Q297.875 214.01208 298.375 213.27771Q298.89062 212.52771 299.78125 212.15271Q299.01562 211.77771 298.57812 211.12146Q298.14062 210.44958 298.14062 209.60583Q298.14062 208.16833 299.0625 207.32458Q299.98438 206.48083 301.5 206.48083Q303.0 206.48083 303.92188 207.32458Q304.84375 208.16833 304.84375 209.60583ZM303.67188 214.90271Q303.67188 213.94958 303.0625 213.35583Q302.45312 212.74646 301.46875 212.74646Q300.5 212.74646 299.90625 213.34021Q299.32812 213.93396 299.32812 214.90271Q299.32812 215.87146 299.89062 216.43396Q300.46875 216.98083 301.5 216.98083Q302.51562 216.98083 303.09375 216.43396Q303.67188 215.87146 303.67188 214.90271ZM301.5 207.66833Q300.64062 207.66833 300.10938 208.19958Q299.59375 208.71521 299.59375 209.62146Q299.59375 210.49646 300.10938 211.02771Q300.625 211.55896 301.48438 211.55896Q302.35938 211.55896 302.875 211.02771Q303.40625 210.49646 303.40625 209.63708Q303.40625 208.76208 302.85938 208.21521Q302.32812 207.66833 301.5 207.66833ZM307.125 217.24646Q307.125 216.87146 307.34375 216.62146Q307.57812 216.37146 308.01562 216.37146Q308.46875 216.37146 308.6875 216.62146Q308.92188 216.87146 308.92188 217.24646Q308.92188 217.60583 308.6875 217.85583Q308.46875 218.10583 308.01562 218.10583Q307.57812 218.10583 307.34375 217.85583Q307.125 217.60583 307.125 217.24646ZM311.60938 212.30896L312.1875 206.63708L318.01562 206.63708L318.01562 207.96521L313.42188 207.96521L313.07812 211.07458Q313.90625 210.57458 314.96875 210.57458Q316.53125 210.57458 317.4375 211.60583Q318.35938 212.63708 318.35938 214.38708Q318.35938 216.13708 317.40625 217.15271Q316.45312 218.16833 314.75 218.16833Q313.25 218.16833 312.29688 217.34021Q311.34375 216.49646 311.20312 215.01208L312.57812 215.01208Q312.70312 215.99646 313.26562 216.49646Q313.82812 216.98083 314.75 216.98083Q315.76562 216.98083 316.32812 216.29333Q316.90625 215.60583 316.90625 214.40271Q316.90625 213.26208 316.28125 212.57458Q315.67188 211.87146 314.64062 211.87146Q313.6875 211.87146 313.15625 212.29333L312.76562 212.60583L311.60938 212.30896Z" fill-rule="nonzero"/><path stroke="#6aa84f" stroke-width="3.0" stroke-linejoin="round" stroke-linecap="round" d="M650.34375 296.08133Q650.34375 296.92508 649.8906 297.59695Q649.4531 298.2532 648.6875 298.6282Q649.5781 299.01883 650.09375 299.7532Q650.6094 300.48758 650.6094 301.40945Q650.6094 302.89383 649.6094 303.76883Q648.625 304.64383 647.0 304.64383Q645.3594 304.64383 644.3594 303.76883Q643.375 302.8782 643.375 301.40945Q643.375 300.48758 643.875 299.7532Q644.3906 299.0032 645.28125 298.6282Q644.5156 298.2532 644.0781 297.59695Q643.6406 296.92508 643.6406 296.08133Q643.6406 294.64383 644.5625 293.80008Q645.4844 292.95633 647.0 292.95633Q648.5 292.95633 649.4219 293.80008Q650.34375 294.64383 650.34375 296.08133ZM649.1719 301.3782Q649.1719 300.42508 648.5625 299.83133Q647.9531 299.22195 646.96875 299.22195Q646.0 299.22195 645.40625 299.8157Q644.8281 300.40945 644.8281 301.3782Q644.8281 302.34695 645.3906 302.90945Q645.96875 303.45633 647.0 303.45633Q648.0156 303.45633 648.59375 302.90945Q649.1719 302.34695 649.1719 301.3782ZM647.0 294.14383Q646.1406 294.14383 645.6094 294.67508Q645.09375 295.1907 645.09375 296.09695Q645.09375 296.97195 645.6094 297.5032Q646.125 298.03445 646.9844 298.03445Q647.8594 298.03445 648.375 297.5032Q648.90625 296.97195 648.90625 296.11258Q648.90625 295.23758 648.3594 294.6907Q647.8281 294.14383 647.0 294.14383ZM659.5781 299.6282Q659.5781 302.17508 658.7031 303.40945Q657.84375 304.64383 656.0 304.64383Q654.1875 304.64383 653.3125 303.4407Q652.4375 302.22195 652.40625 299.83133L652.40625 297.89383Q652.40625 295.39383 653.2656 294.17508Q654.1406 292.95633 655.9844 292.95633Q657.8281 292.95633 658.6875 294.1282Q659.5625 295.30008 659.5781 297.7532L659.5781 299.6282ZM658.1406 297.65945Q658.1406 295.8157 657.625 294.98758Q657.1094 294.14383 655.9844 294.14383Q654.875 294.14383 654.3594 294.98758Q653.8594 295.8157 653.84375 297.55008L653.84375 299.86258Q653.84375 301.70633 654.375 302.58133Q654.9219 303.45633 656.0 303.45633Q657.0781 303.45633 657.59375 302.6282Q658.1094 301.80008 658.1406 300.01883L658.1406 297.65945ZM661.625 303.72195Q661.625 303.34695 661.84375 303.09695Q662.0781 302.84695 662.5156 302.84695Q662.96875 302.84695 663.1875 303.09695Q663.4219 303.34695 663.4219 303.72195Q663.4219 304.08133 663.1875 304.33133Q662.96875 304.58133 662.5156 304.58133Q662.0781 304.58133 661.84375 304.33133Q661.625 304.08133 661.625 303.72195ZM667.5469 298.09695L668.6406 298.09695Q669.65625 298.08133 670.2344 297.5657Q670.8281 297.03445 670.8281 296.14383Q670.8281 294.14383 668.84375 294.14383Q667.90625 294.14383 667.34375 294.67508Q666.78125 295.20633 666.78125 296.09695L665.34375 296.09695Q665.34375 294.73758 666.3281 293.84695Q667.3125 292.95633 668.84375 292.95633Q670.4531 292.95633 671.3594 293.8157Q672.28125 294.65945 672.28125 296.17508Q672.28125 296.90945 671.7969 297.61258Q671.3125 298.30008 670.4844 298.64383Q671.4219 298.9407 671.9375 299.6282Q672.4531 300.3157 672.4531 301.3157Q672.4531 302.84695 671.4531 303.7532Q670.4531 304.64383 668.84375 304.64383Q667.25 304.64383 666.2344 303.78445Q665.2344 302.90945 665.2344 301.48758L666.6875 301.48758Q666.6875 302.3782 667.2656 302.92508Q667.8594 303.45633 668.84375 303.45633Q669.8906 303.45633 670.4375 302.90945Q671.0 302.36258 671.0 301.34695Q671.0 300.34695 670.3906 299.8157Q669.78125 299.28445 668.6406 299.26883L667.5469 299.26883L667.5469 298.09695Z" fill-rule="nonzero"/><path fill="#ffffff" d="M650.34375 296.08133Q650.34375 296.92508 649.8906 297.59695Q649.4531 298.2532 648.6875 298.6282Q649.5781 299.01883 650.09375 299.7532Q650.6094 300.48758 650.6094 301.40945Q650.6094 302.89383 649.6094 303.76883Q648.625 304.64383 647.0 304.64383Q645.3594 304.64383 644.3594 303.76883Q643.375 302.8782 643.375 301.40945Q643.375 300.48758 643.875 299.7532Q644.3906 299.0032 645.28125 298.6282Q644.5156 298.2532 644.0781 297.59695Q643.6406 296.92508 643.6406 296.08133Q643.6406 294.64383 644.5625 293.80008Q645.4844 292.95633 647.0 292.95633Q648.5 292.95633 649.4219 293.80008Q650.34375 294.64383 650.34375 296.08133ZM649.1719 301.3782Q649.1719 300.42508 648.5625 299.83133Q647.9531 299.22195 646.96875 299.22195Q646.0 299.22195 645.40625 299.8157Q644.8281 300.40945 644.8281 301.3782Q644.8281 302.34695 645.3906 302.90945Q645.96875 303.45633 647.0 303.45633Q648.0156 303.45633 648.59375 302.90945Q649.1719 302.34695 649.1719 301.3782ZM647.0 294.14383Q646.1406 294.14383 645.6094 294.67508Q645.09375 295.1907 645.09375 296.09695Q645.09375 296.97195 645.6094 297.5032Q646.125 298.03445 646.9844 298.03445Q647.8594 298.03445 648.375 297.5032Q648.90625 296.97195 648.90625 296.11258Q648.90625 295.23758 648.3594 294.6907Q647.8281 294.14383 647.0 294.14383ZM659.5781 299.6282Q659.5781 302.17508 658.7031 303.40945Q657.84375 304.64383 656.0 304.64383Q654.1875 304.64383 653.3125 303.4407Q652.4375 302.22195 652.40625 299.83133L652.40625 297.89383Q652.40625 295.39383 653.2656 294.17508Q654.1406 292.95633 655.9844 292.95633Q657.8281 292.95633 658.6875 294.1282Q659.5625 295.30008 659.5781 297.7532L659.5781 299.6282ZM658.1406 297.65945Q658.1406 295.8157 657.625 294.98758Q657.1094 294.14383 655.9844 294.14383Q654.875 294.14383 654.3594 294.98758Q653.8594 295.8157 653.84375 297.55008L653.84375 299.86258Q653.84375 301.70633 654.375 302.58133Q654.9219 303.45633 656.0 303.45633Q657.0781 303.45633 657.59375 302.6282Q658.1094 301.80008 658.1406 300.01883L658.1406 297.65945ZM661.625 303.72195Q661.625 303.34695 661.84375 303.09695Q662.0781 302.84695 662.5156 302.84695Q662.96875 302.84695 663.1875 303.09695Q663.4219 303.34695 663.4219 303.72195Q663.4219 304.08133 663.1875 304.33133Q662.96875 304.58133 662.5156 304.58133Q662.0781 304.58133 661.84375 304.33133Q661.625 304.08133 661.625 303.72195ZM667.5469 298.09695L668.6406 298.09695Q669.65625 298.08133 670.2344 297.5657Q670.8281 297.03445 670.8281 296.14383Q670.8281 294.14383 668.84375 294.14383Q667.90625 294.14383 667.34375 294.67508Q666.78125 295.20633 666.78125 296.09695L665.34375 296.09695Q665.34375 294.73758 666.3281 293.84695Q667.3125 292.95633 668.84375 292.95633Q670.4531 292.95633 671.3594 293.8157Q672.28125 294.65945 672.28125 296.17508Q672.28125 296.90945 671.7969 297.61258Q671.3125 298.30008 670.4844 298.64383Q671.4219 298.9407 671.9375 299.6282Q672.4531 300.3157 672.4531 301.3157Q672.4531 302.84695 671.4531 303.7532Q670.4531 304.64383 668.84375 304.64383Q667.25 304.64383 666.2344 303.78445Q665.2344 302.90945 665.2344 301.48758L666.6875 301.48758Q666.6875 302.3782 667.2656 302.92508Q667.8594 303.45633 668.84375 303.45633Q669.8906 303.45633 670.4375 302.90945Q671.0 302.36258 671.0 301.34695Q671.0 300.34695 670.3906 299.8157Q669.78125 299.28445 668.6406 299.26883L667.5469 299.26883L667.5469 298.09695Z" fill-rule="nonzero"/><path stroke="#cc0000" stroke-width="3.0" stroke-linejoin="round" stroke-linecap="round" d="M362.70312 229.30441L361.25 229.30441L361.25 219.66379L358.32812 220.74191L358.32812 219.42941L362.46875 217.86691L362.70312 217.86691L362.70312 229.30441ZM369.04688 222.91379L370.14062 222.91379Q371.15625 222.89816 371.73438 222.38254Q372.32812 221.85129 372.32812 220.96066Q372.32812 218.96066 370.34375 218.96066Q369.40625 218.96066 368.84375 219.49191Q368.28125 220.02316 368.28125 220.91379L366.84375 220.91379Q366.84375 219.55441 367.82812 218.66379Q368.8125 217.77316 370.34375 217.77316Q371.95312 217.77316 372.85938 218.63254Q373.78125 219.47629 373.78125 220.99191Q373.78125 221.72629 373.29688 222.42941Q372.8125 223.11691 371.98438 223.46066Q372.92188 223.75754 373.4375 224.44504Q373.95312 225.13254 373.95312 226.13254Q373.95312 227.66379 372.95312 228.57004Q371.95312 229.46066 370.34375 229.46066Q368.75 229.46066 367.73438 228.60129Q366.73438 227.72629 366.73438 226.30441L368.1875 226.30441Q368.1875 227.19504 368.76562 227.74191Q369.35938 228.27316 370.34375 228.27316Q371.39062 228.27316 371.9375 227.72629Q372.5 227.17941 372.5 226.16379Q372.5 225.16379 371.89062 224.63254Q371.28125 224.10129 370.14062 224.08566L369.04688 224.08566L369.04688 222.91379ZM383.07812 224.44504Q383.07812 226.99191 382.20312 228.22629Q381.34375 229.46066 379.5 229.46066Q377.6875 229.46066 376.8125 228.25754Q375.9375 227.03879 375.90625 224.64816L375.90625 222.71066Q375.90625 220.21066 376.76562 218.99191Q377.64062 217.77316 379.48438 217.77316Q381.32812 217.77316 382.1875 218.94504Q383.0625 220.11691 383.07812 222.57004L383.07812 224.44504ZM381.64062 222.47629Q381.64062 220.63254 381.125 219.80441Q380.60938 218.96066 379.48438 218.96066Q378.375 218.96066 377.85938 219.80441Q377.35938 220.63254 377.34375 222.36691L377.34375 224.67941Q377.34375 226.52316 377.875 227.39816Q378.42188 228.27316 379.5 228.27316Q380.57812 228.27316 381.09375 227.44504Q381.60938 226.61691 381.64062 224.83566L381.64062 222.47629ZM385.125 228.53879Q385.125 228.16379 385.34375 227.91379Q385.57812 227.66379 386.01562 227.66379Q386.46875 227.66379 386.6875 227.91379Q386.92188 228.16379 386.92188 228.53879Q386.92188 228.89816 386.6875 229.14816Q386.46875 229.39816 386.01562 229.39816Q385.57812 229.39816 385.34375 229.14816Q385.125 228.89816 385.125 228.53879ZM394.48438 224.30441Q394.03125 224.83566 393.40625 225.16379Q392.78125 225.49191 392.03125 225.49191Q391.04688 225.49191 390.3125 225.00754Q389.57812 224.52316 389.17188 223.64816Q388.78125 222.77316 388.78125 221.71066Q388.78125 220.57004 389.21875 219.66379Q389.65625 218.74191 390.45312 218.25754Q391.25 217.77316 392.3125 217.77316Q394.0 217.77316 394.96875 219.03879Q395.9375 220.28879 395.9375 222.47629L395.9375 222.89816Q395.9375 226.21066 394.625 227.74191Q393.3125 229.27316 390.67188 229.32004L390.39062 229.32004L390.39062 228.08566L390.6875 228.08566Q392.48438 228.05441 393.4375 227.16379Q394.40625 226.25754 394.48438 224.30441ZM392.26562 224.30441Q392.98438 224.30441 393.59375 223.86691Q394.21875 223.41379 394.5 222.75754L394.5 222.17941Q394.5 220.75754 393.875 219.86691Q393.26562 218.97629 392.3125 218.97629Q391.35938 218.97629 390.78125 219.71066Q390.20312 220.42941 390.20312 221.63254Q390.20312 222.78879 390.76562 223.55441Q391.32812 224.30441 392.26562 224.30441Z" fill-rule="nonzero"/><path fill="#ffffff" d="M362.70312 229.30441L361.25 229.30441L361.25 219.66379L358.32812 220.74191L358.32812 219.42941L362.46875 217.86691L362.70312 217.86691L362.70312 229.30441ZM369.04688 222.91379L370.14062 222.91379Q371.15625 222.89816 371.73438 222.38254Q372.32812 221.85129 372.32812 220.96066Q372.32812 218.96066 370.34375 218.96066Q369.40625 218.96066 368.84375 219.49191Q368.28125 220.02316 368.28125 220.91379L366.84375 220.91379Q366.84375 219.55441 367.82812 218.66379Q368.8125 217.77316 370.34375 217.77316Q371.95312 217.77316 372.85938 218.63254Q373.78125 219.47629 373.78125 220.99191Q373.78125 221.72629 373.29688 222.42941Q372.8125 223.11691 371.98438 223.46066Q372.92188 223.75754 373.4375 224.44504Q373.95312 225.13254 373.95312 226.13254Q373.95312 227.66379 372.95312 228.57004Q371.95312 229.46066 370.34375 229.46066Q368.75 229.46066 367.73438 228.60129Q366.73438 227.72629 366.73438 226.30441L368.1875 226.30441Q368.1875 227.19504 368.76562 227.74191Q369.35938 228.27316 370.34375 228.27316Q371.39062 228.27316 371.9375 227.72629Q372.5 227.17941 372.5 226.16379Q372.5 225.16379 371.89062 224.63254Q371.28125 224.10129 370.14062 224.08566L369.04688 224.08566L369.04688 222.91379ZM383.07812 224.44504Q383.07812 226.99191 382.20312 228.22629Q381.34375 229.46066 379.5 229.46066Q377.6875 229.46066 376.8125 228.25754Q375.9375 227.03879 375.90625 224.64816L375.90625 222.71066Q375.90625 220.21066 376.76562 218.99191Q377.64062 217.77316 379.48438 217.77316Q381.32812 217.77316 382.1875 218.94504Q383.0625 220.11691 383.07812 222.57004L383.07812 224.44504ZM381.64062 222.47629Q381.64062 220.63254 381.125 219.80441Q380.60938 218.96066 379.48438 218.96066Q378.375 218.96066 377.85938 219.80441Q377.35938 220.63254 377.34375 222.36691L377.34375 224.67941Q377.34375 226.52316 377.875 227.39816Q378.42188 228.27316 379.5 228.27316Q380.57812 228.27316 381.09375 227.44504Q381.60938 226.61691 381.64062 224.83566L381.64062 222.47629ZM385.125 228.53879Q385.125 228.16379 385.34375 227.91379Q385.57812 227.66379 386.01562 227.66379Q386.46875 227.66379 386.6875 227.91379Q386.92188 228.16379 386.92188 228.53879Q386.92188 228.89816 386.6875 229.14816Q386.46875 229.39816 386.01562 229.39816Q385.57812 229.39816 385.34375 229.14816Q385.125 228.89816 385.125 228.53879ZM394.48438 224.30441Q394.03125 224.83566 393.40625 225.16379Q392.78125 225.49191 392.03125 225.49191Q391.04688 225.49191 390.3125 225.00754Q389.57812 224.52316 389.17188 223.64816Q388.78125 222.77316 388.78125 221.71066Q388.78125 220.57004 389.21875 219.66379Q389.65625 218.74191 390.45312 218.25754Q391.25 217.77316 392.3125 217.77316Q394.0 217.77316 394.96875 219.03879Q395.9375 220.28879 395.9375 222.47629L395.9375 222.89816Q395.9375 226.21066 394.625 227.74191Q393.3125 229.27316 390.67188 229.32004L390.39062 229.32004L390.39062 228.08566L390.6875 228.08566Q392.48438 228.05441 393.4375 227.16379Q394.40625 226.25754 394.48438 224.30441ZM392.26562 224.30441Q392.98438 224.30441 393.59375 223.86691Q394.21875 223.41379 394.5 222.75754L394.5 222.17941Q394.5 220.75754 393.875 219.86691Q393.26562 218.97629 392.3125 218.97629Q391.35938 218.97629 390.78125 219.71066Q390.20312 220.42941 390.20312 221.63254Q390.20312 222.78879 390.76562 223.55441Q391.32812 224.30441 392.26562 224.30441Z" fill-rule="nonzero"/><path stroke="#cc0000" stroke-width="3.0" stroke-linejoin="round" stroke-linecap="round" d="M728.7969 302.24576L724.0781 312.80826L722.5625 312.80826L727.2656 302.62076L721.1094 302.62076L721.1094 301.43326L728.7969 301.43326L728.7969 302.24576ZM736.5469 308.98013L738.125 308.98013L738.125 310.16763L736.5469 310.16763L736.5469 312.80826L735.09375 312.80826L735.09375 310.16763L729.9219 310.16763L729.9219 309.30826L735.0156 301.43326L736.5469 301.43326L736.5469 308.98013ZM731.5625 308.98013L735.09375 308.98013L735.09375 303.402L734.9219 303.7145L731.5625 308.98013ZM739.625 312.04263Q739.625 311.66763 739.84375 311.41763Q740.0781 311.16763 740.5156 311.16763Q740.96875 311.16763 741.1875 311.41763Q741.4219 311.66763 741.4219 312.04263Q741.4219 312.402 741.1875 312.652Q740.96875 312.902 740.5156 312.902Q740.0781 312.902 739.84375 312.652Q739.625 312.402 739.625 312.04263ZM750.7969 302.24576L746.0781 312.80826L744.5625 312.80826L749.2656 302.62076L743.1094 302.62076L743.1094 301.43326L750.7969 301.43326L750.7969 302.24576Z" fill-rule="nonzero"/><path fill="#ffffff" d="M728.7969 302.24576L724.0781 312.80826L722.5625 312.80826L727.2656 302.62076L721.1094 302.62076L721.1094 301.43326L728.7969 301.43326L728.7969 302.24576ZM736.5469 308.98013L738.125 308.98013L738.125 310.16763L736.5469 310.16763L736.5469 312.80826L735.09375 312.80826L735.09375 310.16763L729.9219 310.16763L729.9219 309.30826L735.0156 301.43326L736.5469 301.43326L736.5469 308.98013ZM731.5625 308.98013L735.09375 308.98013L735.09375 303.402L734.9219 303.7145L731.5625 308.98013ZM739.625 312.04263Q739.625 311.66763 739.84375 311.41763Q740.0781 311.16763 740.5156 311.16763Q740.96875 311.16763 741.1875 311.41763Q741.4219 311.66763 741.4219 312.04263Q741.4219 312.402 741.1875 312.652Q740.96875 312.902 740.5156 312.902Q740.0781 312.902 739.84375 312.652Q739.625 312.402 739.625 312.04263ZM750.7969 302.24576L746.0781 312.80826L744.5625 312.80826L749.2656 302.62076L743.1094 302.62076L743.1094 301.43326L750.7969 301.43326L750.7969 302.24576Z" fill-rule="nonzero"/><path fill="#000000" d="M41.271873 402.24374Q41.271873 400.2125 41.678123 398.97812Q42.1 397.74374 42.928123 397.07187Q43.75625 396.4 45.00625 396.4Q45.928123 396.4 46.615623 396.775Q47.31875 397.13437 47.771873 397.8375Q48.225 398.54062 48.475 399.54062Q48.740623 400.54062 48.740623 402.24374Q48.740623 404.25937 48.31875 405.50937Q47.9125 406.74374 47.084373 407.43124Q46.25625 408.10312 45.00625 408.10312Q43.35 408.10312 42.396873 406.9Q41.271873 405.47812 41.271873 402.24374ZM42.709373 402.24374Q42.709373 405.07187 43.365623 406.00937Q44.0375 406.93124 45.00625 406.93124Q45.975 406.93124 46.63125 405.99374Q47.2875 405.05624 47.2875 402.24374Q47.2875 399.41562 46.63125 398.49374Q45.975 397.55624 44.990623 397.55624Q44.021873 397.55624 43.44375 398.38437Q42.709373 399.43124 42.709373 402.24374Z" fill-rule="nonzero"/><path fill="#000000" d="M32.271873 330.60834L33.740623 330.48334Q33.9125 331.56146 34.50625 332.10834Q35.1 332.6396 35.94375 332.6396Q36.959373 332.6396 37.6625 331.87396Q38.365623 331.10834 38.365623 329.8427Q38.365623 328.6396 37.69375 327.9521Q37.021873 327.24896 35.928123 327.24896Q35.240623 327.24896 34.69375 327.56146Q34.146873 327.87396 33.834373 328.35834L32.521873 328.18646L33.63125 322.31146L39.31875 322.31146L39.31875 323.6552L34.75625 323.6552L34.13125 326.73334Q35.1625 326.0146 36.303123 326.0146Q37.803123 326.0146 38.834373 327.06146Q39.865623 328.0927 39.865623 329.7177Q39.865623 331.2802 38.959373 332.4052Q37.85 333.81146 35.94375 333.81146Q34.38125 333.81146 33.396873 332.93646Q32.4125 332.04584 32.271873 330.60834ZM41.271873 327.9521Q41.271873 325.92084 41.678123 324.68646Q42.1 323.4521 42.928123 322.7802Q43.75625 322.10834 45.00625 322.10834Q45.928123 322.10834 46.615623 322.48334Q47.31875 322.8427 47.771873 323.54584Q48.225 324.24896 48.475 325.24896Q48.740623 326.24896 48.740623 327.9521Q48.740623 329.9677 48.31875 331.2177Q47.9125 332.4521 47.084373 333.1396Q46.25625 333.81146 45.00625 333.81146Q43.35 333.81146 42.396873 332.60834Q41.271873 331.18646 41.271873 327.9521ZM42.709373 327.9521Q42.709373 330.7802 43.365623 331.7177Q44.0375 332.6396 45.00625 332.6396Q45.975 332.6396 46.63125 331.7021Q47.2875 330.7646 47.2875 327.9521Q47.2875 325.12396 46.63125 324.2021Q45.975 323.2646 44.990623 323.2646Q44.021873 323.2646 43.44375 324.0927Q42.709373 325.1396 42.709373 327.9521Z" fill-rule="nonzero"/><path fill="#000000" d="M28.56875 259.31668L27.1625 259.31668L27.1625 250.34793Q26.646875 250.8323 25.81875 251.31668Q25.00625 251.80106 24.35 252.05106L24.35 250.69168Q25.521875 250.12918 26.396875 249.34793Q27.2875 248.55106 27.6625 247.81668L28.56875 247.81668L28.56875 259.31668ZM32.271873 253.66043Q32.271873 251.62918 32.678123 250.3948Q33.1 249.16043 33.928123 248.48856Q34.75625 247.81668 36.00625 247.81668Q36.928123 247.81668 37.615623 248.19168Q38.31875 248.55106 38.771873 249.25418Q39.225 249.9573 39.475 250.9573Q39.740623 251.9573 39.740623 253.66043Q39.740623 255.67606 39.31875 256.92606Q38.9125 258.16043 38.084373 258.84793Q37.25625 259.5198 36.00625 259.5198Q34.35 259.5198 33.396873 258.31668Q32.271873 256.8948 32.271873 253.66043ZM33.709373 253.66043Q33.709373 256.48856 34.365623 257.42606Q35.0375 258.34793 36.00625 258.34793Q36.975 258.34793 37.63125 257.41043Q38.2875 256.47293 38.2875 253.66043Q38.2875 250.8323 37.63125 249.91043Q36.975 248.97293 35.990623 248.97293Q35.021873 248.97293 34.44375 249.80106Q33.709373 250.84793 33.709373 253.66043ZM41.271873 253.66043Q41.271873 251.62918 41.678123 250.3948Q42.1 249.16043 42.928123 248.48856Q43.75625 247.81668 45.00625 247.81668Q45.928123 247.81668 46.615623 248.19168Q47.31875 248.55106 47.771873 249.25418Q48.225 249.9573 48.475 250.9573Q48.740623 251.9573 48.740623 253.66043Q48.740623 255.67606 48.31875 256.92606Q47.9125 258.16043 47.084373 258.84793Q46.25625 259.5198 45.00625 259.5198Q43.35 259.5198 42.396873 258.31668Q41.271873 256.8948 41.271873 253.66043ZM42.709373 253.66043Q42.709373 256.48856 43.365623 257.42606Q44.0375 258.34793 45.00625 258.34793Q45.975 258.34793 46.63125 257.41043Q47.2875 256.47293 47.2875 253.66043Q47.2875 250.8323 46.63125 249.91043Q45.975 248.97293 44.990623 248.97293Q44.021873 248.97293 43.44375 249.80106Q42.709373 250.84793 42.709373 253.66043Z" fill-rule="nonzero"/><path fill="#000000" d="M28.56875 185.025L27.1625 185.025L27.1625 176.05624Q26.646875 176.54062 25.81875 177.025Q25.00625 177.50937 24.35 177.75937L24.35 176.4Q25.521875 175.8375 26.396875 175.05624Q27.2875 174.25937 27.6625 173.525L28.56875 173.525L28.56875 185.025ZM32.271873 182.025L33.740623 181.9Q33.9125 182.97812 34.50625 183.525Q35.1 184.05624 35.94375 184.05624Q36.959373 184.05624 37.6625 183.29062Q38.365623 182.525 38.365623 181.25937Q38.365623 180.05624 37.69375 179.36874Q37.021873 178.66562 35.928123 178.66562Q35.240623 178.66562 34.69375 178.97812Q34.146873 179.29062 33.834373 179.775L32.521873 179.60312L33.63125 173.72812L39.31875 173.72812L39.31875 175.07187L34.75625 175.07187L34.13125 178.15Q35.1625 177.43124 36.303123 177.43124Q37.803123 177.43124 38.834373 178.47812Q39.865623 179.50937 39.865623 181.13437Q39.865623 182.69687 38.959373 183.82187Q37.85 185.22812 35.94375 185.22812Q34.38125 185.22812 33.396873 184.35312Q32.4125 183.4625 32.271873 182.025ZM41.271873 179.36874Q41.271873 177.3375 41.678123 176.10312Q42.1 174.86874 42.928123 174.19687Q43.75625 173.525 45.00625 173.525Q45.928123 173.525 46.615623 173.9Q47.31875 174.25937 47.771873 174.9625Q48.225 175.66562 48.475 176.66562Q48.740623 177.66562 48.740623 179.36874Q48.740623 181.38437 48.31875 182.63437Q47.9125 183.86874 47.084373 184.55624Q46.25625 185.22812 45.00625 185.22812Q43.35 185.22812 42.396873 184.025Q41.271873 182.60312 41.271873 179.36874ZM42.709373 179.36874Q42.709373 182.19687 43.365623 183.13437Q44.0375 184.05624 45.00625 184.05624Q45.975 184.05624 46.63125 183.11874Q47.2875 182.18124 47.2875 179.36874Q47.2875 176.54062 46.63125 175.61874Q45.975 174.68124 44.990623 174.68124Q44.021873 174.68124 43.44375 175.50937Q42.709373 176.55624 42.709373 179.36874Z" fill-rule="nonzero"/><path fill="#000000" d="M30.6625 109.373955L30.6625 110.73333L23.084375 110.73333Q23.06875 110.217705 23.25625 109.748955Q23.5375 108.98333 24.178125 108.23333Q24.81875 107.48333 26.021875 106.498955Q27.88125 104.967705 28.5375 104.07708Q29.19375 103.17083 29.19375 102.373955Q29.19375 101.54583 28.6 100.967705Q28.00625 100.38958 27.0375 100.38958Q26.021875 100.38958 25.4125 100.998955Q24.803125 101.60833 24.803125 102.686455L23.35 102.54583Q23.50625 100.92083 24.475 100.07708Q25.44375 99.23333 27.06875 99.23333Q28.725 99.23333 29.678125 100.155205Q30.646875 101.061455 30.646875 102.405205Q30.646875 103.092705 30.365625 103.76458Q30.084375 104.42083 29.428125 105.155205Q28.771875 105.88958 27.25625 107.17083Q25.990625 108.23333 25.63125 108.623955Q25.271875 108.998955 25.0375 109.373955L30.6625 109.373955ZM32.271873 105.07708Q32.271873 103.04583 32.678123 101.811455Q33.1 100.57708 33.928123 99.905205Q34.75625 99.23333 36.00625 99.23333Q36.928123 99.23333 37.615623 99.60833Q38.31875 99.967705 38.771873 100.67083Q39.225 101.373955 39.475 102.373955Q39.740623 103.373955 39.740623 105.07708Q39.740623 107.092705 39.31875 108.342705Q38.9125 109.57708 38.084373 110.26458Q37.25625 110.936455 36.00625 110.936455Q34.35 110.936455 33.396873 109.73333Q32.271873 108.311455 32.271873 105.07708ZM33.709373 105.07708Q33.709373 107.905205 34.365623 108.842705Q35.0375 109.76458 36.00625 109.76458Q36.975 109.76458 37.63125 108.82708Q38.2875 107.88958 38.2875 105.07708Q38.2875 102.248955 37.63125 101.32708Q36.975 100.38958 35.990623 100.38958Q35.021873 100.38958 34.44375 101.217705Q33.709373 102.26458 33.709373 105.07708ZM41.271873 105.07708Q41.271873 103.04583 41.678123 101.811455Q42.1 100.57708 42.928123 99.905205Q43.75625 99.23333 45.00625 99.23333Q45.928123 99.23333 46.615623 99.60833Q47.31875 99.967705 47.771873 100.67083Q48.225 101.373955 48.475 102.373955Q48.740623 103.373955 48.740623 105.07708Q48.740623 107.092705 48.31875 108.342705Q47.9125 109.57708 47.084373 110.26458Q46.25625 110.936455 45.00625 110.936455Q43.35 110.936455 42.396873 109.73333Q41.271873 108.311455 41.271873 105.07708ZM42.709373 105.07708Q42.709373 107.905205 43.365623 108.842705Q44.0375 109.76458 45.00625 109.76458Q45.975 109.76458 46.63125 108.82708Q47.2875 107.88958 47.2875 105.07708Q47.2875 102.248955 46.63125 101.32708Q45.975 100.38958 44.990623 100.38958Q44.021873 100.38958 43.44375 101.217705Q42.709373 102.26458 42.709373 105.07708Z" fill-rule="nonzero"/><path fill="#000000" d="M263.5655 425.4L263.5655 413.94687L265.08112 413.94687L265.08112 424.04062L270.72174 424.04062L270.72174 425.4L263.5655 425.4ZM272.42487 425.4L272.42487 413.94687L273.83112 413.94687L273.83112 425.4L272.42487 425.4ZM275.42487 425.4L275.42487 413.94687L276.83112 413.94687L276.83112 425.4L275.42487 425.4ZM283.86237 424.36874Q283.08112 425.04062 282.36237 425.32187Q281.64362 425.5875 280.8155 425.5875Q279.4405 425.5875 278.70612 424.91562Q277.97174 424.24374 277.97174 423.2125Q277.97174 422.60312 278.253 422.10312Q278.53424 421.5875 278.97174 421.29062Q279.42487 420.97812 279.98737 420.82187Q280.40924 420.7125 281.23737 420.61874Q282.9405 420.41562 283.753 420.13437Q283.753 419.8375 283.753 419.75937Q283.753 418.9 283.36237 418.55624Q282.8155 418.07187 281.753 418.07187Q280.76862 418.07187 280.28424 418.43124Q279.8155 418.775 279.59674 419.65L278.22174 419.4625Q278.40924 418.5875 278.83112 418.04062Q279.26862 417.49374 280.08112 417.2125Q280.89362 416.91562 281.95612 416.91562Q283.01862 416.91562 283.67487 417.16562Q284.34674 417.41562 284.65924 417.79062Q284.97174 418.16562 285.09674 418.74374Q285.17487 419.10312 285.17487 420.04062L285.17487 421.91562Q285.17487 423.88437 285.253 424.4Q285.34674 424.91562 285.61237 425.4L284.14362 425.4Q283.92487 424.9625 283.86237 424.36874ZM283.753 421.22812Q282.98737 421.54062 281.45612 421.75937Q280.58112 421.88437 280.22174 422.04062Q279.86237 422.19687 279.65924 422.50937Q279.47174 422.80624 279.47174 423.16562Q279.47174 423.72812 279.89362 424.10312Q280.33112 424.47812 281.14362 424.47812Q281.95612 424.47812 282.58112 424.13437Q283.22174 423.775 283.51862 423.15Q283.753 422.68124 283.753 421.74374L283.753 421.22812ZM287.45612 425.4L287.45612 417.10312L288.70612 417.10312L288.70612 418.25937Q289.09674 417.65 289.73737 417.29062Q290.39362 416.91562 291.22174 416.91562Q292.14362 416.91562 292.73737 417.30624Q293.33112 417.68124 293.5655 418.36874Q294.54987 416.91562 296.128 416.91562Q297.36237 416.91562 298.01862 417.60312Q298.6905 418.275 298.6905 419.69687L298.6905 425.4L297.29987 425.4L297.29987 420.16562Q297.29987 419.32187 297.15924 418.9625Q297.01862 418.5875 296.65924 418.36874Q296.29987 418.13437 295.8155 418.13437Q294.9405 418.13437 294.36237 418.7125Q293.78424 419.29062 293.78424 420.57187L293.78424 425.4L292.378 425.4L292.378 420.00937Q292.378 419.07187 292.03424 418.60312Q291.6905 418.13437 290.90924 418.13437Q290.3155 418.13437 289.8155 418.44687Q289.3155 418.75937 289.08112 419.36874Q288.86237 419.9625 288.86237 421.0875L288.86237 425.4L287.45612 425.4ZM311.45612 424.04062L311.45612 425.4L303.878 425.4Q303.86237 424.88437 304.04987 424.41562Q304.33112 423.65 304.97174 422.9Q305.61237 422.15 306.8155 421.16562Q308.67487 419.63437 309.33112 418.74374Q309.98737 417.8375 309.98737 417.04062Q309.98737 416.2125 309.39362 415.63437Q308.79987 415.05624 307.83112 415.05624Q306.8155 415.05624 306.20612 415.66562Q305.59674 416.275 305.59674 417.35312L304.14362 417.2125Q304.29987 415.5875 305.26862 414.74374Q306.23737 413.9 307.86237 413.9Q309.51862 413.9 310.47174 414.82187Q311.4405 415.72812 311.4405 417.07187Q311.4405 417.75937 311.15924 418.43124Q310.878 419.0875 310.22174 419.82187Q309.5655 420.55624 308.04987 421.8375Q306.78424 422.9 306.42487 423.29062Q306.0655 423.66562 305.83112 424.04062L311.45612 424.04062ZM317.15924 415.44687L317.15924 414.0875L324.5655 414.0875L324.5655 415.18124Q323.47174 416.35312 322.39362 418.29062Q321.33112 420.2125 320.73737 422.24374Q320.3155 423.68124 320.20612 425.4L318.753 425.4Q318.78424 424.04062 319.28424 422.13437Q319.79987 420.2125 320.73737 418.44687Q321.6905 416.66562 322.76862 415.44687L317.15924 415.44687ZM326.5655 425.4L326.5655 413.94687L330.86237 413.94687Q332.17487 413.94687 332.97174 414.29062Q333.76862 414.63437 334.20612 415.36874Q334.65924 416.0875 334.65924 416.86874Q334.65924 417.60312 334.253 418.25937Q333.86237 418.9 333.0655 419.30624Q334.09674 419.60312 334.65924 420.3375Q335.22174 421.07187 335.22174 422.07187Q335.22174 422.88437 334.878 423.57187Q334.53424 424.25937 334.03424 424.63437Q333.53424 425.00937 332.78424 425.2125Q332.03424 425.4 330.9405 425.4L326.5655 425.4ZM328.08112 418.75937L330.5655 418.75937Q331.5655 418.75937 332.003 418.61874Q332.58112 418.44687 332.878 418.05624Q333.17487 417.65 333.17487 417.05624Q333.17487 416.47812 332.89362 416.05624Q332.628 415.61874 332.11237 415.4625Q331.61237 415.29062 330.378 415.29062L328.08112 415.29062L328.08112 418.75937ZM328.08112 424.04062L330.9405 424.04062Q331.67487 424.04062 331.97174 423.99374Q332.48737 423.9 332.83112 423.68124Q333.1905 423.4625 333.40924 423.04062Q333.64362 422.61874 333.64362 422.07187Q333.64362 421.43124 333.3155 420.9625Q332.98737 420.49374 332.40924 420.30624Q331.83112 420.10312 330.73737 420.10312L328.08112 420.10312L328.08112 424.04062Z" fill-rule="nonzero"/><path fill="#000000" d="M617.27826 425.4L617.27826 413.94687L618.7939 413.94687L618.7939 424.04062L624.4345 424.04062L624.4345 425.4L617.27826 425.4ZM626.13763 425.4L626.13763 413.94687L627.5439 413.94687L627.5439 425.4L626.13763 425.4ZM629.13763 425.4L629.13763 413.94687L630.5439 413.94687L630.5439 425.4L629.13763 425.4ZM632.1689 425.4L632.1689 417.10312L633.4189 417.10312L633.4189 418.25937Q633.8095 417.65 634.45013 417.29062Q635.1064 416.91562 635.9345 416.91562Q636.8564 416.91562 637.45013 417.30624Q638.0439 417.68124 638.27826 418.36874Q639.26263 416.91562 640.84076 416.91562Q642.07513 416.91562 642.7314 417.60312Q643.40326 418.275 643.40326 419.69687L643.40326 425.4L642.01263 425.4L642.01263 420.16562Q642.01263 419.32187 641.872 418.9625Q641.7314 418.5875 641.372 418.36874Q641.01263 418.13437 640.52826 418.13437Q639.65326 418.13437 639.07513 418.7125Q638.497 419.29062 638.497 420.57187L638.497 425.4L637.09076 425.4L637.09076 420.00937Q637.09076 419.07187 636.747 418.60312Q636.40326 418.13437 635.622 418.13437Q635.02826 418.13437 634.52826 418.44687Q634.02826 418.75937 633.7939 419.36874Q633.57513 419.9625 633.57513 421.0875L633.57513 425.4L632.1689 425.4ZM650.57513 424.36874Q649.7939 425.04062 649.07513 425.32187Q648.3564 425.5875 647.52826 425.5875Q646.15326 425.5875 645.4189 424.91562Q644.6845 424.24374 644.6845 423.2125Q644.6845 422.60312 644.96576 422.10312Q645.247 421.5875 645.6845 421.29062Q646.13763 420.97812 646.70013 420.82187Q647.122 420.7125 647.95013 420.61874Q649.65326 420.41562 650.46576 420.13437Q650.46576 419.8375 650.46576 419.75937Q650.46576 418.9 650.07513 418.55624Q649.52826 418.07187 648.46576 418.07187Q647.4814 418.07187 646.997 418.43124Q646.52826 418.775 646.3095 419.65L644.9345 419.4625Q645.122 418.5875 645.5439 418.04062Q645.9814 417.49374 646.7939 417.2125Q647.6064 416.91562 648.6689 416.91562Q649.7314 416.91562 650.38763 417.16562Q651.0595 417.41562 651.372 417.79062Q651.6845 418.16562 651.8095 418.74374Q651.88763 419.10312 651.88763 420.04062L651.88763 421.91562Q651.88763 423.88437 651.96576 424.4Q652.0595 424.91562 652.32513 425.4L650.8564 425.4Q650.63763 424.9625 650.57513 424.36874ZM650.46576 421.22812Q649.70013 421.54062 648.1689 421.75937Q647.2939 421.88437 646.9345 422.04062Q646.57513 422.19687 646.372 422.50937Q646.1845 422.80624 646.1845 423.16562Q646.1845 423.72812 646.6064 424.10312Q647.0439 424.47812 647.8564 424.47812Q648.6689 424.47812 649.2939 424.13437Q649.9345 423.775 650.2314 423.15Q650.46576 422.68124 650.46576 421.74374L650.46576 421.22812ZM665.1689 424.04062L665.1689 425.4L657.59076 425.4Q657.57513 424.88437 657.76263 424.41562Q658.0439 423.65 658.6845 422.9Q659.32513 422.15 660.52826 421.16562Q662.38763 419.63437 663.0439 418.74374Q663.70013 417.8375 663.70013 417.04062Q663.70013 416.2125 663.1064 415.63437Q662.51263 415.05624 661.5439 415.05624Q660.52826 415.05624 659.9189 415.66562Q659.3095 416.275 659.3095 417.35312L657.8564 417.2125Q658.01263 415.5875 658.9814 414.74374Q659.95013 413.9 661.57513 413.9Q663.2314 413.9 664.1845 414.82187Q665.15326 415.72812 665.15326 417.07187Q665.15326 417.75937 664.872 418.43124Q664.59076 419.0875 663.9345 419.82187Q663.27826 420.55624 661.76263 421.8375Q660.497 422.9 660.13763 423.29062Q659.77826 423.66562 659.5439 424.04062L665.1689 424.04062ZM676.07513 425.4L674.6689 425.4L674.6689 416.43124Q674.15326 416.91562 673.32513 417.4Q672.51263 417.88437 671.8564 418.13437L671.8564 416.775Q673.02826 416.2125 673.90326 415.43124Q674.7939 414.63437 675.1689 413.9L676.07513 413.9L676.07513 425.4ZM679.77826 422.36874L681.1845 422.18124Q681.4345 423.38437 682.01263 423.91562Q682.59076 424.43124 683.4345 424.43124Q684.4189 424.43124 685.1064 423.74374Q685.7939 423.05624 685.7939 422.04062Q685.7939 421.07187 685.15326 420.44687Q684.52826 419.82187 683.5439 419.82187Q683.15326 419.82187 682.5595 419.97812L682.71576 418.74374Q682.8564 418.75937 682.9345 418.75937Q683.84076 418.75937 684.5595 418.29062Q685.27826 417.82187 685.27826 416.8375Q685.27826 416.07187 684.747 415.57187Q684.2314 415.05624 683.40326 415.05624Q682.57513 415.05624 682.02826 415.57187Q681.4814 416.0875 681.32513 417.11874L679.9189 416.86874Q680.1845 415.44687 681.09076 414.68124Q682.01263 413.9 683.372 413.9Q684.3095 413.9 685.09076 414.30624Q685.88763 414.69687 686.2939 415.4Q686.71576 416.0875 686.71576 416.86874Q686.71576 417.61874 686.3095 418.22812Q685.9189 418.8375 685.13763 419.19687Q686.15326 419.43124 686.71576 420.16562Q687.27826 420.9 687.27826 422.00937Q687.27826 423.50937 686.1845 424.55624Q685.09076 425.60312 683.4189 425.60312Q681.9189 425.60312 680.9189 424.7125Q679.9189 423.80624 679.77826 422.36874ZM689.27826 425.4L689.27826 413.94687L693.57513 413.94687Q694.88763 413.94687 695.6845 414.29062Q696.4814 414.63437 696.9189 415.36874Q697.372 416.0875 697.372 416.86874Q697.372 417.60312 696.96576 418.25937Q696.57513 418.9 695.77826 419.30624Q696.8095 419.60312 697.372 420.3375Q697.9345 421.07187 697.9345 422.07187Q697.9345 422.88437 697.59076 423.57187Q697.247 424.25937 696.747 424.63437Q696.247 425.00937 695.497 425.2125Q694.747 425.4 693.65326 425.4L689.27826 425.4ZM690.7939 418.75937L693.27826 418.75937Q694.27826 418.75937 694.71576 418.61874Q695.2939 418.44687 695.59076 418.05624Q695.88763 417.65 695.88763 417.05624Q695.88763 416.47812 695.6064 416.05624Q695.34076 415.61874 694.82513 415.4625Q694.32513 415.29062 693.09076 415.29062L690.7939 415.29062L690.7939 418.75937ZM690.7939 424.04062L693.65326 424.04062Q694.38763 424.04062 694.6845 423.99374Q695.20013 423.9 695.5439 423.68124Q695.90326 423.4625 696.122 423.04062Q696.3564 422.61874 696.3564 422.07187Q696.3564 421.43124 696.02826 420.9625Q695.70013 420.49374 695.122 420.30624Q694.5439 420.10312 693.45013 420.10312L690.7939 420.10312L690.7939 424.04062Z" fill-rule="nonzero"/><path fill="#38761d" d="M308.5 66.166664C308.5 65.61438 308.94772 65.166664 309.5 65.166664L319.5 65.166664C320.05228 65.166664 320.5 65.61438 320.5 66.166664L320.5 76.166664C320.5 76.71895 320.05228 77.166664 319.5 77.166664L309.5 77.166664C308.94772 77.166664 308.5 76.71895 308.5 76.166664Z" fill-rule="nonzero"/><path fill="#1a1a1a" d="M329.76562 76.666664L329.76562 65.21354L334.84375 65.21354Q336.375 65.21354 337.17188 65.52604Q337.96875 65.822914 338.4375 66.604164Q338.92188 67.385414 338.92188 68.33854Q338.92188 69.55729 338.125 70.40104Q337.34375 71.229164 335.6875 71.447914Q336.29688 71.74479 336.60938 72.02604Q337.26562 72.635414 337.85938 73.541664L339.85938 76.666664L337.95312 76.666664L336.4375 74.27604Q335.76562 73.24479 335.32812 72.697914Q334.90625 72.15104 334.5625 71.93229Q334.23438 71.71354 333.875 71.635414Q333.625 71.572914 333.03125 71.572914L331.28125 71.572914L331.28125 76.666664L329.76562 76.666664ZM331.28125 70.260414L334.53125 70.260414Q335.57812 70.260414 336.15625 70.05729Q336.75 69.83854 337.04688 69.36979Q337.35938 68.885414 337.35938 68.33854Q337.35938 67.52604 336.76562 67.010414Q336.17188 66.479164 334.90625 66.479164L331.28125 66.479164L331.28125 70.260414ZM343.65625 76.666664L343.65625 66.55729L339.875 66.55729L339.875 65.21354L348.95312 65.21354L348.95312 66.55729L345.17188 66.55729L345.17188 76.666664L343.65625 76.666664ZM348.57812 76.666664L353.0 70.697914L349.09375 65.21354L350.90625 65.21354L352.98438 68.15104Q353.625 69.05729 353.90625 69.55729Q354.28125 68.93229 354.8125 68.24479L357.10938 65.21354L358.76562 65.21354L354.73438 70.604164L359.07812 76.666664L357.20312 76.666664L354.3125 72.572914Q354.07812 72.229164 353.8125 71.80729Q353.4375 72.43229 353.26562 72.666664L350.39062 76.666664L348.57812 76.666664ZM368.67188 76.666664L368.67188 73.916664L363.70312 73.916664L363.70312 72.635414L368.9375 65.21354L370.07812 65.21354L370.07812 72.635414L371.625 72.635414L371.625 73.916664L370.07812 73.916664L370.07812 76.666664L368.67188 76.666664ZM368.67188 72.635414L368.67188 67.46354L365.09375 72.635414L368.67188 72.635414ZM373.17188 71.010414Q373.17188 68.979164 373.57812 67.74479Q374.0 66.510414 374.82812 65.83854Q375.65625 65.166664 376.90625 65.166664Q377.82812 65.166664 378.51562 65.541664Q379.21875 65.90104 379.67188 66.604164Q380.125 67.30729 380.375 68.30729Q380.64062 69.30729 380.64062 71.010414Q380.64062 73.02604 380.21875 74.27604Q379.8125 75.510414 378.98438 76.197914Q378.15625 76.86979 376.90625 76.86979Q375.25 76.86979 374.29688 75.666664Q373.17188 74.24479 373.17188 71.010414ZM374.60938 71.010414Q374.60938 73.83854 375.26562 74.77604Q375.9375 75.697914 376.90625 75.697914Q377.875 75.697914 378.53125 74.760414Q379.1875 73.822914 379.1875 71.010414Q379.1875 68.18229 378.53125 67.260414Q377.875 66.322914 376.89062 66.322914Q375.92188 66.322914 375.34375 67.15104Q374.60938 68.197914 374.60938 71.010414ZM382.375 74.010414L383.73438 73.885414Q383.90625 74.83854 384.39062 75.27604Q384.875 75.697914 385.625 75.697914Q386.28125 75.697914 386.76562 75.40104Q387.25 75.104164 387.5625 74.61979Q387.875 74.11979 388.07812 73.27604Q388.29688 72.43229 388.29688 71.55729Q388.29688 71.46354 388.29688 71.27604Q387.875 71.947914 387.14062 72.36979Q386.40625 72.77604 385.5625 72.77604Q384.14062 72.77604 383.15625 71.74479Q382.17188 70.71354 382.17188 69.02604Q382.17188 67.291664 383.1875 66.229164Q384.21875 65.166664 385.76562 65.166664Q386.89062 65.166664 387.8125 65.77604Q388.73438 66.36979 389.21875 67.479164Q389.70312 68.58854 389.70312 70.697914Q389.70312 72.90104 389.21875 74.197914Q388.75 75.49479 387.79688 76.18229Q386.85938 76.86979 385.59375 76.86979Q384.25 76.86979 383.39062 76.11979Q382.54688 75.36979 382.375 74.010414ZM388.14062 68.96354Q388.14062 67.74479 387.48438 67.041664Q386.84375 66.322914 385.9375 66.322914Q385.0 66.322914 384.29688 67.08854Q383.60938 67.854164 383.60938 69.072914Q383.60938 70.166664 384.26562 70.854164Q384.9375 71.541664 385.90625 71.541664Q386.875 71.541664 387.5 70.854164Q388.14062 70.166664 388.14062 68.96354ZM391.17188 71.010414Q391.17188 68.979164 391.57812 67.74479Q392.0 66.510414 392.82812 65.83854Q393.65625 65.166664 394.90625 65.166664Q395.82812 65.166664 396.51562 65.541664Q397.21875 65.90104 397.67188 66.604164Q398.125 67.30729 398.375 68.30729Q398.64062 69.30729 398.64062 71.010414Q398.64062 73.02604 398.21875 74.27604Q397.8125 75.510414 396.98438 76.197914Q396.15625 76.86979 394.90625 76.86979Q393.25 76.86979 392.29688 75.666664Q391.17188 74.24479 391.17188 71.010414ZM392.60938 71.010414Q392.60938 73.83854 393.26562 74.77604Q393.9375 75.697914 394.90625 75.697914Q395.875 75.697914 396.53125 74.760414Q397.1875 73.822914 397.1875 71.010414Q397.1875 68.18229 396.53125 67.260414Q395.875 66.322914 394.89062 66.322914Q393.92188 66.322914 393.34375 67.15104Q392.60938 68.197914 392.60938 71.010414Z" fill-rule="nonzero"/><path fill="#6aa84f" d="M415.5 66.166664C415.5 65.61438 415.94772 65.166664 416.5 65.166664L426.5 65.166664C427.05228 65.166664 427.5 65.61438 427.5 66.166664L427.5 76.166664C427.5 76.71895 427.05228 77.166664 426.5 77.166664L416.5 77.166664C415.94772 77.166664 415.5 76.71895 415.5 76.166664Z" fill-rule="nonzero"/><path fill="#1a1a1a" d="M436.76562 76.666664L436.76562 65.21354L441.84375 65.21354Q443.375 65.21354 444.17188 65.52604Q444.96875 65.822914 445.4375 66.604164Q445.92188 67.385414 445.92188 68.33854Q445.92188 69.55729 445.125 70.40104Q444.34375 71.229164 442.6875 71.447914Q443.29688 71.74479 443.60938 72.02604Q444.26562 72.635414 444.85938 73.541664L446.85938 76.666664L444.95312 76.666664L443.4375 74.27604Q442.76562 73.24479 442.32812 72.697914Q441.90625 72.15104 441.5625 71.93229Q441.23438 71.71354 440.875 71.635414Q440.625 71.572914 440.03125 71.572914L438.28125 71.572914L438.28125 76.666664L436.76562 76.666664ZM438.28125 70.260414L441.53125 70.260414Q442.57812 70.260414 443.15625 70.05729Q443.75 69.83854 444.04688 69.36979Q444.35938 68.885414 444.35938 68.33854Q444.35938 67.52604 443.76562 67.010414Q443.17188 66.479164 441.90625 66.479164L438.28125 66.479164L438.28125 70.260414ZM450.65625 76.666664L450.65625 66.55729L446.875 66.55729L446.875 65.21354L455.95312 65.21354L455.95312 66.55729L452.17188 66.55729L452.17188 76.666664L450.65625 76.666664ZM455.57812 76.666664L460.0 70.697914L456.09375 65.21354L457.90625 65.21354L459.98438 68.15104Q460.625 69.05729 460.90625 69.55729Q461.28125 68.93229 461.8125 68.24479L464.10938 65.21354L465.76562 65.21354L461.73438 70.604164L466.07812 76.666664L464.20312 76.666664L461.3125 72.572914Q461.07812 72.229164 460.8125 71.80729Q460.4375 72.43229 460.26562 72.666664L457.39062 76.666664L455.57812 76.666664ZM471.17188 73.635414L472.57812 73.447914Q472.82812 74.65104 473.40625 75.18229Q473.98438 75.697914 474.82812 75.697914Q475.8125 75.697914 476.5 75.010414Q477.1875 74.322914 477.1875 73.30729Q477.1875 72.33854 476.54688 71.71354Q475.92188 71.08854 474.9375 71.08854Q474.54688 71.08854 473.95312 71.24479L474.10938 70.010414Q474.25 70.02604 474.32812 70.02604Q475.23438 70.02604 475.95312 69.55729Q476.67188 69.08854 476.67188 68.104164Q476.67188 67.33854 476.14062 66.83854Q475.625 66.322914 474.79688 66.322914Q473.96875 66.322914 473.42188 66.83854Q472.875 67.354164 472.71875 68.385414L471.3125 68.135414Q471.57812 66.71354 472.48438 65.947914Q473.40625 65.166664 474.76562 65.166664Q475.70312 65.166664 476.48438 65.572914Q477.28125 65.96354 477.6875 66.666664Q478.10938 67.354164 478.10938 68.135414Q478.10938 68.885414 477.70312 69.49479Q477.3125 70.104164 476.53125 70.46354Q477.54688 70.697914 478.10938 71.43229Q478.67188 72.166664 478.67188 73.27604Q478.67188 74.77604 477.57812 75.822914Q476.48438 76.86979 474.8125 76.86979Q473.3125 76.86979 472.3125 75.979164Q471.3125 75.072914 471.17188 73.635414ZM480.17188 71.010414Q480.17188 68.979164 480.57812 67.74479Q481.0 66.510414 481.82812 65.83854Q482.65625 65.166664 483.90625 65.166664Q484.82812 65.166664 485.51562 65.541664Q486.21875 65.90104 486.67188 66.604164Q487.125 67.30729 487.375 68.30729Q487.64062 69.30729 487.64062 71.010414Q487.64062 73.02604 487.21875 74.27604Q486.8125 75.510414 485.98438 76.197914Q485.15625 76.86979 483.90625 76.86979Q482.25 76.86979 481.29688 75.666664Q480.17188 74.24479 480.17188 71.010414ZM481.60938 71.010414Q481.60938 73.83854 482.26562 74.77604Q482.9375 75.697914 483.90625 75.697914Q484.875 75.697914 485.53125 74.760414Q486.1875 73.822914 486.1875 71.010414Q486.1875 68.18229 485.53125 67.260414Q484.875 66.322914 483.89062 66.322914Q482.92188 66.322914 482.34375 67.15104Q481.60938 68.197914 481.60938 71.010414ZM489.375 74.010414L490.73438 73.885414Q490.90625 74.83854 491.39062 75.27604Q491.875 75.697914 492.625 75.697914Q493.28125 75.697914 493.76562 75.40104Q494.25 75.104164 494.5625 74.61979Q494.875 74.11979 495.07812 73.27604Q495.29688 72.43229 495.29688 71.55729Q495.29688 71.46354 495.29688 71.27604Q494.875 71.947914 494.14062 72.36979Q493.40625 72.77604 492.5625 72.77604Q491.14062 72.77604 490.15625 71.74479Q489.17188 70.71354 489.17188 69.02604Q489.17188 67.291664 490.1875 66.229164Q491.21875 65.166664 492.76562 65.166664Q493.89062 65.166664 494.8125 65.77604Q495.73438 66.36979 496.21875 67.479164Q496.70312 68.58854 496.70312 70.697914Q496.70312 72.90104 496.21875 74.197914Q495.75 75.49479 494.79688 76.18229Q493.85938 76.86979 492.59375 76.86979Q491.25 76.86979 490.39062 76.11979Q489.54688 75.36979 489.375 74.010414ZM495.14062 68.96354Q495.14062 67.74479 494.48438 67.041664Q493.84375 66.322914 492.9375 66.322914Q492.0 66.322914 491.29688 67.08854Q490.60938 67.854164 490.60938 69.072914Q490.60938 70.166664 491.26562 70.854164Q491.9375 71.541664 492.90625 71.541664Q493.875 71.541664 494.5 70.854164Q495.14062 70.166664 495.14062 68.96354ZM498.17188 71.010414Q498.17188 68.979164 498.57812 67.74479Q499.0 66.510414 499.82812 65.83854Q500.65625 65.166664 501.90625 65.166664Q502.82812 65.166664 503.51562 65.541664Q504.21875 65.90104 504.67188 66.604164Q505.125 67.30729 505.375 68.30729Q505.64062 69.30729 505.64062 71.010414Q505.64062 73.02604 505.21875 74.27604Q504.8125 75.510414 503.98438 76.197914Q503.15625 76.86979 501.90625 76.86979Q500.25 76.86979 499.29688 75.666664Q498.17188 74.24479 498.17188 71.010414ZM499.60938 71.010414Q499.60938 73.83854 500.26562 74.77604Q500.9375 75.697914 501.90625 75.697914Q502.875 75.697914 503.53125 74.760414Q504.1875 73.822914 504.1875 71.010414Q504.1875 68.18229 503.53125 67.260414Q502.875 66.322914 501.89062 66.322914Q500.92188 66.322914 500.34375 67.15104Q499.60938 68.197914 499.60938 71.010414ZM510.65625 76.666664L510.65625 66.55729L506.875 66.55729L506.875 65.21354L515.9531 65.21354L515.9531 66.55729L512.1719 66.55729L512.1719 76.666664L510.65625 76.666664ZM516.5625 66.822914L516.5625 65.21354L517.96875 65.21354L517.96875 66.822914L516.5625 66.822914ZM516.5625 76.666664L516.5625 68.36979L517.96875 68.36979L517.96875 76.666664L516.5625 76.666664Z" fill-rule="nonzero"/><path fill="#cc0000" d="M535.5 66.166664C535.5 65.61438 535.9477 65.166664 536.5 65.166664L546.5 65.166664C547.0523 65.166664 547.5 65.61438 547.5 66.166664L547.5 76.166664C547.5 76.71895 547.0523 77.166664 546.5 77.166664L536.5 77.166664C535.9477 77.166664 535.5 76.71895 535.5 76.166664Z" fill-rule="nonzero"/><path fill="#1a1a1a" d="M556.2656 66.71354L556.2656 65.354164L563.6719 65.354164L563.6719 66.447914Q562.5781 67.61979 561.5 69.55729Q560.4375 71.479164 559.84375 73.510414Q559.4219 74.947914 559.3125 76.666664L557.8594 76.666664Q557.8906 75.30729 558.3906 73.40104Q558.90625 71.479164 559.84375 69.71354Q560.7969 67.93229 561.875 66.71354L556.2656 66.71354ZM565.375 74.010414L566.7344 73.885414Q566.90625 74.83854 567.3906 75.27604Q567.875 75.697914 568.625 75.697914Q569.28125 75.697914 569.7656 75.40104Q570.25 75.104164 570.5625 74.61979Q570.875 74.11979 571.0781 73.27604Q571.2969 72.43229 571.2969 71.55729Q571.2969 71.46354 571.2969 71.27604Q570.875 71.947914 570.1406 72.36979Q569.40625 72.77604 568.5625 72.77604Q567.1406 72.77604 566.15625 71.74479Q565.1719 70.71354 565.1719 69.02604Q565.1719 67.291664 566.1875 66.229164Q567.21875 65.166664 568.7656 65.166664Q569.8906 65.166664 570.8125 65.77604Q571.7344 66.36979 572.21875 67.479164Q572.7031 68.58854 572.7031 70.697914Q572.7031 72.90104 572.21875 74.197914Q571.75 75.49479 570.7969 76.18229Q569.8594 76.86979 568.59375 76.86979Q567.25 76.86979 566.3906 76.11979Q565.5469 75.36979 565.375 74.010414ZM571.1406 68.96354Q571.1406 67.74479 570.4844 67.041664Q569.84375 66.322914 568.9375 66.322914Q568.0 66.322914 567.2969 67.08854Q566.6094 67.854164 566.6094 69.072914Q566.6094 70.166664 567.2656 70.854164Q567.9375 71.541664 568.90625 71.541664Q569.875 71.541664 570.5 70.854164Q571.1406 70.166664 571.1406 68.96354ZM574.1719 71.010414Q574.1719 68.979164 574.5781 67.74479Q575.0 66.510414 575.8281 65.83854Q576.65625 65.166664 577.90625 65.166664Q578.8281 65.166664 579.5156 65.541664Q580.21875 65.90104 580.6719 66.604164Q581.125 67.30729 581.375 68.30729Q581.6406 69.30729 581.6406 71.010414Q581.6406 73.02604 581.21875 74.27604Q580.8125 75.510414 579.9844 76.197914Q579.15625 76.86979 577.90625 76.86979Q576.25 76.86979 575.2969 75.666664Q574.1719 74.24479 574.1719 71.010414ZM575.6094 71.010414Q575.6094 73.83854 576.2656 74.77604Q576.9375 75.697914 577.90625 75.697914Q578.875 75.697914 579.53125 74.760414Q580.1875 73.822914 580.1875 71.010414Q580.1875 68.18229 579.53125 67.260414Q578.875 66.322914 577.8906 66.322914Q576.9219 66.322914 576.34375 67.15104Q575.6094 68.197914 575.6094 71.010414ZM583.1719 71.010414Q583.1719 68.979164 583.5781 67.74479Q584.0 66.510414 584.8281 65.83854Q585.65625 65.166664 586.90625 65.166664Q587.8281 65.166664 588.5156 65.541664Q589.21875 65.90104 589.6719 66.604164Q590.125 67.30729 590.375 68.30729Q590.6406 69.30729 590.6406 71.010414Q590.6406 73.02604 590.21875 74.27604Q589.8125 75.510414 588.9844 76.197914Q588.15625 76.86979 586.90625 76.86979Q585.25 76.86979 584.2969 75.666664Q583.1719 74.24479 583.1719 71.010414ZM584.6094 71.010414Q584.6094 73.83854 585.2656 74.77604Q585.9375 75.697914 586.90625 75.697914Q587.875 75.697914 588.53125 74.760414Q589.1875 73.822914 589.1875 71.010414Q589.1875 68.18229 588.53125 67.260414Q587.875 66.322914 586.8906 66.322914Q585.9219 66.322914 585.34375 67.15104Q584.6094 68.197914 584.6094 71.010414ZM595.625 76.666664L598.65625 72.354164L595.84375 68.36979L597.6094 68.36979L598.875 70.30729Q599.2344 70.86979 599.4531 71.24479Q599.7969 70.729164 600.09375 70.322914L601.4844 68.36979L603.1719 68.36979L600.2969 72.27604L603.3906 76.666664L601.65625 76.666664L599.9531 74.08854L599.5 73.385414L597.3281 76.666664L595.625 76.666664ZM606.625 75.40104L606.8281 76.65104Q606.2344 76.77604 605.7656 76.77604Q605.0 76.77604 604.5781 76.541664Q604.15625 76.291664 603.9844 75.90104Q603.8125 75.49479 603.8125 74.229164L603.8125 69.46354L602.78125 69.46354L602.78125 68.36979L603.8125 68.36979L603.8125 66.30729L605.21875 65.46354L605.21875 68.36979L606.625 68.36979L606.625 69.46354L605.21875 69.46354L605.21875 74.30729Q605.21875 74.916664 605.28125 75.08854Q605.3594 75.260414 605.53125 75.36979Q605.7031 75.46354 606.0156 75.46354Q606.25 75.46354 606.625 75.40104ZM606.625 76.666664L609.65625 72.354164L606.84375 68.36979L608.6094 68.36979L609.875 70.30729Q610.2344 70.86979 610.4531 71.24479Q610.7969 70.729164 611.09375 70.322914L612.4844 68.36979L614.1719 68.36979L611.2969 72.27604L614.3906 76.666664L612.65625 76.666664L610.9531 74.08854L610.5 73.385414L608.3281 76.666664L606.625 76.666664Z" fill-rule="nonzero"/><path fill="#000000" d="M23.50625 37.00625L25.2875 36.85Q25.4125 37.9125 25.865625 38.6Q26.334375 39.2875 27.303125 39.725Q28.2875 40.146873 29.521875 40.146873Q30.6 40.146873 31.428125 39.834373Q32.25625 39.50625 32.6625 38.94375Q33.06875 38.38125 33.06875 37.709373Q33.06875 37.0375 32.678123 36.5375Q32.2875 36.0375 31.396875 35.69375Q30.81875 35.459373 28.834375 34.990623Q26.865625 34.521873 26.084375 34.1Q25.053125 33.56875 24.553125 32.771873Q24.053125 31.974998 24.053125 30.990623Q24.053125 29.896873 24.6625 28.959373Q25.271875 28.021873 26.459375 27.537498Q27.646875 27.037498 29.084375 27.037498Q30.678125 27.037498 31.896875 27.553123Q33.115623 28.068748 33.75625 29.068748Q34.4125 30.053123 34.459373 31.318748L32.646873 31.459373Q32.50625 30.099998 31.6625 29.412498Q30.81875 28.709373 29.1625 28.709373Q27.44375 28.709373 26.646875 29.349998Q25.865625 29.974998 25.865625 30.849998Q25.865625 31.631248 26.428125 32.13125Q26.975 32.63125 29.2875 33.146873Q31.6 33.6625 32.459373 34.053123Q33.709373 34.63125 34.303123 35.521873Q34.896873 36.396873 34.896873 37.553123Q34.896873 38.69375 34.240623 39.709373Q33.584373 40.725 32.35 41.2875Q31.13125 41.85 29.6 41.85Q27.6625 41.85 26.35 41.2875Q25.0375 40.709373 24.2875 39.56875Q23.5375 38.428123 23.50625 37.00625ZM36.928123 29.303123L36.928123 27.287498L38.69375 27.287498L38.69375 29.303123L36.928123 29.303123ZM36.928123 41.6L36.928123 31.224998L38.69375 31.224998L38.69375 41.6L36.928123 41.6ZM40.9125 41.6L40.9125 31.224998L42.50625 31.224998L42.50625 32.709373Q43.646873 30.990623 45.803123 30.990623Q46.740623 30.990623 47.521873 31.334373Q48.31875 31.662498 48.709373 32.209373Q49.1 32.75625 49.25625 33.50625Q49.35 34.00625 49.35 35.225L49.35 41.6L47.584373 41.6L47.584373 35.2875Q47.584373 34.209373 47.38125 33.678123Q47.178123 33.146873 46.646873 32.834373Q46.13125 32.521873 45.428123 32.521873Q44.303123 32.521873 43.490623 33.240623Q42.678123 33.94375 42.678123 35.928123L42.678123 41.6L40.9125 41.6ZM50.6 42.459373L52.303123 42.709373Q52.4125 43.50625 52.896873 43.865623Q53.553123 44.35 54.69375 44.35Q55.9125 44.35 56.56875 43.865623Q57.240623 43.38125 57.475 42.50625Q57.615623 41.959373 57.6 40.240623Q56.44375 41.6 54.725 41.6Q52.584373 41.6 51.4125 40.053123Q50.240623 38.50625 50.240623 36.35Q50.240623 34.865623 50.771873 33.615623Q51.31875 32.365623 52.334373 31.678123Q53.365623 30.990623 54.740623 30.990623Q56.56875 30.990623 57.771873 32.475L57.771873 31.224998L59.38125 31.224998L59.38125 40.19375Q59.38125 42.615623 58.88125 43.615623Q58.396873 44.63125 57.31875 45.209373Q56.25625 45.803123 54.69375 45.803123Q52.85 45.803123 51.69375 44.975Q50.553123 44.146873 50.6 42.459373ZM52.053123 36.225Q52.053123 38.271873 52.865623 39.209373Q53.678123 40.146873 54.896873 40.146873Q56.1 40.146873 56.9125 39.209373Q57.740623 38.271873 57.740623 36.2875Q57.740623 34.38125 56.896873 33.4125Q56.053123 32.44375 54.865623 32.44375Q53.69375 32.44375 52.865623 33.396873Q52.053123 34.35 52.053123 36.225ZM61.88125 41.6L61.88125 27.287498L63.63125 27.287498L63.63125 41.6L61.88125 41.6ZM73.02187 38.25625L74.83437 38.490623Q74.4125 40.06875 73.24062 40.959373Q72.08437 41.834373 70.27187 41.834373Q68.00625 41.834373 66.6625 40.44375Q65.33437 39.0375 65.33437 36.50625Q65.33437 33.88125 66.67812 32.44375Q68.02187 30.990623 70.17812 30.990623Q72.25625 30.990623 73.56875 32.4125Q74.89687 33.81875 74.89687 36.396873Q74.89687 36.553123 74.88125 36.865623L67.14687 36.865623Q67.24062 38.56875 68.11562 39.475Q68.99062 40.38125 70.2875 40.38125Q71.25625 40.38125 71.92812 39.88125Q72.61562 39.365623 73.02187 38.25625ZM67.24062 35.4125L73.0375 35.4125Q72.92812 34.115623 72.38125 33.459373Q71.5375 32.44375 70.19375 32.44375Q68.99062 32.44375 68.1625 33.25625Q67.33437 34.053123 67.24062 35.4125ZM76.24062 37.303123L76.24062 35.5375L81.63125 35.5375L81.63125 37.303123L76.24062 37.303123ZM85.5375 41.6L83.9125 41.6L83.9125 27.287498L85.6625 27.287498L85.6625 32.396873Q86.7875 30.990623 88.50625 30.990623Q89.45937 30.990623 90.31875 31.381248Q91.17812 31.771873 91.725 32.475Q92.27187 33.1625 92.58437 34.146873Q92.89687 35.13125 92.89687 36.25625Q92.89687 38.928123 91.58437 40.38125Q90.27187 41.834373 88.42812 41.834373Q86.58437 41.834373 85.5375 40.303123L85.5375 41.6ZM85.52187 36.334373Q85.52187 38.19375 86.02187 39.0375Q86.86562 40.38125 88.27187 40.38125Q89.42812 40.38125 90.25625 39.38125Q91.1 38.38125 91.1 36.396873Q91.1 34.365623 90.2875 33.4125Q89.49062 32.44375 88.35 32.44375Q87.19375 32.44375 86.35 33.44375Q85.52187 34.44375 85.52187 36.334373ZM101.69375 40.31875Q100.70937 41.146873 99.80312 41.490623Q98.89687 41.834373 97.86562 41.834373Q96.1625 41.834373 95.24062 41.00625Q94.31875 40.1625 94.31875 38.865623Q94.31875 38.1 94.6625 37.475Q95.02187 36.85 95.58437 36.475Q96.14687 36.084373 96.85 35.88125Q97.36562 35.75625 98.4125 35.615623Q100.5375 35.365623 101.5375 35.021873Q101.55312 34.6625 101.55312 34.553123Q101.55312 33.490623 101.05312 33.0375Q100.38125 32.44375 99.05312 32.44375Q97.80312 32.44375 97.20937 32.88125Q96.63125 33.31875 96.35 34.428123L94.63125 34.19375Q94.86562 33.084373 95.39687 32.4125Q95.92812 31.724998 96.94375 31.365623Q97.95937 30.990623 99.30312 30.990623Q100.63125 30.990623 101.45937 31.303123Q102.2875 31.615623 102.67812 32.1Q103.06875 32.56875 103.225 33.2875Q103.31875 33.740623 103.31875 34.9125L103.31875 37.25625Q103.31875 39.709373 103.42812 40.365623Q103.5375 41.00625 103.88125 41.6L102.0375 41.6Q101.77187 41.053123 101.69375 40.31875ZM101.5375 36.396873Q100.58437 36.7875 98.6625 37.053123Q97.58437 37.209373 97.13125 37.4125Q96.69375 37.6 96.44375 37.975Q96.19375 38.35 96.19375 38.81875Q96.19375 39.521873 96.725 39.990623Q97.25625 40.459373 98.2875 40.459373Q99.30312 40.459373 100.08437 40.021873Q100.88125 39.56875 101.25625 38.803123Q101.5375 38.19375 101.5375 37.0375L101.5375 36.396873ZM109.75625 40.021873L110.00625 41.584373Q109.27187 41.740623 108.67812 41.740623Q107.725 41.740623 107.19375 41.44375Q106.67812 41.13125 106.45937 40.646873Q106.24062 40.146873 106.24062 38.56875L106.24062 32.6L104.95937 32.6L104.95937 31.224998L106.24062 31.224998L106.24062 28.662498L107.99062 27.599998L107.99062 31.224998L109.75625 31.224998L109.75625 32.6L107.99062 32.6L107.99062 38.6625Q107.99062 39.4125 108.08437 39.63125Q108.17812 39.834373 108.38125 39.975Q108.6 40.1 108.99062 40.1Q109.27187 40.1 109.75625 40.021873ZM118.69375 37.803123L120.4125 38.021873Q120.13125 39.81875 118.95937 40.834373Q117.80312 41.834373 116.1 41.834373Q113.975 41.834373 112.67812 40.44375Q111.38125 39.053123 111.38125 36.459373Q111.38125 34.771873 111.92812 33.521873Q112.49062 32.25625 113.63125 31.631248Q114.77187 30.990623 116.11562 30.990623Q117.80312 30.990623 118.86562 31.849998Q119.94375 32.709373 120.25625 34.271873L118.5375 34.5375Q118.30312 33.490623 117.67812 32.975Q117.05312 32.44375 116.17812 32.44375Q114.85 32.44375 114.02187 33.396873Q113.19375 34.35 113.19375 36.396873Q113.19375 38.490623 113.99062 39.44375Q114.7875 40.38125 116.08437 40.38125Q117.11562 40.38125 117.80312 39.75625Q118.50625 39.115623 118.69375 37.803123ZM121.9125 41.6L121.9125 27.287498L123.67812 27.287498L123.67812 32.4125Q124.9125 30.990623 126.7875 30.990623Q127.92812 30.990623 128.77188 31.443748Q129.63126 31.896873 129.99063 32.709373Q130.36563 33.50625 130.36563 35.021873L130.36563 41.6L128.61563 41.6L128.61563 35.021873Q128.61563 33.709373 128.0375 33.115623Q127.45937 32.50625 126.42812 32.50625Q125.64687 32.50625 124.94375 32.9125Q124.25625 33.31875 123.95937 34.021873Q123.67812 34.709373 123.67812 35.928123L123.67812 41.6L121.9125 41.6ZM137.92813 29.303123L137.92813 27.287498L139.69376 27.287498L139.69376 29.303123L137.92813 29.303123ZM137.92813 41.6L137.92813 31.224998L139.69376 31.224998L139.69376 41.6L137.92813 41.6ZM141.9125 41.6L141.9125 31.224998L143.50626 31.224998L143.50626 32.709373Q144.64688 30.990623 146.80313 30.990623Q147.74063 30.990623 148.52188 31.334373Q149.31876 31.662498 149.70938 32.209373Q150.1 32.75625 150.25626 33.50625Q150.35 34.00625 150.35 35.225L150.35 41.6L148.58438 41.6L148.58438 35.2875Q148.58438 34.209373 148.38126 33.678123Q148.17813 33.146873 147.64688 32.834373Q147.13126 32.521873 146.42813 32.521873Q145.30313 32.521873 144.49063 33.240623Q143.67813 33.94375 143.67813 35.928123L143.67813 41.6L141.9125 41.6ZM152.33438 41.6L152.33438 32.6L150.7875 32.6L150.7875 31.224998L152.33438 31.224998L152.33438 30.131248Q152.33438 29.084373 152.52188 28.568748Q152.77188 27.881248 153.4125 27.459373Q154.05313 27.037498 155.20938 27.037498Q155.95938 27.037498 156.85 27.209373L156.58438 28.740623Q156.0375 28.646873 155.55313 28.646873Q154.75626 28.646873 154.4125 28.990623Q154.08438 29.334373 154.08438 30.271873L154.08438 31.224998L156.11563 31.224998L156.11563 32.6L154.08438 32.6L154.08438 41.6L152.33438 41.6ZM165.02188 38.25625L166.83438 38.490623Q166.4125 40.06875 165.24063 40.959373Q164.08438 41.834373 162.27188 41.834373Q160.00626 41.834373 158.6625 40.44375Q157.33438 39.0375 157.33438 36.50625Q157.33438 33.88125 158.67813 32.44375Q160.02188 30.990623 162.17813 30.990623Q164.25626 30.990623 165.56876 32.4125Q166.89688 33.81875 166.89688 36.396873Q166.89688 36.553123 166.88126 36.865623L159.14688 36.865623Q159.24063 38.56875 160.11563 39.475Q160.99063 40.38125 162.2875 40.38125Q163.25626 40.38125 163.92813 39.88125Q164.61563 39.365623 165.02188 38.25625ZM159.24063 35.4125L165.0375 35.4125Q164.92813 34.115623 164.38126 33.459373Q163.5375 32.44375 162.19376 32.44375Q160.99063 32.44375 160.1625 33.25625Q159.33438 34.053123 159.24063 35.4125ZM168.89688 41.6L168.89688 31.224998L170.475 31.224998L170.475 32.803123Q171.08438 31.693748 171.6 31.349998Q172.11563 30.990623 172.725 30.990623Q173.61563 30.990623 174.5375 31.553123L173.92813 33.19375Q173.2875 32.803123 172.64688 32.803123Q172.06876 32.803123 171.6 33.1625Q171.14688 33.50625 170.94376 34.115623Q170.6625 35.053123 170.6625 36.1625L170.6625 41.6L168.89688 41.6ZM183.02188 38.25625L184.83438 38.490623Q184.4125 40.06875 183.24063 40.959373Q182.08438 41.834373 180.27188 41.834373Q178.00626 41.834373 176.6625 40.44375Q175.33438 39.0375 175.33438 36.50625Q175.33438 33.88125 176.67813 32.44375Q178.02188 30.990623 180.17813 30.990623Q182.25626 30.990623 183.56876 32.4125Q184.89688 33.81875 184.89688 36.396873Q184.89688 36.553123 184.88126 36.865623L177.14688 36.865623Q177.24063 38.56875 178.11563 39.475Q178.99063 40.38125 180.2875 40.38125Q181.25626 40.38125 181.92813 39.88125Q182.61563 39.365623 183.02188 38.25625ZM177.24063 35.4125L183.0375 35.4125Q182.92813 34.115623 182.38126 33.459373Q181.5375 32.44375 180.19376 32.44375Q178.99063 32.44375 178.1625 33.25625Q177.33438 34.053123 177.24063 35.4125ZM186.9125 41.6L186.9125 31.224998L188.50626 31.224998L188.50626 32.709373Q189.64688 30.990623 191.80313 30.990623Q192.74063 30.990623 193.52188 31.334373Q194.31876 31.662498 194.70938 32.209373Q195.1 32.75625 195.25626 33.50625Q195.35 34.00625 195.35 35.225L195.35 41.6L193.58438 41.6L193.58438 35.2875Q193.58438 34.209373 193.38126 33.678123Q193.17813 33.146873 192.64688 32.834373Q192.13126 32.521873 191.42813 32.521873Q190.30313 32.521873 189.49063 33.240623Q188.67813 33.94375 188.67813 35.928123L188.67813 41.6L186.9125 41.6ZM203.69376 37.803123L205.4125 38.021873Q205.13126 39.81875 203.95938 40.834373Q202.80313 41.834373 201.1 41.834373Q198.975 41.834373 197.67813 40.44375Q196.38126 39.053123 196.38126 36.459373Q196.38126 34.771873 196.92813 33.521873Q197.49063 32.25625 198.63126 31.631248Q199.77188 30.990623 201.11563 30.990623Q202.80313 30.990623 203.86563 31.849998Q204.94376 32.709373 205.25626 34.271873L203.5375 34.5375Q203.30313 33.490623 202.67813 32.975Q202.05313 32.44375 201.17813 32.44375Q199.85 32.44375 199.02188 33.396873Q198.19376 34.35 198.19376 36.396873Q198.19376 38.490623 198.99063 39.44375Q199.7875 40.38125 201.08438 40.38125Q202.11563 40.38125 202.80313 39.75625Q203.50626 39.115623 203.69376 37.803123ZM214.02188 38.25625L215.83438 38.490623Q215.4125 40.06875 214.24063 40.959373Q213.08438 41.834373 211.27188 41.834373Q209.00626 41.834373 207.6625 40.44375Q206.33438 39.0375 206.33438 36.50625Q206.33438 33.88125 207.67813 32.44375Q209.02188 30.990623 211.17813 30.990623Q213.25626 30.990623 214.56876 32.4125Q215.89688 33.81875 215.89688 36.396873Q215.89688 36.553123 215.88126 36.865623L208.14688 36.865623Q208.24063 38.56875 209.11563 39.475Q209.99063 40.38125 211.2875 40.38125Q212.25626 40.38125 212.92813 39.88125Q213.61563 39.365623 214.02188 38.25625ZM208.24063 35.4125L214.0375 35.4125Q213.92813 34.115623 213.38126 33.459373Q212.5375 32.44375 211.19376 32.44375Q209.99063 32.44375 209.1625 33.25625Q208.33438 34.053123 208.24063 35.4125ZM223.9125 45.56875L223.9125 31.224998L225.52188 31.224998L225.52188 32.56875Q226.08438 31.787498 226.7875 31.396873Q227.50626 30.990623 228.52188 30.990623Q229.85 30.990623 230.86563 31.678123Q231.88126 32.365623 232.39688 33.615623Q232.92813 34.85 232.92813 36.334373Q232.92813 37.928123 232.35 39.209373Q231.7875 40.475 230.69376 41.1625Q229.6 41.834373 228.39688 41.834373Q227.52188 41.834373 226.81876 41.459373Q226.13126 41.084373 225.67813 40.521873L225.67813 45.56875L223.9125 45.56875ZM225.50626 36.475Q225.50626 38.475 226.31876 39.428123Q227.13126 40.38125 228.2875 40.38125Q229.45938 40.38125 230.2875 39.396873Q231.13126 38.4125 231.13126 36.31875Q231.13126 34.35 230.30313 33.365623Q229.49063 32.365623 228.36563 32.365623Q227.24063 32.365623 226.36563 33.428123Q225.50626 34.475 225.50626 36.475ZM242.02188 38.25625L243.83438 38.490623Q243.4125 40.06875 242.24063 40.959373Q241.08438 41.834373 239.27188 41.834373Q237.00626 41.834373 235.6625 40.44375Q234.33438 39.0375 234.33438 36.50625Q234.33438 33.88125 235.67813 32.44375Q237.02188 30.990623 239.17813 30.990623Q241.25626 30.990623 242.56876 32.4125Q243.89688 33.81875 243.89688 36.396873Q243.89688 36.553123 243.88126 36.865623L236.14688 36.865623Q236.24063 38.56875 237.11563 39.475Q237.99063 40.38125 239.2875 40.38125Q240.25626 40.38125 240.92813 39.88125Q241.61563 39.365623 242.02188 38.25625ZM236.24063 35.4125L242.0375 35.4125Q241.92813 34.115623 241.38126 33.459373Q240.5375 32.44375 239.19376 32.44375Q237.99063 32.44375 237.1625 33.25625Q236.33438 34.053123 236.24063 35.4125ZM245.89688 41.6L245.89688 31.224998L247.475 31.224998L247.475 32.803123Q248.08438 31.693748 248.6 31.349998Q249.11563 30.990623 249.725 30.990623Q250.61563 30.990623 251.5375 31.553123L250.92813 33.19375Q250.2875 32.803123 249.64688 32.803123Q249.06876 32.803123 248.6 33.1625Q248.14688 33.50625 247.94376 34.115623Q247.6625 35.053123 247.6625 36.1625L247.6625 41.6L245.89688 41.6ZM253.33438 41.6L253.33438 32.6L251.7875 32.6L251.7875 31.224998L253.33438 31.224998L253.33438 30.131248Q253.33438 29.084373 253.52188 28.568748Q253.77188 27.881248 254.4125 27.459373Q255.05313 27.037498 256.20938 27.037498Q256.95938 27.037498 257.85 27.209373L257.58438 28.740623Q257.0375 28.646873 256.55313 28.646873Q255.75626 28.646873 255.4125 28.990623Q255.08438 29.334373 255.08438 30.271873L255.08438 31.224998L257.11563 31.224998L257.11563 32.6L255.08438 32.6L255.08438 41.6L253.33438 41.6ZM258.27188 36.4125Q258.27188 33.5375 259.86563 32.146873Q261.20938 30.990623 263.13126 30.990623Q265.27188 30.990623 266.61563 32.396873Q267.975 33.803123 267.975 36.271873Q267.975 38.271873 267.38126 39.428123Q266.7875 40.56875 265.63126 41.209373Q264.49063 41.834373 263.13126 41.834373Q260.94376 41.834373 259.6 40.44375Q258.27188 39.0375 258.27188 36.4125ZM260.06876 36.4125Q260.06876 38.4125 260.92813 39.396873Q261.80313 40.38125 263.13126 40.38125Q264.44376 40.38125 265.30313 39.396873Q266.17813 38.396873 266.17813 36.35Q266.17813 34.428123 265.30313 33.44375Q264.42813 32.44375 263.13126 32.44375Q261.80313 32.44375 260.92813 33.44375Q260.06876 34.428123 260.06876 36.4125ZM269.89688 41.6L269.89688 31.224998L271.475 31.224998L271.475 32.803123Q272.08438 31.693748 272.6 31.349998Q273.11563 30.990623 273.725 30.990623Q274.61563 30.990623 275.5375 31.553123L274.92813 33.19375Q274.2875 32.803123 273.64688 32.803123Q273.06876 32.803123 272.6 33.1625Q272.14688 33.50625 271.94376 34.115623Q271.6625 35.053123 271.6625 36.1625L271.6625 41.6L269.89688 41.6ZM276.9125 41.6L276.9125 31.224998L278.49063 31.224998L278.49063 32.678123Q278.975 31.928123 279.7875 31.459373Q280.6 30.990623 281.63126 30.990623Q282.7875 30.990623 283.52188 31.474998Q284.25626 31.943748 284.56876 32.803123Q285.80313 30.990623 287.77188 30.990623Q289.31876 30.990623 290.14688 31.849998Q290.975 32.709373 290.975 34.475L290.975 41.6L289.225 41.6L289.225 35.06875Q289.225 34.00625 289.05313 33.553123Q288.88126 33.084373 288.42813 32.803123Q287.99063 32.521873 287.38126 32.521873Q286.2875 32.521873 285.55313 33.25625Q284.83438 33.975 284.83438 35.56875L284.83438 41.6L283.08438 41.6L283.08438 34.865623Q283.08438 33.69375 282.64688 33.115623Q282.225 32.521873 281.24063 32.521873Q280.50626 32.521873 279.86563 32.9125Q279.24063 33.303123 278.95938 34.053123Q278.67813 34.803123 278.67813 36.225L278.67813 41.6L276.9125 41.6ZM299.69376 40.31875Q298.70938 41.146873 297.80313 41.490623Q296.89688 41.834373 295.86563 41.834373Q294.1625 41.834373 293.24063 41.00625Q292.31876 40.1625 292.31876 38.865623Q292.31876 38.1 292.6625 37.475Q293.02188 36.85 293.58438 36.475Q294.14688 36.084373 294.85 35.88125Q295.36563 35.75625 296.4125 35.615623Q298.5375 35.365623 299.5375 35.021873Q299.55313 34.6625 299.55313 34.553123Q299.55313 33.490623 299.05313 33.0375Q298.38126 32.44375 297.05313 32.44375Q295.80313 32.44375 295.20938 32.88125Q294.63126 33.31875 294.35 34.428123L292.63126 34.19375Q292.86563 33.084373 293.39688 32.4125Q293.92813 31.724998 294.94376 31.365623Q295.95938 30.990623 297.30313 30.990623Q298.63126 30.990623 299.45938 31.303123Q300.2875 31.615623 300.67813 32.1Q301.06876 32.56875 301.225 33.2875Q301.31876 33.740623 301.31876 34.9125L301.31876 37.25625Q301.31876 39.709373 301.42813 40.365623Q301.5375 41.00625 301.88126 41.6L300.0375 41.6Q299.77188 41.053123 299.69376 40.31875ZM299.5375 36.396873Q298.58438 36.7875 296.6625 37.053123Q295.58438 37.209373 295.13126 37.4125Q294.69376 37.6 294.44376 37.975Q294.19376 38.35 294.19376 38.81875Q294.19376 39.521873 294.725 39.990623Q295.25626 40.459373 296.2875 40.459373Q297.30313 40.459373 298.08438 40.021873Q298.88126 39.56875 299.25626 38.803123Q299.5375 38.19375 299.5375 37.0375L299.5375 36.396873ZM303.9125 41.6L303.9125 31.224998L305.50626 31.224998L305.50626 32.709373Q306.64688 30.990623 308.80313 30.990623Q309.74063 30.990623 310.52188 31.334373Q311.31876 31.662498 311.70938 32.209373Q312.1 32.75625 312.25626 33.50625Q312.35 34.00625 312.35 35.225L312.35 41.6L310.58438 41.6L310.58438 35.2875Q310.58438 34.209373 310.38126 33.678123Q310.17813 33.146873 309.64688 32.834373Q309.13126 32.521873 308.42813 32.521873Q307.30313 32.521873 306.49063 33.240623Q305.67813 33.94375 305.67813 35.928123L305.67813 41.6L303.9125 41.6ZM320.69376 37.803123L322.4125 38.021873Q322.13126 39.81875 320.95938 40.834373Q319.80313 41.834373 318.1 41.834373Q315.975 41.834373 314.67813 40.44375Q313.38126 39.053123 313.38126 36.459373Q313.38126 34.771873 313.92813 33.521873Q314.49063 32.25625 315.63126 31.631248Q316.77188 30.990623 318.11563 30.990623Q319.80313 30.990623 320.86563 31.849998Q321.94376 32.709373 322.25626 34.271873L320.5375 34.5375Q320.30313 33.490623 319.67813 32.975Q319.05313 32.44375 318.17813 32.44375Q316.85 32.44375 316.02188 33.396873Q315.19376 34.35 315.19376 36.396873Q315.19376 38.490623 315.99063 39.44375Q316.7875 40.38125 318.08438 40.38125Q319.11563 40.38125 319.80313 39.75625Q320.50626 39.115623 320.69376 37.803123ZM331.02188 38.25625L332.83438 38.490623Q332.4125 40.06875 331.24063 40.959373Q330.08438 41.834373 328.27188 41.834373Q326.00626 41.834373 324.6625 40.44375Q323.33438 39.0375 323.33438 36.50625Q323.33438 33.88125 324.67813 32.44375Q326.02188 30.990623 328.17813 30.990623Q330.25626 30.990623 331.56876 32.4125Q332.89688 33.81875 332.89688 36.396873Q332.89688 36.553123 332.88126 36.865623L325.14688 36.865623Q325.24063 38.56875 326.11563 39.475Q326.99063 40.38125 328.2875 40.38125Q329.25626 40.38125 329.92813 39.88125Q330.61563 39.365623 331.02188 38.25625ZM325.24063 35.4125L331.0375 35.4125Q330.92813 34.115623 330.38126 33.459373Q329.5375 32.44375 328.19376 32.44375Q326.99063 32.44375 326.1625 33.25625Q325.33438 34.053123 325.24063 35.4125ZM335.4125 33.225L335.4125 31.224998L337.4125 31.224998L337.4125 33.225L335.4125 33.225ZM335.4125 41.6L335.4125 39.6L337.4125 39.6L337.4125 41.6L335.4125 41.6ZM350.75626 40.021873L351.00626 41.584373Q350.27188 41.740623 349.67813 41.740623Q348.725 41.740623 348.19376 41.44375Q347.67813 41.13125 347.45938 40.646873Q347.24063 40.146873 347.24063 38.56875L347.24063 32.6L345.95938 32.6L345.95938 31.224998L347.24063 31.224998L347.24063 28.662498L348.99063 27.599998L348.99063 31.224998L350.75626 31.224998L350.75626 32.6L348.99063 32.6L348.99063 38.6625Q348.99063 39.4125 349.08438 39.63125Q349.17813 39.834373 349.38126 39.975Q349.6 40.1 349.99063 40.1Q350.27188 40.1 350.75626 40.021873ZM352.27188 36.4125Q352.27188 33.5375 353.86563 32.146873Q355.20938 30.990623 357.13126 30.990623Q359.27188 30.990623 360.61563 32.396873Q361.975 33.803123 361.975 36.271873Q361.975 38.271873 361.38126 39.428123Q360.7875 40.56875 359.63126 41.209373Q358.49063 41.834373 357.13126 41.834373Q354.94376 41.834373 353.6 40.44375Q352.27188 39.0375 352.27188 36.4125ZM354.06876 36.4125Q354.06876 38.4125 354.92813 39.396873Q355.80313 40.38125 357.13126 40.38125Q358.44376 40.38125 359.30313 39.396873Q360.17813 38.396873 360.17813 36.35Q360.17813 34.428123 359.30313 33.44375Q358.42813 32.44375 357.13126 32.44375Q355.80313 32.44375 354.92813 33.44375Q354.06876 34.428123 354.06876 36.4125ZM363.92813 41.6L363.92813 27.287498L365.69376 27.287498L365.69376 35.44375L369.85 31.224998L372.11563 31.224998L368.1625 35.06875L372.52188 41.6L370.35 41.6L366.92813 36.303123L365.69376 37.490623L365.69376 41.6L363.92813 41.6ZM373.20938 38.50625L374.95938 38.225Q375.1 39.271873 375.77188 39.834373Q376.44376 40.38125 377.64688 40.38125Q378.85 40.38125 379.42813 39.896873Q380.02188 39.396873 380.02188 38.740623Q380.02188 38.146873 379.50626 37.803123Q379.14688 37.56875 377.70938 37.209373Q375.77188 36.709373 375.02188 36.365623Q374.2875 36.00625 373.89688 35.38125Q373.50626 34.740623 373.50626 33.975Q373.50626 33.2875 373.81876 32.69375Q374.14688 32.1 374.69376 31.709373Q375.1 31.412498 375.80313 31.209373Q376.52188 30.990623 377.33438 30.990623Q378.55313 30.990623 379.475 31.349998Q380.39688 31.693748 380.83438 32.303123Q381.27188 32.896873 381.44376 33.896873L379.725 34.13125Q379.6 33.334373 379.0375 32.896873Q378.475 32.44375 377.45938 32.44375Q376.24063 32.44375 375.725 32.85Q375.20938 33.240623 375.20938 33.771873Q375.20938 34.115623 375.42813 34.396873Q375.63126 34.678123 376.1 34.865623Q376.36563 34.959373 377.64688 35.303123Q379.52188 35.803123 380.25626 36.13125Q380.99063 36.44375 381.4125 37.053123Q381.83438 37.646873 381.83438 38.553123Q381.83438 39.428123 381.31876 40.209373Q380.80313 40.990623 379.83438 41.4125Q378.86563 41.834373 377.64688 41.834373Q375.63126 41.834373 374.56876 40.990623Q373.50626 40.146873 373.20938 38.50625ZM382.6 41.85L386.75626 27.037498L388.1625 27.037498L384.02188 41.85L382.6 41.85ZM389.20938 38.50625L390.95938 38.225Q391.1 39.271873 391.77188 39.834373Q392.44376 40.38125 393.64688 40.38125Q394.85 40.38125 395.42813 39.896873Q396.02188 39.396873 396.02188 38.740623Q396.02188 38.146873 395.50626 37.803123Q395.14688 37.56875 393.70938 37.209373Q391.77188 36.709373 391.02188 36.365623Q390.2875 36.00625 389.89688 35.38125Q389.50626 34.740623 389.50626 33.975Q389.50626 33.2875 389.81876 32.69375Q390.14688 32.1 390.69376 31.709373Q391.1 31.412498 391.80313 31.209373Q392.52188 30.990623 393.33438 30.990623Q394.55313 30.990623 395.475 31.349998Q396.39688 31.693748 396.83438 32.303123Q397.27188 32.896873 397.44376 33.896873L395.725 34.13125Q395.6 33.334373 395.0375 32.896873Q394.475 32.44375 393.45938 32.44375Q392.24063 32.44375 391.725 32.85Q391.20938 33.240623 391.20938 33.771873Q391.20938 34.115623 391.42813 34.396873Q391.63126 34.678123 392.1 34.865623Q392.36563 34.959373 393.64688 35.303123Q395.52188 35.803123 396.25626 36.13125Q396.99063 36.44375 397.4125 37.053123Q397.83438 37.646873 397.83438 38.553123Q397.83438 39.428123 397.31876 40.209373Q396.80313 40.990623 395.83438 41.4125Q394.86563 41.834373 393.64688 41.834373Q391.63126 41.834373 390.56876 40.990623Q389.50626 40.146873 389.20938 38.50625ZM407.02188 38.25625L408.83438 38.490623Q408.4125 40.06875 407.24063 40.959373Q406.08438 41.834373 404.27188 41.834373Q402.00626 41.834373 400.6625 40.44375Q399.33438 39.0375 399.33438 36.50625Q399.33438 33.88125 400.67813 32.44375Q402.02188 30.990623 404.17813 30.990623Q406.25626 30.990623 407.56876 32.4125Q408.89688 33.81875 408.89688 36.396873Q408.89688 36.553123 408.88126 36.865623L401.14688 36.865623Q401.24063 38.56875 402.11563 39.475Q402.99063 40.38125 404.2875 40.38125Q405.25626 40.38125 405.92813 39.88125Q406.61563 39.365623 407.02188 38.25625ZM401.24063 35.4125L407.0375 35.4125Q406.92813 34.115623 406.38126 33.459373Q405.5375 32.44375 404.19376 32.44375Q402.99063 32.44375 402.1625 33.25625Q401.33438 34.053123 401.24063 35.4125ZM417.69376 37.803123L419.4125 38.021873Q419.13126 39.81875 417.95938 40.834373Q416.80313 41.834373 415.1 41.834373Q412.975 41.834373 411.67813 40.44375Q410.38126 39.053123 410.38126 36.459373Q410.38126 34.771873 410.92813 33.521873Q411.49063 32.25625 412.63126 31.631248Q413.77188 30.990623 415.11563 30.990623Q416.80313 30.990623 417.86563 31.849998Q418.94376 32.709373 419.25626 34.271873L417.5375 34.5375Q417.30313 33.490623 416.67813 32.975Q416.05313 32.44375 415.17813 32.44375Q413.85 32.44375 413.02188 33.396873Q412.19376 34.35 412.19376 36.396873Q412.19376 38.490623 412.99063 39.44375Q413.7875 40.38125 415.08438 40.38125Q416.11563 40.38125 416.80313 39.75625Q417.50626 39.115623 417.69376 37.803123Z" fill-rule="nonzero"/></svg>