<svg version="1.1" viewBox="0.0 0.0 731.0 452.0" fill="none" stroke="none" stroke-linecap="square" stroke-miterlimit="10" width="731" height="452" xmlns:xlink="http://www.w3.org/1999/xlink" xmlns="http://www.w3.org/2000/svg"><path fill="#ffffff" d="M0 0L731.0 0L731.0 452.0L0 452.0L0 0Z" fill-rule="nonzero"/><path stroke="#333333" stroke-width="1.0" stroke-linecap="butt" d="M57.5 402.5L708.5 402.5" fill-rule="nonzero"/><path stroke="#cccccc" stroke-width="1.0" stroke-linecap="butt" d="M57.5 328.5L708.5 328.5" fill-rule="nonzero"/><path stroke="#cccccc" stroke-width="1.0" stroke-linecap="butt" d="M57.5 253.5L708.5 253.5" fill-rule="nonzero"/><path stroke="#cccccc" stroke-width="1.0" stroke-linecap="butt" d="M57.5 179.5L708.5 179.5" fill-rule="nonzero"/><path stroke="#cccccc" stroke-width="1.0" stroke-linecap="butt" d="M57.5 105.5L708.5 105.5" fill-rule="nonzero"/><clipPath id="id_0"><path d="M57.6 105.23333L708.4 105.23333L708.4 402.4L57.6 402.4L57.6 105.23333Z" clip-rule="nonzero"/></clipPath><path stroke="#000000" stroke-width="2.0" stroke-linecap="butt" stroke-opacity="0.0" clip-path="url(#id_0)" d="M244.0 402.0L156.0 402.0L156.0 160.0C156.0 158.89543 156.89543 158.0 158.0 158.0L242.0 158.0C243.10457 158.0 244.0 158.89543 244.0 160.0Z" fill-rule="nonzero"/><path fill="#93c47d" clip-path="url(#id_0)" d="M244.0 402.0L156.0 402.0L156.0 160.0C156.0 158.89543 156.89543 158.0 158.0 158.0L242.0 158.0C243.10457 158.0 244.0 158.89543 244.0 160.0Z" fill-rule="nonzero"/><path stroke="#000000" stroke-width="2.0" stroke-linecap="butt" stroke-opacity="0.0" clip-path="url(#id_0)" d="M520.0 402.0L432.0 402.0L432.0 264.0C432.0 262.89542 432.89542 262.0 434.0 262.0L518.0 262.0C519.10455 262.0 520.0 262.89542 520.0 264.0Z" fill-rule="nonzero"/><path fill="#93c47d" clip-path="url(#id_0)" d="M520.0 402.0L432.0 402.0L432.0 264.0C432.0 262.89542 432.89542 262.0 434.0 262.0L518.0 262.0C519.10455 262.0 520.0 262.89542 520.0 264.0Z" fill-rule="nonzero"/><path stroke="#000000" stroke-width="2.0" stroke-linecap="butt" stroke-opacity="0.0" clip-path="url(#id_0)" d="M334.0 402.0L246.0 402.0L246.0 205.0C246.0 203.89543 246.89543 203.0 248.0 203.0L332.0 203.0C333.10458 203.0 334.0 203.89543 334.0 205.0Z" fill-rule="nonzero"/><path fill="#ea4335" clip-path="url(#id_0)" d="M334.0 402.0L246.0 402.0L246.0 205.0C246.0 203.89543 246.89543 203.0 248.0 203.0L332.0 203.0C333.10458 203.0 334.0 203.89543 334.0 205.0Z" fill-rule="nonzero"/><path stroke="#000000" stroke-width="2.0" stroke-linecap="butt" stroke-opacity="0.0" clip-path="url(#id_0)" d="M610.0 402.0L522.0 402.0L522.0 293.0C522.0 291.89542 522.89545 291.0 524.0 291.0L608.0 291.0C609.10455 291.0 610.0 291.89542 610.0 293.0Z" fill-rule="nonzero"/><path fill="#ea4335" clip-path="url(#id_0)" d="M610.0 402.0L522.0 402.0L522.0 293.0C522.0 291.89542 522.89545 291.0 524.0 291.0L608.0 291.0C609.10455 291.0 610.0 291.89542 610.0 293.0Z" fill-rule="nonzero"/><path stroke="#93c47d" stroke-width="3.0" stroke-linejoin="round" stroke-linecap="round" d="M185.70312 179.67758L184.25 179.67758L184.25 170.03696L181.32812 171.11508L181.32812 169.80258L185.46875 168.24008L185.70312 168.24008L185.70312 179.67758ZM195.625 168.28696L195.625 169.52133L195.35938 169.52133Q193.67188 169.55258 192.67188 170.52133Q191.67188 171.49008 191.51562 173.24008Q192.40625 172.20883 193.96875 172.20883Q195.45312 172.20883 196.32812 173.2557Q197.21875 174.30258 197.21875 175.95883Q197.21875 177.72446 196.26562 178.78696Q195.3125 179.83383 193.70312 179.83383Q192.0625 179.83383 191.04688 178.58383Q190.03125 177.3182 190.03125 175.34946L190.03125 174.78696Q190.03125 171.64633 191.375 169.99008Q192.71875 168.33383 195.35938 168.28696L195.625 168.28696ZM193.71875 173.41196Q192.98438 173.41196 192.35938 173.86508Q191.73438 174.30258 191.48438 174.97446L191.48438 175.5057Q191.48438 176.91196 192.10938 177.77133Q192.75 178.6307 193.70312 178.6307Q194.67188 178.6307 195.23438 177.91196Q195.79688 177.1932 195.79688 176.03696Q195.79688 174.86508 195.21875 174.14633Q194.65625 173.41196 193.71875 173.41196ZM205.04688 175.84946L206.625 175.84946L206.625 177.03696L205.04688 177.03696L205.04688 179.67758L203.59375 179.67758L203.59375 177.03696L198.42188 177.03696L198.42188 176.17758L203.51562 168.30258L205.04688 168.30258L205.04688 175.84946ZM200.0625 175.84946L203.59375 175.84946L203.59375 170.27133L203.42188 170.58383L200.0625 175.84946ZM208.125 178.91196Q208.125 178.53696 208.34375 178.28696Q208.57812 178.03696 209.01562 178.03696Q209.46875 178.03696 209.6875 178.28696Q209.92188 178.53696 209.92188 178.91196Q209.92188 179.27133 209.6875 179.52133Q209.46875 179.77133 209.01562 179.77133Q208.57812 179.77133 208.34375 179.52133Q208.125 179.27133 208.125 178.91196ZM214.04688 173.28696L215.14062 173.28696Q216.15625 173.27133 216.73438 172.7557Q217.32812 172.22446 217.32812 171.33383Q217.32812 169.33383 215.34375 169.33383Q214.40625 169.33383 213.84375 169.86508Q213.28125 170.39633 213.28125 171.28696L211.84375 171.28696Q211.84375 169.92758 212.82812 169.03696Q213.8125 168.14633 215.34375 168.14633Q216.95312 168.14633 217.85938 169.0057Q218.78125 169.84946 218.78125 171.36508Q218.78125 172.09946 218.29688 172.80258Q217.8125 173.49008 216.98438 173.83383Q217.92188 174.1307 218.4375 174.8182Q218.95312 175.5057 218.95312 176.5057Q218.95312 178.03696 217.95312 178.9432Q216.95312 179.83383 215.34375 179.83383Q213.75 179.83383 212.73438 178.97446Q211.73438 178.09946 211.73438 176.67758L213.1875 176.67758Q213.1875 177.5682 213.76562 178.11508Q214.35938 178.64633 215.34375 178.64633Q216.39062 178.64633 216.9375 178.09946Q217.5 177.55258 217.5 176.53696Q217.5 175.53696 216.89062 175.0057Q216.28125 174.47446 215.14062 174.45883L214.04688 174.45883L214.04688 173.28696Z" fill-rule="nonzero"/><path fill="#ffffff" d="M185.70312 179.67758L184.25 179.67758L184.25 170.03696L181.32812 171.11508L181.32812 169.80258L185.46875 168.24008L185.70312 168.24008L185.70312 179.67758ZM195.625 168.28696L195.625 169.52133L195.35938 169.52133Q193.67188 169.55258 192.67188 170.52133Q191.67188 171.49008 191.51562 173.24008Q192.40625 172.20883 193.96875 172.20883Q195.45312 172.20883 196.32812 173.2557Q197.21875 174.30258 197.21875 175.95883Q197.21875 177.72446 196.26562 178.78696Q195.3125 179.83383 193.70312 179.83383Q192.0625 179.83383 191.04688 178.58383Q190.03125 177.3182 190.03125 175.34946L190.03125 174.78696Q190.03125 171.64633 191.375 169.99008Q192.71875 168.33383 195.35938 168.28696L195.625 168.28696ZM193.71875 173.41196Q192.98438 173.41196 192.35938 173.86508Q191.73438 174.30258 191.48438 174.97446L191.48438 175.5057Q191.48438 176.91196 192.10938 177.77133Q192.75 178.6307 193.70312 178.6307Q194.67188 178.6307 195.23438 177.91196Q195.79688 177.1932 195.79688 176.03696Q195.79688 174.86508 195.21875 174.14633Q194.65625 173.41196 193.71875 173.41196ZM205.04688 175.84946L206.625 175.84946L206.625 177.03696L205.04688 177.03696L205.04688 179.67758L203.59375 179.67758L203.59375 177.03696L198.42188 177.03696L198.42188 176.17758L203.51562 168.30258L205.04688 168.30258L205.04688 175.84946ZM200.0625 175.84946L203.59375 175.84946L203.59375 170.27133L203.42188 170.58383L200.0625 175.84946ZM208.125 178.91196Q208.125 178.53696 208.34375 178.28696Q208.57812 178.03696 209.01562 178.03696Q209.46875 178.03696 209.6875 178.28696Q209.92188 178.53696 209.92188 178.91196Q209.92188 179.27133 209.6875 179.52133Q209.46875 179.77133 209.01562 179.77133Q208.57812 179.77133 208.34375 179.52133Q208.125 179.27133 208.125 178.91196ZM214.04688 173.28696L215.14062 173.28696Q216.15625 173.27133 216.73438 172.7557Q217.32812 172.22446 217.32812 171.33383Q217.32812 169.33383 215.34375 169.33383Q214.40625 169.33383 213.84375 169.86508Q213.28125 170.39633 213.28125 171.28696L211.84375 171.28696Q211.84375 169.92758 212.82812 169.03696Q213.8125 168.14633 215.34375 168.14633Q216.95312 168.14633 217.85938 169.0057Q218.78125 169.84946 218.78125 171.36508Q218.78125 172.09946 218.29688 172.80258Q217.8125 173.49008 216.98438 173.83383Q217.92188 174.1307 218.4375 174.8182Q218.95312 175.5057 218.95312 176.5057Q218.95312 178.03696 217.95312 178.9432Q216.95312 179.83383 215.34375 179.83383Q213.75 179.83383 212.73438 178.97446Q211.73438 178.09946 211.73438 176.67758L213.1875 176.67758Q213.1875 177.5682 213.76562 178.11508Q214.35938 178.64633 215.34375 178.64633Q216.39062 178.64633 216.9375 178.09946Q217.5 177.55258 217.5 176.53696Q217.5 175.53696 216.89062 175.0057Q216.28125 174.47446 215.14062 174.45883L214.04688 174.45883L214.04688 173.28696Z" fill-rule="nonzero"/><path stroke="#93c47d" stroke-width="3.0" stroke-linejoin="round" stroke-linecap="round" d="M466.98438 278.53732Q466.53125 279.06857 465.90625 279.3967Q465.28125 279.72482 464.53125 279.72482Q463.54688 279.72482 462.8125 279.24045Q462.07812 278.75607 461.67188 277.88107Q461.28125 277.00607 461.28125 275.94357Q461.28125 274.80295 461.71875 273.8967Q462.15625 272.97482 462.95312 272.49045Q463.75 272.00607 464.8125 272.00607Q466.5 272.00607 467.46875 273.2717Q468.4375 274.5217 468.4375 276.7092L468.4375 277.13107Q468.4375 280.44357 467.125 281.97482Q465.8125 283.50607 463.17188 283.55295L462.89062 283.55295L462.89062 282.31857L463.1875 282.31857Q464.98438 282.28732 465.9375 281.3967Q466.90625 280.49045 466.98438 278.53732ZM464.76562 278.53732Q465.48438 278.53732 466.09375 278.09982Q466.71875 277.6467 467.0 276.99045L467.0 276.41232Q467.0 274.99045 466.375 274.09982Q465.76562 273.2092 464.8125 273.2092Q463.85938 273.2092 463.28125 273.94357Q462.70312 274.66232 462.70312 275.86545Q462.70312 277.0217 463.26562 277.78732Q463.82812 278.53732 464.76562 278.53732ZM476.54688 279.7092L478.125 279.7092L478.125 280.8967L476.54688 280.8967L476.54688 283.53732L475.09375 283.53732L475.09375 280.8967L469.92188 280.8967L469.92188 280.03732L475.01562 272.16232L476.54688 272.16232L476.54688 279.7092ZM471.5625 279.7092L475.09375 279.7092L475.09375 274.13107L474.92188 274.44357L471.5625 279.7092ZM479.625 282.7717Q479.625 282.3967 479.84375 282.1467Q480.07812 281.8967 480.51562 281.8967Q480.96875 281.8967 481.1875 282.1467Q481.42188 282.3967 481.42188 282.7717Q481.42188 283.13107 481.1875 283.38107Q480.96875 283.63107 480.51562 283.63107Q480.07812 283.63107 479.84375 283.38107Q479.625 283.13107 479.625 282.7717ZM489.54688 279.7092L491.125 279.7092L491.125 280.8967L489.54688 280.8967L489.54688 283.53732L488.09375 283.53732L488.09375 280.8967L482.92188 280.8967L482.92188 280.03732L488.01562 272.16232L489.54688 272.16232L489.54688 279.7092ZM484.5625 279.7092L488.09375 279.7092L488.09375 274.13107L487.92188 274.44357L484.5625 279.7092Z" fill-rule="nonzero"/><path fill="#ffffff" d="M466.98438 278.53732Q466.53125 279.06857 465.90625 279.3967Q465.28125 279.72482 464.53125 279.72482Q463.54688 279.72482 462.8125 279.24045Q462.07812 278.75607 461.67188 277.88107Q461.28125 277.00607 461.28125 275.94357Q461.28125 274.80295 461.71875 273.8967Q462.15625 272.97482 462.95312 272.49045Q463.75 272.00607 464.8125 272.00607Q466.5 272.00607 467.46875 273.2717Q468.4375 274.5217 468.4375 276.7092L468.4375 277.13107Q468.4375 280.44357 467.125 281.97482Q465.8125 283.50607 463.17188 283.55295L462.89062 283.55295L462.89062 282.31857L463.1875 282.31857Q464.98438 282.28732 465.9375 281.3967Q466.90625 280.49045 466.98438 278.53732ZM464.76562 278.53732Q465.48438 278.53732 466.09375 278.09982Q466.71875 277.6467 467.0 276.99045L467.0 276.41232Q467.0 274.99045 466.375 274.09982Q465.76562 273.2092 464.8125 273.2092Q463.85938 273.2092 463.28125 273.94357Q462.70312 274.66232 462.70312 275.86545Q462.70312 277.0217 463.26562 277.78732Q463.82812 278.53732 464.76562 278.53732ZM476.54688 279.7092L478.125 279.7092L478.125 280.8967L476.54688 280.8967L476.54688 283.53732L475.09375 283.53732L475.09375 280.8967L469.92188 280.8967L469.92188 280.03732L475.01562 272.16232L476.54688 272.16232L476.54688 279.7092ZM471.5625 279.7092L475.09375 279.7092L475.09375 274.13107L474.92188 274.44357L471.5625 279.7092ZM479.625 282.7717Q479.625 282.3967 479.84375 282.1467Q480.07812 281.8967 480.51562 281.8967Q480.96875 281.8967 481.1875 282.1467Q481.42188 282.3967 481.42188 282.7717Q481.42188 283.13107 481.1875 283.38107Q480.96875 283.63107 480.51562 283.63107Q480.07812 283.63107 479.84375 283.38107Q479.625 283.13107 479.625 282.7717ZM489.54688 279.7092L491.125 279.7092L491.125 280.8967L489.54688 280.8967L489.54688 283.53732L488.09375 283.53732L488.09375 280.8967L482.92188 280.8967L482.92188 280.03732L488.01562 272.16232L489.54688 272.16232L489.54688 279.7092ZM484.5625 279.7092L488.09375 279.7092L488.09375 274.13107L487.92188 274.44357L484.5625 279.7092Z" fill-rule="nonzero"/><path stroke="#ea4335" stroke-width="3.0" stroke-linejoin="round" stroke-linecap="round" d="M275.70312 224.25258L274.25 224.25258L274.25 214.61195L271.32812 215.69008L271.32812 214.37758L275.46875 212.81508L275.70312 212.81508L275.70312 224.25258ZM282.04688 217.86195L283.14062 217.86195Q284.15625 217.84633 284.73438 217.3307Q285.32812 216.79945 285.32812 215.90883Q285.32812 213.90883 283.34375 213.90883Q282.40625 213.90883 281.84375 214.44008Q281.28125 214.97133 281.28125 215.86195L279.84375 215.86195Q279.84375 214.50258 280.82812 213.61195Q281.8125 212.72133 283.34375 212.72133Q284.95312 212.72133 285.85938 213.5807Q286.78125 214.42445 286.78125 215.94008Q286.78125 216.67445 286.29688 217.37758Q285.8125 218.06508 284.98438 218.40883Q285.92188 218.7057 286.4375 219.3932Q286.95312 220.0807 286.95312 221.0807Q286.95312 222.61195 285.95312 223.5182Q284.95312 224.40883 283.34375 224.40883Q281.75 224.40883 280.73438 223.54945Q279.73438 222.67445 279.73438 221.25258L281.1875 221.25258Q281.1875 222.1432 281.76562 222.69008Q282.35938 223.22133 283.34375 223.22133Q284.39062 223.22133 284.9375 222.67445Q285.5 222.12758 285.5 221.11195Q285.5 220.11195 284.89062 219.5807Q284.28125 219.04945 283.14062 219.03383L282.04688 219.03383L282.04688 217.86195ZM295.04688 220.42445L296.625 220.42445L296.625 221.61195L295.04688 221.61195L295.04688 224.25258L293.59375 224.25258L293.59375 221.61195L288.42188 221.61195L288.42188 220.75258L293.51562 212.87758L295.04688 212.87758L295.04688 220.42445ZM290.0625 220.42445L293.59375 220.42445L293.59375 214.84633L293.42188 215.15883L290.0625 220.42445ZM298.125 223.48695Q298.125 223.11195 298.34375 222.86195Q298.57812 222.61195 299.01562 222.61195Q299.46875 222.61195 299.6875 222.86195Q299.92188 223.11195 299.92188 223.48695Q299.92188 223.84633 299.6875 224.09633Q299.46875 224.34633 299.01562 224.34633Q298.57812 224.34633 298.34375 224.09633Q298.125 223.84633 298.125 223.48695ZM304.04688 217.86195L305.14062 217.86195Q306.15625 217.84633 306.73438 217.3307Q307.32812 216.79945 307.32812 215.90883Q307.32812 213.90883 305.34375 213.90883Q304.40625 213.90883 303.84375 214.44008Q303.28125 214.97133 303.28125 215.86195L301.84375 215.86195Q301.84375 214.50258 302.82812 213.61195Q303.8125 212.72133 305.34375 212.72133Q306.95312 212.72133 307.85938 213.5807Q308.78125 214.42445 308.78125 215.94008Q308.78125 216.67445 308.29688 217.37758Q307.8125 218.06508 306.98438 218.40883Q307.92188 218.7057 308.4375 219.3932Q308.95312 220.0807 308.95312 221.0807Q308.95312 222.61195 307.95312 223.5182Q306.95312 224.40883 305.34375 224.40883Q303.75 224.40883 302.73438 223.54945Q301.73438 222.67445 301.73438 221.25258L303.1875 221.25258Q303.1875 222.1432 303.76562 222.69008Q304.35938 223.22133 305.34375 223.22133Q306.39062 223.22133 306.9375 222.67445Q307.5 222.12758 307.5 221.11195Q307.5 220.11195 306.89062 219.5807Q306.28125 219.04945 305.14062 219.03383L304.04688 219.03383L304.04688 217.86195Z" fill-rule="nonzero"/><path fill="#ffffff" d="M275.70312 224.25258L274.25 224.25258L274.25 214.61195L271.32812 215.69008L271.32812 214.37758L275.46875 212.81508L275.70312 212.81508L275.70312 224.25258ZM282.04688 217.86195L283.14062 217.86195Q284.15625 217.84633 284.73438 217.3307Q285.32812 216.79945 285.32812 215.90883Q285.32812 213.90883 283.34375 213.90883Q282.40625 213.90883 281.84375 214.44008Q281.28125 214.97133 281.28125 215.86195L279.84375 215.86195Q279.84375 214.50258 280.82812 213.61195Q281.8125 212.72133 283.34375 212.72133Q284.95312 212.72133 285.85938 213.5807Q286.78125 214.42445 286.78125 215.94008Q286.78125 216.67445 286.29688 217.37758Q285.8125 218.06508 284.98438 218.40883Q285.92188 218.7057 286.4375 219.3932Q286.95312 220.0807 286.95312 221.0807Q286.95312 222.61195 285.95312 223.5182Q284.95312 224.40883 283.34375 224.40883Q281.75 224.40883 280.73438 223.54945Q279.73438 222.67445 279.73438 221.25258L281.1875 221.25258Q281.1875 222.1432 281.76562 222.69008Q282.35938 223.22133 283.34375 223.22133Q284.39062 223.22133 284.9375 222.67445Q285.5 222.12758 285.5 221.11195Q285.5 220.11195 284.89062 219.5807Q284.28125 219.04945 283.14062 219.03383L282.04688 219.03383L282.04688 217.86195ZM295.04688 220.42445L296.625 220.42445L296.625 221.61195L295.04688 221.61195L295.04688 224.25258L293.59375 224.25258L293.59375 221.61195L288.42188 221.61195L288.42188 220.75258L293.51562 212.87758L295.04688 212.87758L295.04688 220.42445ZM290.0625 220.42445L293.59375 220.42445L293.59375 214.84633L293.42188 215.15883L290.0625 220.42445ZM298.125 223.48695Q298.125 223.11195 298.34375 222.86195Q298.57812 222.61195 299.01562 222.61195Q299.46875 222.61195 299.6875 222.86195Q299.92188 223.11195 299.92188 223.48695Q299.92188 223.84633 299.6875 224.09633Q299.46875 224.34633 299.01562 224.34633Q298.57812 224.34633 298.34375 224.09633Q298.125 223.84633 298.125 223.48695ZM304.04688 217.86195L305.14062 217.86195Q306.15625 217.84633 306.73438 217.3307Q307.32812 216.79945 307.32812 215.90883Q307.32812 213.90883 305.34375 213.90883Q304.40625 213.90883 303.84375 214.44008Q303.28125 214.97133 303.28125 215.86195L301.84375 215.86195Q301.84375 214.50258 302.82812 213.61195Q303.8125 212.72133 305.34375 212.72133Q306.95312 212.72133 307.85938 213.5807Q308.78125 214.42445 308.78125 215.94008Q308.78125 216.67445 308.29688 217.37758Q307.8125 218.06508 306.98438 218.40883Q307.92188 218.7057 308.4375 219.3932Q308.95312 220.0807 308.95312 221.0807Q308.95312 222.61195 307.95312 223.5182Q306.95312 224.40883 305.34375 224.40883Q303.75 224.40883 302.73438 223.54945Q301.73438 222.67445 301.73438 221.25258L303.1875 221.25258Q303.1875 222.1432 303.76562 222.69008Q304.35938 223.22133 305.34375 223.22133Q306.39062 223.22133 306.9375 222.67445Q307.5 222.12758 307.5 221.11195Q307.5 220.11195 306.89062 219.5807Q306.28125 219.04945 305.14062 219.03383L304.04688 219.03383L304.04688 217.86195Z" fill-rule="nonzero"/><path stroke="#ea4335" stroke-width="3.0" stroke-linejoin="round" stroke-linecap="round" d="M558.7969 301.50284L554.0781 312.06534L552.5625 312.06534L557.2656 301.87784L551.1094 301.87784L551.1094 300.69034L558.7969 300.69034L558.7969 301.50284ZM561.1094 306.3622L561.6875 300.69034L567.5156 300.69034L567.5156 302.01846L562.9219 302.01846L562.5781 305.12784Q563.40625 304.62784 564.46875 304.62784Q566.03125 304.62784 566.9375 305.6591Q567.8594 306.69034 567.8594 308.44034Q567.8594 310.19034 566.90625 311.20596Q565.9531 312.2216 564.25 312.2216Q562.75 312.2216 561.7969 311.39346Q560.84375 310.5497 560.7031 309.06534L562.0781 309.06534Q562.2031 310.0497 562.7656 310.5497Q563.3281 311.0341 564.25 311.0341Q565.2656 311.0341 565.8281 310.3466Q566.40625 309.6591 566.40625 308.45596Q566.40625 307.31534 565.78125 306.62784Q565.1719 305.9247 564.1406 305.9247Q563.1875 305.9247 562.65625 306.3466L562.2656 306.6591L561.1094 306.3622ZM569.625 311.2997Q569.625 310.9247 569.84375 310.6747Q570.0781 310.4247 570.5156 310.4247Q570.96875 310.4247 571.1875 310.6747Q571.4219 310.9247 571.4219 311.2997Q571.4219 311.6591 571.1875 311.9091Q570.96875 312.1591 570.5156 312.1591Q570.0781 312.1591 569.84375 311.9091Q569.625 311.6591 569.625 311.2997ZM580.90625 312.06534L573.4531 312.06534L573.4531 311.01846L577.3906 306.64346Q578.2656 305.6591 578.59375 305.0341Q578.9219 304.4091 578.9219 303.75284Q578.9219 302.8622 578.375 302.2997Q577.84375 301.7216 576.9531 301.7216Q575.875 301.7216 575.2656 302.33096Q574.6719 302.94034 574.6719 304.0341L573.2344 304.0341Q573.2344 302.4716 574.2344 301.50284Q575.25 300.5341 576.9531 300.5341Q578.53125 300.5341 579.4531 301.3622Q580.375 302.19034 580.375 303.58096Q580.375 305.25284 578.2344 307.58096L575.1875 310.87784L580.90625 310.87784L580.90625 312.06534Z" fill-rule="nonzero"/><path fill="#ffffff" d="M558.7969 301.50284L554.0781 312.06534L552.5625 312.06534L557.2656 301.87784L551.1094 301.87784L551.1094 300.69034L558.7969 300.69034L558.7969 301.50284ZM561.1094 306.3622L561.6875 300.69034L567.5156 300.69034L567.5156 302.01846L562.9219 302.01846L562.5781 305.12784Q563.40625 304.62784 564.46875 304.62784Q566.03125 304.62784 566.9375 305.6591Q567.8594 306.69034 567.8594 308.44034Q567.8594 310.19034 566.90625 311.20596Q565.9531 312.2216 564.25 312.2216Q562.75 312.2216 561.7969 311.39346Q560.84375 310.5497 560.7031 309.06534L562.0781 309.06534Q562.2031 310.0497 562.7656 310.5497Q563.3281 311.0341 564.25 311.0341Q565.2656 311.0341 565.8281 310.3466Q566.40625 309.6591 566.40625 308.45596Q566.40625 307.31534 565.78125 306.62784Q565.1719 305.9247 564.1406 305.9247Q563.1875 305.9247 562.65625 306.3466L562.2656 306.6591L561.1094 306.3622ZM569.625 311.2997Q569.625 310.9247 569.84375 310.6747Q570.0781 310.4247 570.5156 310.4247Q570.96875 310.4247 571.1875 310.6747Q571.4219 310.9247 571.4219 311.2997Q571.4219 311.6591 571.1875 311.9091Q570.96875 312.1591 570.5156 312.1591Q570.0781 312.1591 569.84375 311.9091Q569.625 311.6591 569.625 311.2997ZM580.90625 312.06534L573.4531 312.06534L573.4531 311.01846L577.3906 306.64346Q578.2656 305.6591 578.59375 305.0341Q578.9219 304.4091 578.9219 303.75284Q578.9219 302.8622 578.375 302.2997Q577.84375 301.7216 576.9531 301.7216Q575.875 301.7216 575.2656 302.33096Q574.6719 302.94034 574.6719 304.0341L573.2344 304.0341Q573.2344 302.4716 574.2344 301.50284Q575.25 300.5341 576.9531 300.5341Q578.53125 300.5341 579.4531 301.3622Q580.375 302.19034 580.375 303.58096Q580.375 305.25284 578.2344 307.58096L575.1875 310.87784L580.90625 310.87784L580.90625 312.06534Z" fill-rule="nonzero"/><path fill="#000000" d="M41.271873 402.24374Q41.271873 400.2125 41.678123 398.97812Q42.1 397.74374 42.928123 397.07187Q43.75625 396.4 45.00625 396.4Q45.928123 396.4 46.615623 396.775Q47.31875 397.13437 47.771873 397.8375Q48.225 398.54062 48.475 399.54062Q48.740623 400.54062 48.740623 402.24374Q48.740623 404.25937 48.31875 405.50937Q47.9125 406.74374 47.084373 407.43124Q46.25625 408.10312 45.00625 408.10312Q43.35 408.10312 42.396873 406.9Q41.271873 405.47812 41.271873 402.24374ZM42.709373 402.24374Q42.709373 405.07187 43.365623 406.00937Q44.0375 406.93124 45.00625 406.93124Q45.975 406.93124 46.63125 405.99374Q47.2875 405.05624 47.2875 402.24374Q47.2875 399.41562 46.63125 398.49374Q45.975 397.55624 44.990623 397.55624Q44.021873 397.55624 43.44375 398.38437Q42.709373 399.43124 42.709373 402.24374Z" fill-rule="nonzero"/><path fill="#000000" d="M32.271873 330.60834L33.740623 330.48334Q33.9125 331.56146 34.50625 332.10834Q35.1 332.6396 35.94375 332.6396Q36.959373 332.6396 37.6625 331.87396Q38.365623 331.10834 38.365623 329.8427Q38.365623 328.6396 37.69375 327.9521Q37.021873 327.24896 35.928123 327.24896Q35.240623 327.24896 34.69375 327.56146Q34.146873 327.87396 33.834373 328.35834L32.521873 328.18646L33.63125 322.31146L39.31875 322.31146L39.31875 323.6552L34.75625 323.6552L34.13125 326.73334Q35.1625 326.0146 36.303123 326.0146Q37.803123 326.0146 38.834373 327.06146Q39.865623 328.0927 39.865623 329.7177Q39.865623 331.2802 38.959373 332.4052Q37.85 333.81146 35.94375 333.81146Q34.38125 333.81146 33.396873 332.93646Q32.4125 332.04584 32.271873 330.60834ZM41.271873 327.9521Q41.271873 325.92084 41.678123 324.68646Q42.1 323.4521 42.928123 322.7802Q43.75625 322.10834 45.00625 322.10834Q45.928123 322.10834 46.615623 322.48334Q47.31875 322.8427 47.771873 323.54584Q48.225 324.24896 48.475 325.24896Q48.740623 326.24896 48.740623 327.9521Q48.740623 329.9677 48.31875 331.2177Q47.9125 332.4521 47.084373 333.1396Q46.25625 333.81146 45.00625 333.81146Q43.35 333.81146 42.396873 332.60834Q41.271873 331.18646 41.271873 327.9521ZM42.709373 327.9521Q42.709373 330.7802 43.365623 331.7177Q44.0375 332.6396 45.00625 332.6396Q45.975 332.6396 46.63125 331.7021Q47.2875 330.7646 47.2875 327.9521Q47.2875 325.12396 46.63125 324.2021Q45.975 323.2646 44.990623 323.2646Q44.021873 323.2646 43.44375 324.0927Q42.709373 325.1396 42.709373 327.9521Z" fill-rule="nonzero"/><path fill="#000000" d="M28.56875 259.31668L27.1625 259.31668L27.1625 250.34793Q26.646875 250.8323 25.81875 251.31668Q25.00625 251.80106 24.35 252.05106L24.35 250.69168Q25.521875 250.12918 26.396875 249.34793Q27.2875 248.55106 27.6625 247.81668L28.56875 247.81668L28.56875 259.31668ZM32.271873 253.66043Q32.271873 251.62918 32.678123 250.3948Q33.1 249.16043 33.928123 248.48856Q34.75625 247.81668 36.00625 247.81668Q36.928123 247.81668 37.615623 248.19168Q38.31875 248.55106 38.771873 249.25418Q39.225 249.9573 39.475 250.9573Q39.740623 251.9573 39.740623 253.66043Q39.740623 255.67606 39.31875 256.92606Q38.9125 258.16043 38.084373 258.84793Q37.25625 259.5198 36.00625 259.5198Q34.35 259.5198 33.396873 258.31668Q32.271873 256.8948 32.271873 253.66043ZM33.709373 253.66043Q33.709373 256.48856 34.365623 257.42606Q35.0375 258.34793 36.00625 258.34793Q36.975 258.34793 37.63125 257.41043Q38.2875 256.47293 38.2875 253.66043Q38.2875 250.8323 37.63125 249.91043Q36.975 248.97293 35.990623 248.97293Q35.021873 248.97293 34.44375 249.80106Q33.709373 250.84793 33.709373 253.66043ZM41.271873 253.66043Q41.271873 251.62918 41.678123 250.3948Q42.1 249.16043 42.928123 248.48856Q43.75625 247.81668 45.00625 247.81668Q45.928123 247.81668 46.615623 248.19168Q47.31875 248.55106 47.771873 249.25418Q48.225 249.9573 48.475 250.9573Q48.740623 251.9573 48.740623 253.66043Q48.740623 255.67606 48.31875 256.92606Q47.9125 258.16043 47.084373 258.84793Q46.25625 259.5198 45.00625 259.5198Q43.35 259.5198 42.396873 258.31668Q41.271873 256.8948 41.271873 253.66043ZM42.709373 253.66043Q42.709373 256.48856 43.365623 257.42606Q44.0375 258.34793 45.00625 258.34793Q45.975 258.34793 46.63125 257.41043Q47.2875 256.47293 47.2875 253.66043Q47.2875 250.8323 46.63125 249.91043Q45.975 248.97293 44.990623 248.97293Q44.021873 248.97293 43.44375 249.80106Q42.709373 250.84793 42.709373 253.66043Z" fill-rule="nonzero"/><path fill="#000000" d="M28.56875 185.025L27.1625 185.025L27.1625 176.05624Q26.646875 176.54062 25.81875 177.025Q25.00625 177.50937 24.35 177.75937L24.35 176.4Q25.521875 175.8375 26.396875 175.05624Q27.2875 174.25937 27.6625 173.525L28.56875 173.525L28.56875 185.025ZM32.271873 182.025L33.740623 181.9Q33.9125 182.97812 34.50625 183.525Q35.1 184.05624 35.94375 184.05624Q36.959373 184.05624 37.6625 183.29062Q38.365623 182.525 38.365623 181.25937Q38.365623 180.05624 37.69375 179.36874Q37.021873 178.66562 35.928123 178.66562Q35.240623 178.66562 34.69375 178.97812Q34.146873 179.29062 33.834373 179.775L32.521873 179.60312L33.63125 173.72812L39.31875 173.72812L39.31875 175.07187L34.75625 175.07187L34.13125 178.15Q35.1625 177.43124 36.303123 177.43124Q37.803123 177.43124 38.834373 178.47812Q39.865623 179.50937 39.865623 181.13437Q39.865623 182.69687 38.959373 183.82187Q37.85 185.22812 35.94375 185.22812Q34.38125 185.22812 33.396873 184.35312Q32.4125 183.4625 32.271873 182.025ZM41.271873 179.36874Q41.271873 177.3375 41.678123 176.10312Q42.1 174.86874 42.928123 174.19687Q43.75625 173.525 45.00625 173.525Q45.928123 173.525 46.615623 173.9Q47.31875 174.25937 47.771873 174.9625Q48.225 175.66562 48.475 176.66562Q48.740623 177.66562 48.740623 179.36874Q48.740623 181.38437 48.31875 182.63437Q47.9125 183.86874 47.084373 184.55624Q46.25625 185.22812 45.00625 185.22812Q43.35 185.22812 42.396873 184.025Q41.271873 182.60312 41.271873 179.36874ZM42.709373 179.36874Q42.709373 182.19687 43.365623 183.13437Q44.0375 184.05624 45.00625 184.05624Q45.975 184.05624 46.63125 183.11874Q47.2875 182.18124 47.2875 179.36874Q47.2875 176.54062 46.63125 175.61874Q45.975 174.68124 44.990623 174.68124Q44.021873 174.68124 43.44375 175.50937Q42.709373 176.55624 42.709373 179.36874Z" fill-rule="nonzero"/><path fill="#000000" d="M30.6625 109.373955L30.6625 110.73333L23.084375 110.73333Q23.06875 110.217705 23.25625 109.748955Q23.5375 108.98333 24.178125 108.23333Q24.81875 107.48333 26.021875 106.498955Q27.88125 104.967705 28.5375 104.07708Q29.19375 103.17083 29.19375 102.373955Q29.19375 101.54583 28.6 100.967705Q28.00625 100.38958 27.0375 100.38958Q26.021875 100.38958 25.4125 100.998955Q24.803125 101.60833 24.803125 102.686455L23.35 102.54583Q23.50625 100.92083 24.475 100.07708Q25.44375 99.23333 27.06875 99.23333Q28.725 99.23333 29.678125 100.155205Q30.646875 101.061455 30.646875 102.405205Q30.646875 103.092705 30.365625 103.76458Q30.084375 104.42083 29.428125 105.155205Q28.771875 105.88958 27.25625 107.17083Q25.990625 108.23333 25.63125 108.623955Q25.271875 108.998955 25.0375 109.373955L30.6625 109.373955ZM32.271873 105.07708Q32.271873 103.04583 32.678123 101.811455Q33.1 100.57708 33.928123 99.905205Q34.75625 99.23333 36.00625 99.23333Q36.928123 99.23333 37.615623 99.60833Q38.31875 99.967705 38.771873 100.67083Q39.225 101.373955 39.475 102.373955Q39.740623 103.373955 39.740623 105.07708Q39.740623 107.092705 39.31875 108.342705Q38.9125 109.57708 38.084373 110.26458Q37.25625 110.936455 36.00625 110.936455Q34.35 110.936455 33.396873 109.73333Q32.271873 108.311455 32.271873 105.07708ZM33.709373 105.07708Q33.709373 107.905205 34.365623 108.842705Q35.0375 109.76458 36.00625 109.76458Q36.975 109.76458 37.63125 108.82708Q38.2875 107.88958 38.2875 105.07708Q38.2875 102.248955 37.63125 101.32708Q36.975 100.38958 35.990623 100.38958Q35.021873 100.38958 34.44375 101.217705Q33.709373 102.26458 33.709373 105.07708ZM41.271873 105.07708Q41.271873 103.04583 41.678123 101.811455Q42.1 100.57708 42.928123 99.905205Q43.75625 99.23333 45.00625 99.23333Q45.928123 99.23333 46.615623 99.60833Q47.31875 99.967705 47.771873 100.67083Q48.225 101.373955 48.475 102.373955Q48.740623 103.373955 48.740623 105.07708Q48.740623 107.092705 48.31875 108.342705Q47.9125 109.57708 47.084373 110.26458Q46.25625 110.936455 45.00625 110.936455Q43.35 110.936455 42.396873 109.73333Q41.271873 108.311455 41.271873 105.07708ZM42.709373 105.07708Q42.709373 107.905205 43.365623 108.842705Q44.0375 109.76458 45.00625 109.76458Q45.975 109.76458 46.63125 108.82708Q47.2875 107.88958 47.2875 105.07708Q47.2875 102.248955 46.63125 101.32708Q45.975 100.38958 44.990623 100.38958Q44.021873 100.38958 43.44375 101.217705Q42.709373 102.26458 42.709373 105.07708Z" fill-rule="nonzero"/><path fill="#000000" d="M235.29755 415.44687L235.29755 414.0875L242.7038 414.0875L242.7038 415.18124Q241.61005 416.35312 240.53192 418.29062Q239.46942 420.2125 238.87567 422.24374Q238.4538 423.68124 238.34442 425.4L236.8913 425.4Q236.92255 424.04062 237.42255 422.13437Q237.93817 420.2125 238.87567 418.44687Q239.8288 416.66562 240.90692 415.44687L235.29755 415.44687ZM244.7038 425.4L244.7038 413.94687L249.00067 413.94687Q250.31317 413.94687 251.11005 414.29062Q251.90692 414.63437 252.34442 415.36874Q252.79755 416.0875 252.79755 416.86874Q252.79755 417.60312 252.3913 418.25937Q252.00067 418.9 251.2038 419.30624Q252.23505 419.60312 252.79755 420.3375Q253.36005 421.07187 253.36005 422.07187Q253.36005 422.88437 253.0163 423.57187Q252.67255 424.25937 252.17255 424.63437Q251.67255 425.00937 250.92255 425.2125Q250.17255 425.4 249.0788 425.4L244.7038 425.4ZM246.21942 418.75937L248.7038 418.75937Q249.7038 418.75937 250.1413 418.61874Q250.71942 418.44687 251.0163 418.05624Q251.31317 417.65 251.31317 417.05624Q251.31317 416.47812 251.03192 416.05624Q250.7663 415.61874 250.25067 415.4625Q249.75067 415.29062 248.5163 415.29062L246.21942 415.29062L246.21942 418.75937ZM246.21942 424.04062L249.0788 424.04062Q249.81317 424.04062 250.11005 423.99374Q250.62567 423.9 250.96942 423.68124Q251.3288 423.4625 251.54755 423.04062Q251.78192 422.61874 251.78192 422.07187Q251.78192 421.43124 251.4538 420.9625Q251.12567 420.49374 250.54755 420.30624Q249.96942 420.10312 248.87567 420.10312L246.21942 420.10312L246.21942 424.04062Z" fill-rule="nonzero"/><path fill="#000000" d="M512.9368 425.4L511.53058 425.4L511.53058 416.43124Q511.01495 416.91562 510.18683 417.4Q509.37433 417.88437 508.71808 418.13437L508.71808 416.775Q509.88995 416.2125 510.76495 415.43124Q511.65558 414.63437 512.0306 413.9L512.9368 413.9L512.9368 425.4ZM516.63995 422.36874L518.0462 422.18124Q518.2962 423.38437 518.8743 423.91562Q519.45245 424.43124 520.2962 424.43124Q521.2806 424.43124 521.9681 423.74374Q522.6556 423.05624 522.6556 422.04062Q522.6556 421.07187 522.01495 420.44687Q521.38995 419.82187 520.4056 419.82187Q520.01495 419.82187 519.4212 419.97812L519.57745 418.74374Q519.7181 418.75937 519.7962 418.75937Q520.70245 418.75937 521.4212 418.29062Q522.13995 417.82187 522.13995 416.8375Q522.13995 416.07187 521.6087 415.57187Q521.0931 415.05624 520.26495 415.05624Q519.4368 415.05624 518.88995 415.57187Q518.3431 416.0875 518.1868 417.11874L516.7806 416.86874Q517.0462 415.44687 517.95245 414.68124Q518.8743 413.9 520.2337 413.9Q521.1712 413.9 521.95245 414.30624Q522.7493 414.69687 523.1556 415.4Q523.57745 416.0875 523.57745 416.86874Q523.57745 417.61874 523.1712 418.22812Q522.7806 418.8375 521.9993 419.19687Q523.01495 419.43124 523.57745 420.16562Q524.13995 420.9 524.13995 422.00937Q524.13995 423.50937 523.0462 424.55624Q521.95245 425.60312 520.2806 425.60312Q518.7806 425.60312 517.7806 424.7125Q516.7806 423.80624 516.63995 422.36874ZM526.13995 425.4L526.13995 413.94687L530.4368 413.94687Q531.7493 413.94687 532.5462 414.29062Q533.3431 414.63437 533.7806 415.36874Q534.2337 416.0875 534.2337 416.86874Q534.2337 417.60312 533.82745 418.25937Q533.4368 418.9 532.63995 419.30624Q533.6712 419.60312 534.2337 420.3375Q534.7962 421.07187 534.7962 422.07187Q534.7962 422.88437 534.45245 423.57187Q534.1087 424.25937 533.6087 424.63437Q533.1087 425.00937 532.3587 425.2125Q531.6087 425.4 530.51495 425.4L526.13995 425.4ZM527.6556 418.75937L530.13995 418.75937Q531.13995 418.75937 531.57745 418.61874Q532.1556 418.44687 532.45245 418.05624Q532.7493 417.65 532.7493 417.05624Q532.7493 416.47812 532.4681 416.05624Q532.20245 415.61874 531.6868 415.4625Q531.1868 415.29062 529.95245 415.29062L527.6556 415.29062L527.6556 418.75937ZM527.6556 424.04062L530.51495 424.04062Q531.2493 424.04062 531.5462 423.99374Q532.0618 423.9 532.4056 423.68124Q532.76495 423.4625 532.9837 423.04062Q533.2181 422.61874 533.2181 422.07187Q533.2181 421.43124 532.88995 420.9625Q532.5618 420.49374 531.9837 420.30624Q531.4056 420.10312 530.3118 420.10312L527.6556 420.10312L527.6556 424.04062Z" fill-rule="nonzero"/><path fill="#93c47d" d="M290.5 66.166664C290.5 65.61438 290.94772 65.166664 291.5 65.166664L301.5 65.166664C302.05228 65.166664 302.5 65.61438 302.5 66.166664L302.5 76.166664C302.5 76.71895 302.05228 77.166664 301.5 77.166664L291.5 77.166664C290.94772 77.166664 290.5 76.71895 290.5 76.166664Z" fill-rule="nonzero"/><path fill="#1a1a1a" d="M315.67188 76.666664L315.67188 73.916664L310.70312 73.916664L310.70312 72.635414L315.9375 65.21354L317.07812 65.21354L317.07812 72.635414L318.625 72.635414L318.625 73.916664L317.07812 73.916664L317.07812 76.666664L315.67188 76.666664ZM315.67188 72.635414L315.67188 67.46354L312.09375 72.635414L315.67188 72.635414ZM320.17188 71.010414Q320.17188 68.979164 320.57812 67.74479Q321.0 66.510414 321.82812 65.83854Q322.65625 65.166664 323.90625 65.166664Q324.82812 65.166664 325.51562 65.541664Q326.21875 65.90104 326.67188 66.604164Q327.125 67.30729 327.375 68.30729Q327.64062 69.30729 327.64062 71.010414Q327.64062 73.02604 327.21875 74.27604Q326.8125 75.510414 325.98438 76.197914Q325.15625 76.86979 323.90625 76.86979Q322.25 76.86979 321.29688 75.666664Q320.17188 74.24479 320.17188 71.010414ZM321.60938 71.010414Q321.60938 73.83854 322.26562 74.77604Q322.9375 75.697914 323.90625 75.697914Q324.875 75.697914 325.53125 74.760414Q326.1875 73.822914 326.1875 71.010414Q326.1875 68.18229 325.53125 67.260414Q324.875 66.322914 323.89062 66.322914Q322.92188 66.322914 322.34375 67.15104Q321.60938 68.197914 321.60938 71.010414ZM329.375 74.010414L330.73438 73.885414Q330.90625 74.83854 331.39062 75.27604Q331.875 75.697914 332.625 75.697914Q333.28125 75.697914 333.76562 75.40104Q334.25 75.104164 334.5625 74.61979Q334.875 74.11979 335.07812 73.27604Q335.29688 72.43229 335.29688 71.55729Q335.29688 71.46354 335.29688 71.27604Q334.875 71.947914 334.14062 72.36979Q333.40625 72.77604 332.5625 72.77604Q331.14062 72.77604 330.15625 71.74479Q329.17188 70.71354 329.17188 69.02604Q329.17188 67.291664 330.1875 66.229164Q331.21875 65.166664 332.76562 65.166664Q333.89062 65.166664 334.8125 65.77604Q335.73438 66.36979 336.21875 67.479164Q336.70312 68.58854 336.70312 70.697914Q336.70312 72.90104 336.21875 74.197914Q335.75 75.49479 334.79688 76.18229Q333.85938 76.86979 332.59375 76.86979Q331.25 76.86979 330.39062 76.11979Q329.54688 75.36979 329.375 74.010414ZM335.14062 68.96354Q335.14062 67.74479 334.48438 67.041664Q333.84375 66.322914 332.9375 66.322914Q332.0 66.322914 331.29688 67.08854Q330.60938 67.854164 330.60938 69.072914Q330.60938 70.166664 331.26562 70.854164Q331.9375 71.541664 332.90625 71.541664Q333.875 71.541664 334.5 70.854164Q335.14062 70.166664 335.14062 68.96354ZM338.17188 71.010414Q338.17188 68.979164 338.57812 67.74479Q339.0 66.510414 339.82812 65.83854Q340.65625 65.166664 341.90625 65.166664Q342.82812 65.166664 343.51562 65.541664Q344.21875 65.90104 344.67188 66.604164Q345.125 67.30729 345.375 68.30729Q345.64062 69.30729 345.64062 71.010414Q345.64062 73.02604 345.21875 74.27604Q344.8125 75.510414 343.98438 76.197914Q343.15625 76.86979 341.90625 76.86979Q340.25 76.86979 339.29688 75.666664Q338.17188 74.24479 338.17188 71.010414ZM339.60938 71.010414Q339.60938 73.83854 340.26562 74.77604Q340.9375 75.697914 341.90625 75.697914Q342.875 75.697914 343.53125 74.760414Q344.1875 73.822914 344.1875 71.010414Q344.1875 68.18229 343.53125 67.260414Q342.875 66.322914 341.89062 66.322914Q340.92188 66.322914 340.34375 67.15104Q339.60938 68.197914 339.60938 71.010414Z" fill-rule="nonzero"/><path fill="#ea4335" d="M362.5 66.166664C362.5 65.61438 362.94772 65.166664 363.5 65.166664L373.5 65.166664C374.05228 65.166664 374.5 65.61438 374.5 66.166664L374.5 76.166664C374.5 76.71895 374.05228 77.166664 373.5 77.166664L363.5 77.166664C362.94772 77.166664 362.5 76.71895 362.5 76.166664Z" fill-rule="nonzero"/><path fill="#1a1a1a" d="M383.26562 66.71354L383.26562 65.354164L390.67188 65.354164L390.67188 66.447914Q389.57812 67.61979 388.5 69.55729Q387.4375 71.479164 386.84375 73.510414Q386.42188 74.947914 386.3125 76.666664L384.85938 76.666664Q384.89062 75.30729 385.39062 73.40104Q385.90625 71.479164 386.84375 69.71354Q387.79688 67.93229 388.875 66.71354L383.26562 66.71354ZM392.375 74.010414L393.73438 73.885414Q393.90625 74.83854 394.39062 75.27604Q394.875 75.697914 395.625 75.697914Q396.28125 75.697914 396.76562 75.40104Q397.25 75.104164 397.5625 74.61979Q397.875 74.11979 398.07812 73.27604Q398.29688 72.43229 398.29688 71.55729Q398.29688 71.46354 398.29688 71.27604Q397.875 71.947914 397.14062 72.36979Q396.40625 72.77604 395.5625 72.77604Q394.14062 72.77604 393.15625 71.74479Q392.17188 70.71354 392.17188 69.02604Q392.17188 67.291664 393.1875 66.229164Q394.21875 65.166664 395.76562 65.166664Q396.89062 65.166664 397.8125 65.77604Q398.73438 66.36979 399.21875 67.479164Q399.70312 68.58854 399.70312 70.697914Q399.70312 72.90104 399.21875 74.197914Q398.75 75.49479 397.79688 76.18229Q396.85938 76.86979 395.59375 76.86979Q394.25 76.86979 393.39062 76.11979Q392.54688 75.36979 392.375 74.010414ZM398.14062 68.96354Q398.14062 67.74479 397.48438 67.041664Q396.84375 66.322914 395.9375 66.322914Q395.0 66.322914 394.29688 67.08854Q393.60938 67.854164 393.60938 69.072914Q393.60938 70.166664 394.26562 70.854164Q394.9375 71.541664 395.90625 71.541664Q396.875 71.541664 397.5 70.854164Q398.14062 70.166664 398.14062 68.96354ZM401.17188 71.010414Q401.17188 68.979164 401.57812 67.74479Q402.0 66.510414 402.82812 65.83854Q403.65625 65.166664 404.90625 65.166664Q405.82812 65.166664 406.51562 65.541664Q407.21875 65.90104 407.67188 66.604164Q408.125 67.30729 408.375 68.30729Q408.64062 69.30729 408.64062 71.010414Q408.64062 73.02604 408.21875 74.27604Q407.8125 75.510414 406.98438 76.197914Q406.15625 76.86979 404.90625 76.86979Q403.25 76.86979 402.29688 75.666664Q401.17188 74.24479 401.17188 71.010414ZM402.60938 71.010414Q402.60938 73.83854 403.26562 74.77604Q403.9375 75.697914 404.90625 75.697914Q405.875 75.697914 406.53125 74.760414Q407.1875 73.822914 407.1875 71.010414Q407.1875 68.18229 406.53125 67.260414Q405.875 66.322914 404.89062 66.322914Q403.92188 66.322914 403.34375 67.15104Q402.60938 68.197914 402.60938 71.010414ZM410.17188 71.010414Q410.17188 68.979164 410.57812 67.74479Q411.0 66.510414 411.82812 65.83854Q412.65625 65.166664 413.90625 65.166664Q414.82812 65.166664 415.51562 65.541664Q416.21875 65.90104 416.67188 66.604164Q417.125 67.30729 417.375 68.30729Q417.64062 69.30729 417.64062 71.010414Q417.64062 73.02604 417.21875 74.27604Q416.8125 75.510414 415.98438 76.197914Q415.15625 76.86979 413.90625 76.86979Q412.25 76.86979 411.29688 75.666664Q410.17188 74.24479 410.17188 71.010414ZM411.60938 71.010414Q411.60938 73.83854 412.26562 74.77604Q412.9375 75.697914 413.90625 75.697914Q414.875 75.697914 415.53125 74.760414Q416.1875 73.822914 416.1875 71.010414Q416.1875 68.18229 415.53125 67.260414Q414.875 66.322914 413.89062 66.322914Q412.92188 66.322914 412.34375 67.15104Q411.60938 68.197914 411.60938 71.010414ZM422.625 76.666664L425.65625 72.354164L422.84375 68.36979L424.60938 68.36979L425.875 70.30729Q426.23438 70.86979 426.45312 71.24479Q426.79688 70.729164 427.09375 70.322914L428.48438 68.36979L430.17188 68.36979L427.29688 72.27604L430.39062 76.666664L428.65625 76.666664L426.95312 74.08854L426.5 73.385414L424.32812 76.666664L422.625 76.666664ZM433.625 75.40104L433.82812 76.65104Q433.23438 76.77604 432.76562 76.77604Q432.0 76.77604 431.57812 76.541664Q431.15625 76.291664 430.98438 75.90104Q430.8125 75.49479 430.8125 74.229164L430.8125 69.46354L429.78125 69.46354L429.78125 68.36979L430.8125 68.36979L430.8125 66.30729L432.21875 65.46354L432.21875 68.36979L433.625 68.36979L433.625 69.46354L432.21875 69.46354L432.21875 74.30729Q432.21875 74.916664 432.28125 75.08854Q432.35938 75.260414 432.53125 75.36979Q432.70312 75.46354 433.01562 75.46354Q433.25 75.46354 433.625 75.40104ZM433.625 76.666664L436.65625 72.354164L433.84375 68.36979L435.60938 68.36979L436.875 70.30729Q437.23438 70.86979 437.45312 71.24479Q437.79688 70.729164 438.09375 70.322914L439.48438 68.36979L441.17188 68.36979L438.29688 72.27604L441.39062 76.666664L439.65625 76.666664L437.95312 74.08854L437.5 73.385414L435.32812 76.666664L433.625 76.666664Z" fill-rule="nonzero"/><path fill="#000000" d="M23.50625 37.00625L25.2875 36.85Q25.4125 37.9125 25.865625 38.6Q26.334375 39.2875 27.303125 39.725Q28.2875 40.146873 29.521875 40.146873Q30.6 40.146873 31.428125 39.834373Q32.25625 39.50625 32.6625 38.94375Q33.06875 38.38125 33.06875 37.709373Q33.06875 37.0375 32.678123 36.5375Q32.2875 36.0375 31.396875 35.69375Q30.81875 35.459373 28.834375 34.990623Q26.865625 34.521873 26.084375 34.1Q25.053125 33.56875 24.553125 32.771873Q24.053125 31.974998 24.053125 30.990623Q24.053125 29.896873 24.6625 28.959373Q25.271875 28.021873 26.459375 27.537498Q27.646875 27.037498 29.084375 27.037498Q30.678125 27.037498 31.896875 27.553123Q33.115623 28.068748 33.75625 29.068748Q34.4125 30.053123 34.459373 31.318748L32.646873 31.459373Q32.50625 30.099998 31.6625 29.412498Q30.81875 28.709373 29.1625 28.709373Q27.44375 28.709373 26.646875 29.349998Q25.865625 29.974998 25.865625 30.849998Q25.865625 31.631248 26.428125 32.13125Q26.975 32.63125 29.2875 33.146873Q31.6 33.6625 32.459373 34.053123Q33.709373 34.63125 34.303123 35.521873Q34.896873 36.396873 34.896873 37.553123Q34.896873 38.69375 34.240623 39.709373Q33.584373 40.725 32.35 41.2875Q31.13125 41.85 29.6 41.85Q27.6625 41.85 26.35 41.2875Q25.0375 40.709373 24.2875 39.56875Q23.5375 38.428123 23.50625 37.00625ZM36.928123 29.303123L36.928123 27.287498L38.69375 27.287498L38.69375 29.303123L36.928123 29.303123ZM36.928123 41.6L36.928123 31.224998L38.69375 31.224998L38.69375 41.6L36.928123 41.6ZM40.9125 41.6L40.9125 31.224998L42.50625 31.224998L42.50625 32.709373Q43.646873 30.990623 45.803123 30.990623Q46.740623 30.990623 47.521873 31.334373Q48.31875 31.662498 48.709373 32.209373Q49.1 32.75625 49.25625 33.50625Q49.35 34.00625 49.35 35.225L49.35 41.6L47.584373 41.6L47.584373 35.2875Q47.584373 34.209373 47.38125 33.678123Q47.178123 33.146873 46.646873 32.834373Q46.13125 32.521873 45.428123 32.521873Q44.303123 32.521873 43.490623 33.240623Q42.678123 33.94375 42.678123 35.928123L42.678123 41.6L40.9125 41.6ZM50.6 42.459373L52.303123 42.709373Q52.4125 43.50625 52.896873 43.865623Q53.553123 44.35 54.69375 44.35Q55.9125 44.35 56.56875 43.865623Q57.240623 43.38125 57.475 42.50625Q57.615623 41.959373 57.6 40.240623Q56.44375 41.6 54.725 41.6Q52.584373 41.6 51.4125 40.053123Q50.240623 38.50625 50.240623 36.35Q50.240623 34.865623 50.771873 33.615623Q51.31875 32.365623 52.334373 31.678123Q53.365623 30.990623 54.740623 30.990623Q56.56875 30.990623 57.771873 32.475L57.771873 31.224998L59.38125 31.224998L59.38125 40.19375Q59.38125 42.615623 58.88125 43.615623Q58.396873 44.63125 57.31875 45.209373Q56.25625 45.803123 54.69375 45.803123Q52.85 45.803123 51.69375 44.975Q50.553123 44.146873 50.6 42.459373ZM52.053123 36.225Q52.053123 38.271873 52.865623 39.209373Q53.678123 40.146873 54.896873 40.146873Q56.1 40.146873 56.9125 39.209373Q57.740623 38.271873 57.740623 36.2875Q57.740623 34.38125 56.896873 33.4125Q56.053123 32.44375 54.865623 32.44375Q53.69375 32.44375 52.865623 33.396873Q52.053123 34.35 52.053123 36.225ZM61.88125 41.6L61.88125 27.287498L63.63125 27.287498L63.63125 41.6L61.88125 41.6ZM73.02187 38.25625L74.83437 38.490623Q74.4125 40.06875 73.24062 40.959373Q72.08437 41.834373 70.27187 41.834373Q68.00625 41.834373 66.6625 40.44375Q65.33437 39.0375 65.33437 36.50625Q65.33437 33.88125 66.67812 32.44375Q68.02187 30.990623 70.17812 30.990623Q72.25625 30.990623 73.56875 32.4125Q74.89687 33.81875 74.89687 36.396873Q74.89687 36.553123 74.88125 36.865623L67.14687 36.865623Q67.24062 38.56875 68.11562 39.475Q68.99062 40.38125 70.2875 40.38125Q71.25625 40.38125 71.92812 39.88125Q72.61562 39.365623 73.02187 38.25625ZM67.24062 35.4125L73.0375 35.4125Q72.92812 34.115623 72.38125 33.459373Q71.5375 32.44375 70.19375 32.44375Q68.99062 32.44375 68.1625 33.25625Q67.33437 34.053123 67.24062 35.4125ZM76.24062 37.303123L76.24062 35.5375L81.63125 35.5375L81.63125 37.303123L76.24062 37.303123ZM85.5375 41.6L83.9125 41.6L83.9125 27.287498L85.6625 27.287498L85.6625 32.396873Q86.7875 30.990623 88.50625 30.990623Q89.45937 30.990623 90.31875 31.381248Q91.17812 31.771873 91.725 32.475Q92.27187 33.1625 92.58437 34.146873Q92.89687 35.13125 92.89687 36.25625Q92.89687 38.928123 91.58437 40.38125Q90.27187 41.834373 88.42812 41.834373Q86.58437 41.834373 85.5375 40.303123L85.5375 41.6ZM85.52187 36.334373Q85.52187 38.19375 86.02187 39.0375Q86.86562 40.38125 88.27187 40.38125Q89.42812 40.38125 90.25625 39.38125Q91.1 38.38125 91.1 36.396873Q91.1 34.365623 90.2875 33.4125Q89.49062 32.44375 88.35 32.44375Q87.19375 32.44375 86.35 33.44375Q85.52187 34.44375 85.52187 36.334373ZM101.69375 40.31875Q100.70937 41.146873 99.80312 41.490623Q98.89687 41.834373 97.86562 41.834373Q96.1625 41.834373 95.24062 41.00625Q94.31875 40.1625 94.31875 38.865623Q94.31875 38.1 94.6625 37.475Q95.02187 36.85 95.58437 36.475Q96.14687 36.084373 96.85 35.88125Q97.36562 35.75625 98.4125 35.615623Q100.5375 35.365623 101.5375 35.021873Q101.55312 34.6625 101.55312 34.553123Q101.55312 33.490623 101.05312 33.0375Q100.38125 32.44375 99.05312 32.44375Q97.80312 32.44375 97.20937 32.88125Q96.63125 33.31875 96.35 34.428123L94.63125 34.19375Q94.86562 33.084373 95.39687 32.4125Q95.92812 31.724998 96.94375 31.365623Q97.95937 30.990623 99.30312 30.990623Q100.63125 30.990623 101.45937 31.303123Q102.2875 31.615623 102.67812 32.1Q103.06875 32.56875 103.225 33.2875Q103.31875 33.740623 103.31875 34.9125L103.31875 37.25625Q103.31875 39.709373 103.42812 40.365623Q103.5375 41.00625 103.88125 41.6L102.0375 41.6Q101.77187 41.053123 101.69375 40.31875ZM101.5375 36.396873Q100.58437 36.7875 98.6625 37.053123Q97.58437 37.209373 97.13125 37.4125Q96.69375 37.6 96.44375 37.975Q96.19375 38.35 96.19375 38.81875Q96.19375 39.521873 96.725 39.990623Q97.25625 40.459373 98.2875 40.459373Q99.30312 40.459373 100.08437 40.021873Q100.88125 39.56875 101.25625 38.803123Q101.5375 38.19375 101.5375 37.0375L101.5375 36.396873ZM109.75625 40.021873L110.00625 41.584373Q109.27187 41.740623 108.67812 41.740623Q107.725 41.740623 107.19375 41.44375Q106.67812 41.13125 106.45937 40.646873Q106.24062 40.146873 106.24062 38.56875L106.24062 32.6L104.95937 32.6L104.95937 31.224998L106.24062 31.224998L106.24062 28.662498L107.99062 27.599998L107.99062 31.224998L109.75625 31.224998L109.75625 32.6L107.99062 32.6L107.99062 38.6625Q107.99062 39.4125 108.08437 39.63125Q108.17812 39.834373 108.38125 39.975Q108.6 40.1 108.99062 40.1Q109.27187 40.1 109.75625 40.021873ZM118.69375 37.803123L120.4125 38.021873Q120.13125 39.81875 118.95937 40.834373Q117.80312 41.834373 116.1 41.834373Q113.975 41.834373 112.67812 40.44375Q111.38125 39.053123 111.38125 36.459373Q111.38125 34.771873 111.92812 33.521873Q112.49062 32.25625 113.63125 31.631248Q114.77187 30.990623 116.11562 30.990623Q117.80312 30.990623 118.86562 31.849998Q119.94375 32.709373 120.25625 34.271873L118.5375 34.5375Q118.30312 33.490623 117.67812 32.975Q117.05312 32.44375 116.17812 32.44375Q114.85 32.44375 114.02187 33.396873Q113.19375 34.35 113.19375 36.396873Q113.19375 38.490623 113.99062 39.44375Q114.7875 40.38125 116.08437 40.38125Q117.11562 40.38125 117.80312 39.75625Q118.50625 39.115623 118.69375 37.803123ZM121.9125 41.6L121.9125 27.287498L123.67812 27.287498L123.67812 32.4125Q124.9125 30.990623 126.7875 30.990623Q127.92812 30.990623 128.77188 31.443748Q129.63126 31.896873 129.99063 32.709373Q130.36563 33.50625 130.36563 35.021873L130.36563 41.6L128.61563 41.6L128.61563 35.021873Q128.61563 33.709373 128.0375 33.115623Q127.45937 32.50625 126.42812 32.50625Q125.64687 32.50625 124.94375 32.9125Q124.25625 33.31875 123.95937 34.021873Q123.67812 34.709373 123.67812 35.928123L123.67812 41.6L121.9125 41.6ZM137.92813 29.303123L137.92813 27.287498L139.69376 27.287498L139.69376 29.303123L137.92813 29.303123ZM137.92813 41.6L137.92813 31.224998L139.69376 31.224998L139.69376 41.6L137.92813 41.6ZM141.9125 41.6L141.9125 31.224998L143.50626 31.224998L143.50626 32.709373Q144.64688 30.990623 146.80313 30.990623Q147.74063 30.990623 148.52188 31.334373Q149.31876 31.662498 149.70938 32.209373Q150.1 32.75625 150.25626 33.50625Q150.35 34.00625 150.35 35.225L150.35 41.6L148.58438 41.6L148.58438 35.2875Q148.58438 34.209373 148.38126 33.678123Q148.17813 33.146873 147.64688 32.834373Q147.13126 32.521873 146.42813 32.521873Q145.30313 32.521873 144.49063 33.240623Q143.67813 33.94375 143.67813 35.928123L143.67813 41.6L141.9125 41.6ZM152.33438 41.6L152.33438 32.6L150.7875 32.6L150.7875 31.224998L152.33438 31.224998L152.33438 30.131248Q152.33438 29.084373 152.52188 28.568748Q152.77188 27.881248 153.4125 27.459373Q154.05313 27.037498 155.20938 27.037498Q155.95938 27.037498 156.85 27.209373L156.58438 28.740623Q156.0375 28.646873 155.55313 28.646873Q154.75626 28.646873 154.4125 28.990623Q154.08438 29.334373 154.08438 30.271873L154.08438 31.224998L156.11563 31.224998L156.11563 32.6L154.08438 32.6L154.08438 41.6L152.33438 41.6ZM165.02188 38.25625L166.83438 38.490623Q166.4125 40.06875 165.24063 40.959373Q164.08438 41.834373 162.27188 41.834373Q160.00626 41.834373 158.6625 40.44375Q157.33438 39.0375 157.33438 36.50625Q157.33438 33.88125 158.67813 32.44375Q160.02188 30.990623 162.17813 30.990623Q164.25626 30.990623 165.56876 32.4125Q166.89688 33.81875 166.89688 36.396873Q166.89688 36.553123 166.88126 36.865623L159.14688 36.865623Q159.24063 38.56875 160.11563 39.475Q160.99063 40.38125 162.2875 40.38125Q163.25626 40.38125 163.92813 39.88125Q164.61563 39.365623 165.02188 38.25625ZM159.24063 35.4125L165.0375 35.4125Q164.92813 34.115623 164.38126 33.459373Q163.5375 32.44375 162.19376 32.44375Q160.99063 32.44375 160.1625 33.25625Q159.33438 34.053123 159.24063 35.4125ZM168.89688 41.6L168.89688 31.224998L170.475 31.224998L170.475 32.803123Q171.08438 31.693748 171.6 31.349998Q172.11563 30.990623 172.725 30.990623Q173.61563 30.990623 174.5375 31.553123L173.92813 33.19375Q173.2875 32.803123 172.64688 32.803123Q172.06876 32.803123 171.6 33.1625Q171.14688 33.50625 170.94376 34.115623Q170.6625 35.053123 170.6625 36.1625L170.6625 41.6L168.89688 41.6ZM183.02188 38.25625L184.83438 38.490623Q184.4125 40.06875 183.24063 40.959373Q182.08438 41.834373 180.27188 41.834373Q178.00626 41.834373 176.6625 40.44375Q175.33438 39.0375 175.33438 36.50625Q175.33438 33.88125 176.67813 32.44375Q178.02188 30.990623 180.17813 30.990623Q182.25626 30.990623 183.56876 32.4125Q184.89688 33.81875 184.89688 36.396873Q184.89688 36.553123 184.88126 36.865623L177.14688 36.865623Q177.24063 38.56875 178.11563 39.475Q178.99063 40.38125 180.2875 40.38125Q181.25626 40.38125 181.92813 39.88125Q182.61563 39.365623 183.02188 38.25625ZM177.24063 35.4125L183.0375 35.4125Q182.92813 34.115623 182.38126 33.459373Q181.5375 32.44375 180.19376 32.44375Q178.99063 32.44375 178.1625 33.25625Q177.33438 34.053123 177.24063 35.4125ZM186.9125 41.6L186.9125 31.224998L188.50626 31.224998L188.50626 32.709373Q189.64688 30.990623 191.80313 30.990623Q192.74063 30.990623 193.52188 31.334373Q194.31876 31.662498 194.70938 32.209373Q195.1 32.75625 195.25626 33.50625Q195.35 34.00625 195.35 35.225L195.35 41.6L193.58438 41.6L193.58438 35.2875Q193.58438 34.209373 193.38126 33.678123Q193.17813 33.146873 192.64688 32.834373Q192.13126 32.521873 191.42813 32.521873Q190.30313 32.521873 189.49063 33.240623Q188.67813 33.94375 188.67813 35.928123L188.67813 41.6L186.9125 41.6ZM203.69376 37.803123L205.4125 38.021873Q205.13126 39.81875 203.95938 40.834373Q202.80313 41.834373 201.1 41.834373Q198.975 41.834373 197.67813 40.44375Q196.38126 39.053123 196.38126 36.459373Q196.38126 34.771873 196.92813 33.521873Q197.49063 32.25625 198.63126 31.631248Q199.77188 30.990623 201.11563 30.990623Q202.80313 30.990623 203.86563 31.849998Q204.94376 32.709373 205.25626 34.271873L203.5375 34.5375Q203.30313 33.490623 202.67813 32.975Q202.05313 32.44375 201.17813 32.44375Q199.85 32.44375 199.02188 33.396873Q198.19376 34.35 198.19376 36.396873Q198.19376 38.490623 198.99063 39.44375Q199.7875 40.38125 201.08438 40.38125Q202.11563 40.38125 202.80313 39.75625Q203.50626 39.115623 203.69376 37.803123ZM214.02188 38.25625L215.83438 38.490623Q215.4125 40.06875 214.24063 40.959373Q213.08438 41.834373 211.27188 41.834373Q209.00626 41.834373 207.6625 40.44375Q206.33438 39.0375 206.33438 36.50625Q206.33438 33.88125 207.67813 32.44375Q209.02188 30.990623 211.17813 30.990623Q213.25626 30.990623 214.56876 32.4125Q215.89688 33.81875 215.89688 36.396873Q215.89688 36.553123 215.88126 36.865623L208.14688 36.865623Q208.24063 38.56875 209.11563 39.475Q209.99063 40.38125 211.2875 40.38125Q212.25626 40.38125 212.92813 39.88125Q213.61563 39.365623 214.02188 38.25625ZM208.24063 35.4125L214.0375 35.4125Q213.92813 34.115623 213.38126 33.459373Q212.5375 32.44375 211.19376 32.44375Q209.99063 32.44375 209.1625 33.25625Q208.33438 34.053123 208.24063 35.4125ZM223.9125 45.56875L223.9125 31.224998L225.52188 31.224998L225.52188 32.56875Q226.08438 31.787498 226.7875 31.396873Q227.50626 30.990623 228.52188 30.990623Q229.85 30.990623 230.86563 31.678123Q231.88126 32.365623 232.39688 33.615623Q232.92813 34.85 232.92813 36.334373Q232.92813 37.928123 232.35 39.209373Q231.7875 40.475 230.69376 41.1625Q229.6 41.834373 228.39688 41.834373Q227.52188 41.834373 226.81876 41.459373Q226.13126 41.084373 225.67813 40.521873L225.67813 45.56875L223.9125 45.56875ZM225.50626 36.475Q225.50626 38.475 226.31876 39.428123Q227.13126 40.38125 228.2875 40.38125Q229.45938 40.38125 230.2875 39.396873Q231.13126 38.4125 231.13126 36.31875Q231.13126 34.35 230.30313 33.365623Q229.49063 32.365623 228.36563 32.365623Q227.24063 32.365623 226.36563 33.428123Q225.50626 34.475 225.50626 36.475ZM242.02188 38.25625L243.83438 38.490623Q243.4125 40.06875 242.24063 40.959373Q241.08438 41.834373 239.27188 41.834373Q237.00626 41.834373 235.6625 40.44375Q234.33438 39.0375 234.33438 36.50625Q234.33438 33.88125 235.67813 32.44375Q237.02188 30.990623 239.17813 30.990623Q241.25626 30.990623 242.56876 32.4125Q243.89688 33.81875 243.89688 36.396873Q243.89688 36.553123 243.88126 36.865623L236.14688 36.865623Q236.24063 38.56875 237.11563 39.475Q237.99063 40.38125 239.2875 40.38125Q240.25626 40.38125 240.92813 39.88125Q241.61563 39.365623 242.02188 38.25625ZM236.24063 35.4125L242.0375 35.4125Q241.92813 34.115623 241.38126 33.459373Q240.5375 32.44375 239.19376 32.44375Q237.99063 32.44375 237.1625 33.25625Q236.33438 34.053123 236.24063 35.4125ZM245.89688 41.6L245.89688 31.224998L247.475 31.224998L247.475 32.803123Q248.08438 31.693748 248.6 31.349998Q249.11563 30.990623 249.725 30.990623Q250.61563 30.990623 251.5375 31.553123L250.92813 33.19375Q250.2875 32.803123 249.64688 32.803123Q249.06876 32.803123 248.6 33.1625Q248.14688 33.50625 247.94376 34.115623Q247.6625 35.053123 247.6625 36.1625L247.6625 41.6L245.89688 41.6ZM253.33438 41.6L253.33438 32.6L251.7875 32.6L251.7875 31.224998L253.33438 31.224998L253.33438 30.131248Q253.33438 29.084373 253.52188 28.568748Q253.77188 27.881248 254.4125 27.459373Q255.05313 27.037498 256.20938 27.037498Q256.95938 27.037498 257.85 27.209373L257.58438 28.740623Q257.0375 28.646873 256.55313 28.646873Q255.75626 28.646873 255.4125 28.990623Q255.08438 29.334373 255.08438 30.271873L255.08438 31.224998L257.11563 31.224998L257.11563 32.6L255.08438 32.6L255.08438 41.6L253.33438 41.6ZM258.27188 36.4125Q258.27188 33.5375 259.86563 32.146873Q261.20938 30.990623 263.13126 30.990623Q265.27188 30.990623 266.61563 32.396873Q267.975 33.803123 267.975 36.271873Q267.975 38.271873 267.38126 39.428123Q266.7875 40.56875 265.63126 41.209373Q264.49063 41.834373 263.13126 41.834373Q260.94376 41.834373 259.6 40.44375Q258.27188 39.0375 258.27188 36.4125ZM260.06876 36.4125Q260.06876 38.4125 260.92813 39.396873Q261.80313 40.38125 263.13126 40.38125Q264.44376 40.38125 265.30313 39.396873Q266.17813 38.396873 266.17813 36.35Q266.17813 34.428123 265.30313 33.44375Q264.42813 32.44375 263.13126 32.44375Q261.80313 32.44375 260.92813 33.44375Q260.06876 34.428123 260.06876 36.4125ZM269.89688 41.6L269.89688 31.224998L271.475 31.224998L271.475 32.803123Q272.08438 31.693748 272.6 31.349998Q273.11563 30.990623 273.725 30.990623Q274.61563 30.990623 275.5375 31.553123L274.92813 33.19375Q274.2875 32.803123 273.64688 32.803123Q273.06876 32.803123 272.6 33.1625Q272.14688 33.50625 271.94376 34.115623Q271.6625 35.053123 271.6625 36.1625L271.6625 41.6L269.89688 41.6ZM276.9125 41.6L276.9125 31.224998L278.49063 31.224998L278.49063 32.678123Q278.975 31.928123 279.7875 31.459373Q280.6 30.990623 281.63126 30.990623Q282.7875 30.990623 283.52188 31.474998Q284.25626 31.943748 284.56876 32.803123Q285.80313 30.990623 287.77188 30.990623Q289.31876 30.990623 290.14688 31.849998Q290.975 32.709373 290.975 34.475L290.975 41.6L289.225 41.6L289.225 35.06875Q289.225 34.00625 289.05313 33.553123Q288.88126 33.084373 288.42813 32.803123Q287.99063 32.521873 287.38126 32.521873Q286.2875 32.521873 285.55313 33.25625Q284.83438 33.975 284.83438 35.56875L284.83438 41.6L283.08438 41.6L283.08438 34.865623Q283.08438 33.69375 282.64688 33.115623Q282.225 32.521873 281.24063 32.521873Q280.50626 32.521873 279.86563 32.9125Q279.24063 33.303123 278.95938 34.053123Q278.67813 34.803123 278.67813 36.225L278.67813 41.6L276.9125 41.6ZM299.69376 40.31875Q298.70938 41.146873 297.80313 41.490623Q296.89688 41.834373 295.86563 41.834373Q294.1625 41.834373 293.24063 41.00625Q292.31876 40.1625 292.31876 38.865623Q292.31876 38.1 292.6625 37.475Q293.02188 36.85 293.58438 36.475Q294.14688 36.084373 294.85 35.88125Q295.36563 35.75625 296.4125 35.615623Q298.5375 35.365623 299.5375 35.021873Q299.55313 34.6625 299.55313 34.553123Q299.55313 33.490623 299.05313 33.0375Q298.38126 32.44375 297.05313 32.44375Q295.80313 32.44375 295.20938 32.88125Q294.63126 33.31875 294.35 34.428123L292.63126 34.19375Q292.86563 33.084373 293.39688 32.4125Q293.92813 31.724998 294.94376 31.365623Q295.95938 30.990623 297.30313 30.990623Q298.63126 30.990623 299.45938 31.303123Q300.2875 31.615623 300.67813 32.1Q301.06876 32.56875 301.225 33.2875Q301.31876 33.740623 301.31876 34.9125L301.31876 37.25625Q301.31876 39.709373 301.42813 40.365623Q301.5375 41.00625 301.88126 41.6L300.0375 41.6Q299.77188 41.053123 299.69376 40.31875ZM299.5375 36.396873Q298.58438 36.7875 296.6625 37.053123Q295.58438 37.209373 295.13126 37.4125Q294.69376 37.6 294.44376 37.975Q294.19376 38.35 294.19376 38.81875Q294.19376 39.521873 294.725 39.990623Q295.25626 40.459373 296.2875 40.459373Q297.30313 40.459373 298.08438 40.021873Q298.88126 39.56875 299.25626 38.803123Q299.5375 38.19375 299.5375 37.0375L299.5375 36.396873ZM303.9125 41.6L303.9125 31.224998L305.50626 31.224998L305.50626 32.709373Q306.64688 30.990623 308.80313 30.990623Q309.74063 30.990623 310.52188 31.334373Q311.31876 31.662498 311.70938 32.209373Q312.1 32.75625 312.25626 33.50625Q312.35 34.00625 312.35 35.225L312.35 41.6L310.58438 41.6L310.58438 35.2875Q310.58438 34.209373 310.38126 33.678123Q310.17813 33.146873 309.64688 32.834373Q309.13126 32.521873 308.42813 32.521873Q307.30313 32.521873 306.49063 33.240623Q305.67813 33.94375 305.67813 35.928123L305.67813 41.6L303.9125 41.6ZM320.69376 37.803123L322.4125 38.021873Q322.13126 39.81875 320.95938 40.834373Q319.80313 41.834373 318.1 41.834373Q315.975 41.834373 314.67813 40.44375Q313.38126 39.053123 313.38126 36.459373Q313.38126 34.771873 313.92813 33.521873Q314.49063 32.25625 315.63126 31.631248Q316.77188 30.990623 318.11563 30.990623Q319.80313 30.990623 320.86563 31.849998Q321.94376 32.709373 322.25626 34.271873L320.5375 34.5375Q320.30313 33.490623 319.67813 32.975Q319.05313 32.44375 318.17813 32.44375Q316.85 32.44375 316.02188 33.396873Q315.19376 34.35 315.19376 36.396873Q315.19376 38.490623 315.99063 39.44375Q316.7875 40.38125 318.08438 40.38125Q319.11563 40.38125 319.80313 39.75625Q320.50626 39.115623 320.69376 37.803123ZM331.02188 38.25625L332.83438 38.490623Q332.4125 40.06875 331.24063 40.959373Q330.08438 41.834373 328.27188 41.834373Q326.00626 41.834373 324.6625 40.44375Q323.33438 39.0375 323.33438 36.50625Q323.33438 33.88125 324.67813 32.44375Q326.02188 30.990623 328.17813 30.990623Q330.25626 30.990623 331.56876 32.4125Q332.89688 33.81875 332.89688 36.396873Q332.89688 36.553123 332.88126 36.865623L325.14688 36.865623Q325.24063 38.56875 326.11563 39.475Q326.99063 40.38125 328.2875 40.38125Q329.25626 40.38125 329.92813 39.88125Q330.61563 39.365623 331.02188 38.25625ZM325.24063 35.4125L331.0375 35.4125Q330.92813 34.115623 330.38126 33.459373Q329.5375 32.44375 328.19376 32.44375Q326.99063 32.44375 326.1625 33.25625Q325.33438 34.053123 325.24063 35.4125ZM335.4125 33.225L335.4125 31.224998L337.4125 31.224998L337.4125 33.225L335.4125 33.225ZM335.4125 41.6L335.4125 39.6L337.4125 39.6L337.4125 41.6L335.4125 41.6ZM350.75626 40.021873L351.00626 41.584373Q350.27188 41.740623 349.67813 41.740623Q348.725 41.740623 348.19376 41.44375Q347.67813 41.13125 347.45938 40.646873Q347.24063 40.146873 347.24063 38.56875L347.24063 32.6L345.95938 32.6L345.95938 31.224998L347.24063 31.224998L347.24063 28.662498L348.99063 27.599998L348.99063 31.224998L350.75626 31.224998L350.75626 32.6L348.99063 32.6L348.99063 38.6625Q348.99063 39.4125 349.08438 39.63125Q349.17813 39.834373 349.38126 39.975Q349.6 40.1 349.99063 40.1Q350.27188 40.1 350.75626 40.021873ZM352.27188 36.4125Q352.27188 33.5375 353.86563 32.146873Q355.20938 30.990623 357.13126 30.990623Q359.27188 30.990623 360.61563 32.396873Q361.975 33.803123 361.975 36.271873Q361.975 38.271873 361.38126 39.428123Q360.7875 40.56875 359.63126 41.209373Q358.49063 41.834373 357.13126 41.834373Q354.94376 41.834373 353.6 40.44375Q352.27188 39.0375 352.27188 36.4125ZM354.06876 36.4125Q354.06876 38.4125 354.92813 39.396873Q355.80313 40.38125 357.13126 40.38125Q358.44376 40.38125 359.30313 39.396873Q360.17813 38.396873 360.17813 36.35Q360.17813 34.428123 359.30313 33.44375Q358.42813 32.44375 357.13126 32.44375Q355.80313 32.44375 354.92813 33.44375Q354.06876 34.428123 354.06876 36.4125ZM363.92813 41.6L363.92813 27.287498L365.69376 27.287498L365.69376 35.44375L369.85 31.224998L372.11563 31.224998L368.1625 35.06875L372.52188 41.6L370.35 41.6L366.92813 36.303123L365.69376 37.490623L365.69376 41.6L363.92813 41.6ZM373.20938 38.50625L374.95938 38.225Q375.1 39.271873 375.77188 39.834373Q376.44376 40.38125 377.64688 40.38125Q378.85 40.38125 379.42813 39.896873Q380.02188 39.396873 380.02188 38.740623Q380.02188 38.146873 379.50626 37.803123Q379.14688 37.56875 377.70938 37.209373Q375.77188 36.709373 375.02188 36.365623Q374.2875 36.00625 373.89688 35.38125Q373.50626 34.740623 373.50626 33.975Q373.50626 33.2875 373.81876 32.69375Q374.14688 32.1 374.69376 31.709373Q375.1 31.412498 375.80313 31.209373Q376.52188 30.990623 377.33438 30.990623Q378.55313 30.990623 379.475 31.349998Q380.39688 31.693748 380.83438 32.303123Q381.27188 32.896873 381.44376 33.896873L379.725 34.13125Q379.6 33.334373 379.0375 32.896873Q378.475 32.44375 377.45938 32.44375Q376.24063 32.44375 375.725 32.85Q375.20938 33.240623 375.20938 33.771873Q375.20938 34.115623 375.42813 34.396873Q375.63126 34.678123 376.1 34.865623Q376.36563 34.959373 377.64688 35.303123Q379.52188 35.803123 380.25626 36.13125Q380.99063 36.44375 381.4125 37.053123Q381.83438 37.646873 381.83438 38.553123Q381.83438 39.428123 381.31876 40.209373Q380.80313 40.990623 379.83438 41.4125Q378.86563 41.834373 377.64688 41.834373Q375.63126 41.834373 374.56876 40.990623Q373.50626 40.146873 373.20938 38.50625ZM382.6 41.85L386.75626 27.037498L388.1625 27.037498L384.02188 41.85L382.6 41.85ZM389.20938 38.50625L390.95938 38.225Q391.1 39.271873 391.77188 39.834373Q392.44376 40.38125 393.64688 40.38125Q394.85 40.38125 395.42813 39.896873Q396.02188 39.396873 396.02188 38.740623Q396.02188 38.146873 395.50626 37.803123Q395.14688 37.56875 393.70938 37.209373Q391.77188 36.709373 391.02188 36.365623Q390.2875 36.00625 389.89688 35.38125Q389.50626 34.740623 389.50626 33.975Q389.50626 33.2875 389.81876 32.69375Q390.14688 32.1 390.69376 31.709373Q391.1 31.412498 391.80313 31.209373Q392.52188 30.990623 393.33438 30.990623Q394.55313 30.990623 395.475 31.349998Q396.39688 31.693748 396.83438 32.303123Q397.27188 32.896873 397.44376 33.896873L395.725 34.13125Q395.6 33.334373 395.0375 32.896873Q394.475 32.44375 393.45938 32.44375Q392.24063 32.44375 391.725 32.85Q391.20938 33.240623 391.20938 33.771873Q391.20938 34.115623 391.42813 34.396873Q391.63126 34.678123 392.1 34.865623Q392.36563 34.959373 393.64688 35.303123Q395.52188 35.803123 396.25626 36.13125Q396.99063 36.44375 397.4125 37.053123Q397.83438 37.646873 397.83438 38.553123Q397.83438 39.428123 397.31876 40.209373Q396.80313 40.990623 395.83438 41.4125Q394.86563 41.834373 393.64688 41.834373Q391.63126 41.834373 390.56876 40.990623Q389.50626 40.146873 389.20938 38.50625ZM407.02188 38.25625L408.83438 38.490623Q408.4125 40.06875 407.24063 40.959373Q406.08438 41.834373 404.27188 41.834373Q402.00626 41.834373 400.6625 40.44375Q399.33438 39.0375 399.33438 36.50625Q399.33438 33.88125 400.67813 32.44375Q402.02188 30.990623 404.17813 30.990623Q406.25626 30.990623 407.56876 32.4125Q408.89688 33.81875 408.89688 36.396873Q408.89688 36.553123 408.88126 36.865623L401.14688 36.865623Q401.24063 38.56875 402.11563 39.475Q402.99063 40.38125 404.2875 40.38125Q405.25626 40.38125 405.92813 39.88125Q406.61563 39.365623 407.02188 38.25625ZM401.24063 35.4125L407.0375 35.4125Q406.92813 34.115623 406.38126 33.459373Q405.5375 32.44375 404.19376 32.44375Q402.99063 32.44375 402.1625 33.25625Q401.33438 34.053123 401.24063 35.4125ZM417.69376 37.803123L419.4125 38.021873Q419.13126 39.81875 417.95938 40.834373Q416.80313 41.834373 415.1 41.834373Q412.975 41.834373 411.67813 40.44375Q410.38126 39.053123 410.38126 36.459373Q410.38126 34.771873 410.92813 33.521873Q411.49063 32.25625 412.63126 31.631248Q413.77188 30.990623 415.11563 30.990623Q416.80313 30.990623 417.86563 31.849998Q418.94376 32.709373 419.25626 34.271873L417.5375 34.5375Q417.30313 33.490623 416.67813 32.975Q416.05313 32.44375 415.17813 32.44375Q413.85 32.44375 413.02188 33.396873Q412.19376 34.35 412.19376 36.396873Q412.19376 38.490623 412.99063 39.44375Q413.7875 40.38125 415.08438 40.38125Q416.11563 40.38125 416.80313 39.75625Q417.50626 39.115623 417.69376 37.803123Z" fill-rule="nonzero"/></svg>